<mxfile host="65bd71144e">
    <diagram id="0G3UqfUbwiGU8wSynE63" name="ページ1">
        <mxGraphModel dx="3599" dy="1574" grid="1" gridSize="10" guides="1" tooltips="1" connect="1" arrows="1" fold="1" page="1" pageScale="1" pageWidth="827" pageHeight="1169" math="0" shadow="0">
            <root>
                <mxCell id="0"/>
                <mxCell id="1" parent="0"/>
                <mxCell id="79" value="" style="shape=ext;double=1;rounded=0;whiteSpace=wrap;html=1;strokeColor=none;fontFamily=Comic Sans MS;fontSize=15;fillColor=#f9f7ed;" parent="1" vertex="1">
                    <mxGeometry x="331" y="1100" width="939" height="280" as="geometry"/>
                </mxCell>
                <mxCell id="80" value="" style="shape=ext;double=1;rounded=0;whiteSpace=wrap;html=1;strokeColor=none;fontFamily=Comic Sans MS;fontSize=15;fillColor=#f9f7ed;" parent="1" vertex="1">
                    <mxGeometry x="-14" y="980" width="240" height="284" as="geometry"/>
                </mxCell>
                <mxCell id="81" value="" style="image;html=1;image=img/lib/clip_art/telecommunication/iPhone_128x128.png" parent="1" vertex="1">
                    <mxGeometry x="34" y="1042" width="144" height="152" as="geometry"/>
                </mxCell>
                <mxCell id="82" value="スマートフォン" style="text;html=1;strokeColor=none;fillColor=none;align=center;verticalAlign=middle;whiteSpace=wrap;rounded=0;fontColor=#333333;fontFamily=Comic Sans MS;fontStyle=1;fontSize=17;" parent="1" vertex="1">
                    <mxGeometry x="34" y="1204" width="140" height="30" as="geometry"/>
                </mxCell>
                <mxCell id="83" value="UI" style="text;html=1;align=center;verticalAlign=middle;whiteSpace=wrap;rounded=0;fontFamily=Comic Sans MS;fontStyle=1;fontSize=20;fillColor=default;" parent="1" vertex="1">
                    <mxGeometry x="2" y="995" width="194" height="30" as="geometry"/>
                </mxCell>
                <mxCell id="90" value="" style="shape=ext;double=1;rounded=0;whiteSpace=wrap;html=1;strokeColor=none;fontFamily=Comic Sans MS;fontSize=15;fillColor=#f9f7ed;" parent="1" vertex="1">
                    <mxGeometry x="331" y="779" width="430" height="549" as="geometry"/>
                </mxCell>
                <mxCell id="84" value="" style="aspect=fixed;html=1;points=[];align=center;image;fontSize=12;image=img/lib/azure2/app_services/App_Services.svg;strokeColor=#696969;fillColor=default;" parent="1" vertex="1">
                    <mxGeometry x="344.25" y="791" width="64" height="64" as="geometry"/>
                </mxCell>
                <mxCell id="85" value="Azure App Services" style="text;html=1;strokeColor=none;fillColor=none;align=center;verticalAlign=middle;whiteSpace=wrap;rounded=0;fontColor=#333333;fontFamily=Comic Sans MS;fontStyle=1;fontSize=17;" parent="1" vertex="1">
                    <mxGeometry x="411" y="808" width="190" height="30" as="geometry"/>
                </mxCell>
                <mxCell id="91" value="" style="shape=ext;double=1;rounded=0;whiteSpace=wrap;html=1;strokeColor=none;fontFamily=Comic Sans MS;fontSize=15;fillColor=#FFFFFF;" parent="1" vertex="1">
                    <mxGeometry x="351" y="870" width="390" height="490" as="geometry"/>
                </mxCell>
                <mxCell id="92" value="" style="shape=ext;double=1;rounded=0;whiteSpace=wrap;html=1;strokeColor=none;fontFamily=Comic Sans MS;fontSize=15;fillColor=#FFFFFF;" parent="1" vertex="1">
                    <mxGeometry x="719.2" y="1120" width="520.8" height="240" as="geometry"/>
                </mxCell>
                <mxCell id="93" value="" style="shape=ext;double=1;rounded=0;whiteSpace=wrap;html=1;strokeColor=none;fontFamily=Comic Sans MS;fontSize=15;fillColor=#f9f7ed;" parent="1" vertex="1">
                    <mxGeometry x="840" y="480" width="430" height="556" as="geometry"/>
                </mxCell>
                <mxCell id="95" value="Azure App Services" style="text;html=1;strokeColor=none;fillColor=none;align=center;verticalAlign=middle;whiteSpace=wrap;rounded=0;fontColor=#333333;fontFamily=Comic Sans MS;fontStyle=1;fontSize=17;" parent="1" vertex="1">
                    <mxGeometry x="930" y="500" width="190" height="30" as="geometry"/>
                </mxCell>
                <mxCell id="96" value="" style="aspect=fixed;html=1;points=[];align=center;image;fontSize=12;image=img/lib/azure2/app_services/App_Services.svg;strokeColor=#696969;fillColor=default;" parent="1" vertex="1">
                    <mxGeometry x="854.01" y="489" width="64" height="64" as="geometry"/>
                </mxCell>
                <mxCell id="97" value="" style="shape=ext;double=1;rounded=0;whiteSpace=wrap;html=1;strokeColor=#696969;fontFamily=Comic Sans MS;fontSize=15;fontColor=#000000;fillColor=none;" parent="1" vertex="1">
                    <mxGeometry x="920" y="550" width="270" height="193" as="geometry"/>
                </mxCell>
                <mxCell id="98" value="" style="shape=image;verticalLabelPosition=bottom;labelBackgroundColor=default;verticalAlign=top;aspect=fixed;imageAspect=0;image=data:image/jpeg,/9j/4AAQSkZJRgABAQAAAQABAAD/2wBDAAsJCQcJCQcJCQkJCwkJCQkJCQsJCwsMCwsLDA0QDBEODQ4MEhkSJRodJR0ZHxwpKRYlNzU2GioyPi0pMBk7IRP/2wBDAQcICAsJCxULCxUsHRkdLCwsLCwsLCwsLCwsLCwsLCwsLCwsLCwsLCwsLCwsLCwsLCwsLCwsLCwsLCwsLCwsLCz/wAARCAC0ANEDASIAAhEBAxEB/8QAGwABAQADAQEBAAAAAAAAAAAAAAEEBQYHAwL/xABNEAABAwMBBgIDCA4GCwAAAAABAAIDBAUREgYTITFRkUFhFHGBFiIyM3OTofAHFSMkNkJScnSCsbPR0zVTVJSy4TRFVVZiZXWkwsPS/8QAGgEBAAMBAQEAAAAAAAAAAAAAAAEDBAIFBv/EADARAAICAQIEBAMIAwAAAAAAAAABAgMRBCESEzFxIkFRYTKBsQUUIzORwdHwYnKh/9oADAMBAAIRAxEAPwD1tERAEVUQBERAEREAREQBFVEATqidUARFUBEREAREQBERAERVARERAEREAREQFUREAREQBERAEREBVERAE6onVAFVEQBERAEREAREQBVREAREQBERAEREBVERAEREAREQBERAEREATqidUAREKAIuPjrNs7jLdam2VVtjjorjU0LbdUwnWRAcZlm+EHO5jkOPNfel2voony0l/iNpuEIaXRzanQzNP48L2g8Prk+FrqljbczrUwfXb3fQ6lFiUdytlwbqoqymqABk7iVj3NH/ABNByPaFlqtprZl6aaygiIoJCqiIAiIgCIiAIiICqKqIAqoiAKqIgCIiAqKIgCvVROqAqhREBzN3YbJXM2hpzppZ5IKW/Qj4L4nuEcdWB+UwkA9Qe+yvNTS0VE+uqaEVkEDmGcNZFI+KBxw6VrZBxDeBICyrhRw3ChrqGUDd1UEsDjj4OsEB3sOD7Frtm619XbY6epwK+2k264RuwXNmg94HEdHABwP8FdnMVL0M2OGbguj3+f8Adz4V+ylpqnCroNdsuDffxVVAN1h3P7pE3DT58j5r40N9r6GritG0jGRVUhxRV8fCkrRkAA8g1/bnyGRq6hYN1tdDd6Oaiq2ZjeMseANcUmMCSMnxH+XIorM+Ge6+glTw+KrZ/wDH/fUzgUXL7OXGshqKnZ27P1XC3t1U0xPCso8DS8E8SRw9nm0rqFxODg8MtrsVkeJBVRVcFgUREAREQBERAVRVRAEREAREQBERAEVUQBOqJ1QBEVQEK5y3sFRtTtJWsDWx0dLQ2t2gY387mipe+THMtBa0Loyubss0dLUbc786fRrxNWy9RBJSxyNd2BwrIdJY/u5Rbjijn1/Y6RFz2y+0Dr7T1r5mtjqIKhx3TfCmly6F3Hnwy0nxLfNdCuZxcHwssrnGyKlHozk9r4JaUWraKlYTUWeoYZ9POSkkOlzT5ccfrldPBPDUwwVELtcM8TJonDk5jxqBSoghqYJ6eZodFPE+GVvVjwWkLldlKt9BJcNmq6VoqLbUO9BMhDTPSyEvbozzxzA6O8uFvx1+8foUP8O32l9V/KOvVUVVBqIiIgCIiAIiIC8FEWvrrzZraWNrq6CB726mxuJdIW5xq3bAXY88KUm3hHMpKKzJ4NgixaG4W+4xGehqYqiIHSXRuzpdz0uaffA+sLKRrHUlNNZQRfKonp6WGSeoljhhiGqSSVwYxo5cSVr6TaHZ6ulbBS3GnkmcSGRkuY556MEgGfYii3ukcucYvDe5tURFB2VRVRAEX4kkiiaXyyMjYObpHBrR7XcFim62gZ+/qX51q4lZCO0ng6UZPojNVWD9tbR/bqX5xqyIainqGCSCVkkepzdUZy0lpwRlRGyEniLTDhKO7R9SuWv1pvD5q+sswgfJc7e623GnneYw9uC2OoY/lqaCQc+C6CWut8LiyWrp2PB4tfKwOHrGcr5/bO0/26k+dZ/FdR1EK38SK7KHbHDTNAyz1lkisNwo276e3UEVvu9PACTV0nw3PhHMvjdlzR4jI58D1EUsU0cU0Tw+KVjXxvactc1wyCF+IqqjnyIKiCUjiRHI1xHngHK/D5aChJMs0cDZ3Oc1r3BrS7m4tHnnj/nx6lcprib+ZEKXB8MV8jKWsudisl30urqRkkrGhsczS6OdgByA2SMh3DwWwilimjjlie18bxqY9hy1w6gqyB7mSBj9D3NcGP0h2hxGA7B4HCmMmt4smUVJYkjm9ztBYMOgfVXm0D4yCQh9zpW8swv4bxo/JPHot9R1lJX08VVSTNlglB0uGQcg4LXNPEEciCMhef0/pMtzqKDaq+XmkqxIfRmwVApKGpZwAfG+NoHHw5dOYwu4tdot9ojnjoxN98S7+d088sz5JSMF7jITxPjgLRdFR69TJp5uT8K8Pv1RsERFmNoREQBERACvI9pI21O19TTyOdonrrbTOIPFrJI4Izj1ZXrhXk99/DY/9VtP7KdbtE8Tb9jyvtNZhFP1R+tmaqew7SS2+qdpZUSut1Rk4bvQ77jIPWeA8nr1XuvOfsgWsxVFJd4QWifTTVDm82zxjMT89SBj9UdV1lrvlPU2CK8VDwBBTSGtxjImgGmQAdSRlv5wUahcyMbV57PuTo5cmU6JeW67HJ/ZBuhfNSWiJxLacCqqmt4l0zxiKPHUDj+sOi5mroZbVd6Gke52/hktEkpB+DPIIpnhpHQnA9S2uzVNPtDtJJX1Q1R08rrlU8y3eF33GL1A8R5MX52r/C6b9JtP+CBba/w2qV6b9zzLlzV95fnJJdj0yvutqte59Pq46cTmQQ7wOOvRjVjSDyyFkU1TTVkENTTStlgmYJIpG5w9p8RnBXDfZH+DYPzrh/6V0uyv4O2H9Bj/AGleZKpRqjZ6ntwvcr5VY2SRuitVT7QWCrq20NNXRyVTnSsbEGShxdECXjLmgcMHxW16LyXZj8MKf9Iuv7uZTTUrIyb8kNRfKqcIpfE8HTbQySzXPcOe7dxinZG0cm7wAucByzx+hbsbOWUAAsncRzc6okyfXpIH0JdLHDcH79kphqNIY52nUx4HLU3IOR1ysUWzaloDW3aPSOAy6TOB62k/Svm+Q4XTlZXxpvbo/qfQc1SrjGE+HHXqZfucsn9VN/eJv/pfm4RstVnqY6HXGNbQDrc57d7IA4hzuK1tXNtNad1JNWRzRSO0jID2lwGdLg5ocPYVlXCs9P2fNVo0OfJE17c5AeyYNOD06I7KVGxQhwTSfkc8FjlBylxRb9TW2O1Utw9LkqTJohexjWRuLNRcC4uc4cfpW79zll/q5/7xL/FYmynxNx+Xi/drpFZoNLTPTxlKKbf8kaq+2NrjGTwcReqGO1T0z6OSVpex8jMuy6N7COIdzws3aJ7pKWxyOxqkjke7HVzInFfnaz4yh+QqP2tUv/8AoWz/AMgf3cSwXRVf3iEdl4dv0NVTc+VOW73N5ZP6KtnyA/xFbFa6yf0VbPkP/IrYr6DTfkw7L6Hk3fmS7sw6+2225wmnrqaKePiWh498wnhljh74H1FYttoq21uFE2aSqtmCaZ9Q8Gpo8D4lzj8KP8g8xy4ji3bJwWnieOHyM7rjxcXmERFydhERAETsnZACvJ741521JDHkfbW08QxxHAU+eIGF6z2UwFdTbym3jqsGXU6fnpLOMPJr7xbo7rbq6hfgGeNwicfxJmnVG/2EDK8fNZdKGkuNilZJEKirhlngc1+93kORoa3HEOOk+ekdePuHZTS3OcNyORxx7rum/lLDWUV6nSc9qSeH0+Rzmx9oktVoYZ4yysrX+lVLXDDo8jEcR/NGM+ZK4raprztbOQx5HpNp4hjiPgQ+IGF6z2TASF7jNzazkm3SKdUak8JYOR22s1wutNQzULN9LRSVBfA0gPkjmDMmPVwJGkcM+Plg6i1bWVdnoKO21Vir3SUce5DmtljLmgkguY+Pn14rp9ob3WWZtCaa2y1xqHTB4i333LdhpGd1G7nk88cu2h93F7/3aqv+7/kK2pTnWouOV3wZ7nCu5zjJqXntn9j6+77P+obj4df5a5nZN+82roZMFu8luEmk8264ZXYPqXQP23v7muEWzdSJCPeFzax7QfNrYQT3Cx9kNn7026i8XCB9LHEKh8bJgGzTTTgtJ3fMNGSeOPDgrklVXPKxleuTNJzutrxJyw89MYOpr78KGqmpvQ5Jd2GHW15AOpody0Hl61je6kf7Om+cP8tdKntXz0qdQ23GzC/1R9PGylJJwy+5xlwuNZeRBTwUEwDJN5hoc9xcWloy4tDQPWVthaqoWH0AlvpPx2Afe697vdGr6Mrep2VcND4pTtlxOSx6bHUtTso1rCTz6nE264VVmfUxTUcpErmucx4dG9r2jTlrtJBH19eNV1Uc1QKijgqKaQu1ua17nND88HMDWjHn9c9+izv7NnwcpWeFdNt/1LVrI8XG4bv3/Y4Kpqa+9S0cGiPftY6BpyGBznHLnu1HHsHTzwN/erZU1FFQtpwZJKJujQMBz2FjWktz48AvtXWGjrJhUMkfTyk5kMIbh7hydg8j5hbKnjmiijjlndO9owZHta1zh4ag3hlKdFN8yN+/F59ibNTHwSq2x5HMUV8qLdTQ0k9vmJgBY0nXGS3OcFrmHj7Vke6n/l03zh/lrpUWiOm1EEoxt2X+KKndVJ5de/dmlpL4+rjrnto3sNKyJ+HyH3+skYB0eGOizI69z6r0YwPaQ+Zrn5yzDB70g4/Gw71afNZydlphXakuKeX2KJSg28Rx8widk7LQVBE7IgCIiAqiqiAKqIgCIiAJ9fFEQD68ynBVRAE6onVAFVFUBEREAREQBERAFVFUBEREAREQBERAVRVRAERVAREVQEREQFUVRAROqJ1QBVRVARERAEREAREQBVRVARERAEREA7J2REBeynZEQDsr2URAOyvZREA7J2REBeydlEQDsnXkidUA7K9lEQDsnZEQDsnZEQDsnZEQDsr2URAOydkRAOyIiAIiIAiIgCIiAIiIAiIgCIiAJ1REAREQBERAEREAREQBERAEREAREQH/2Q==;clipPath=inset(15.56% 3.59% 22.22% 6.94%);" parent="1" vertex="1">
                    <mxGeometry x="938.13" y="590" width="233.75" height="140" as="geometry"/>
                </mxCell>
                <mxCell id="100" value="" style="shape=ext;double=1;rounded=0;whiteSpace=wrap;html=1;strokeColor=#696969;fontFamily=Comic Sans MS;fontSize=15;fontColor=#000000;fillColor=none;" parent="1" vertex="1">
                    <mxGeometry x="918.2" y="762" width="268.8" height="248" as="geometry"/>
                </mxCell>
                <mxCell id="99" value="" style="shape=image;verticalLabelPosition=bottom;labelBackgroundColor=default;verticalAlign=top;aspect=fixed;imageAspect=0;image=data:image/png,iVBORw0KGgoAAAANSUhEUgAAAOEAAADhCAMAAAAJbSJIAAAAYFBMVEUFmYv///8AlIWv1tEAkIAAlocAkoIAj4Dd7esln5KJw7zn8/FfsqhVrqNotax7vbXH4t70+vk1o5dBp5u52taFwrrW6uel0cvC39sjn5KYysTO5eJ4vLO22dTr9fSRx8C3rQpbAAALi0lEQVR4nM1d2ZbqIBCMGIijJmrcHb3+/1/eLEazAFmowqnHmXNCSghdQHcRzOjYLbaP8/KexPv0eg0yXNN9nNyX58d2seM3HzAfvjrcklQoJYTMENSR/0Hk/0qT22XFfAkWw9XhuM/ev8VLh4xpqPbHA4smg+FqngSDyDVoqiCZM1jCGW43ObsR5Go0M5abLfqFsAwf63Aiuw/LcP2AvhOQ4WEdOdKrSEbrA+61UAxPGwGhV5EUmxPozTAM56nC0XuRVOkc8m4Ahv+OSoDplRBi+e8PMFwkEYdfwTFMFl9meIpD9PBsQoax4wfpxHARR1x+BccodupHB4arNbn/3hzDtYPYmcxwt/HEr+S4mbwKmcrwLHjziw5CnL0yPF398is4XqdNOZMY3kPv/HKEd08ML9J/B5YQcsLKYzzDJPoSvxxRQmf4+7UOLCGCXy7D4zc7sES0JDLcpd/twBIiHRUbxzDcAleALpBizIQzguHz+yO0QvRkMIz/wgitIGI4w93PXyKYUfwZ+jEOZLgYtfvZj73zE6QcuKYaxnAL/gTDLWBERMPmm0EM52AdKjcLBXhMOGiragjDG1poh7ML5KsObxiGT8TvXYe4zeaYeUsNiBr9DJfwpZLMhgVo4gr7JVwvwyW6BwORfT5H1NSsein2MXziF7s/2WMTWPAJ+wZqD8MbvAcDlU/yMS68qp7pxs4QHSYyyEJv/QCf2BM0rAy3hP2YsJAiUIUUWkO/jeGCsJiQ5W4S9qeLbALOwnDHWA2qQjDvwJ+3tMhwC8MfAkNZznwrNMOfKQwp60FZPvsXLpPM60UjwyeDoHhNexhZWodZv5kYotdLJa6vp4NkaR3GtZSB4T/Kiv49raNkaR3CMNsYGKaMeVTuq8fDZGn96ekYhkdKF37CFk6W1iCOwxn+Uj5C+TlzAMrSGiLthr+WIWfjN/p8KCmlgSoW9TOkjKFA1lZypL1zqTuZ0jC8cPa2Ra0J1glrdBnEkPMD18/h0bL0A8047TK8cza3r7Um0LL0A9E9CO8wPHFGkKqPnxONYRB20hk6DK+Uhj/BPgdeln7QWWW0GZ45jYeNNSpBlr7RybtpMdxx2m5N4wxZ+kZbn7YYbkhd2MwTZcjSN8TGxvAfZ5qRLcXIkRQVWj9nk+GaFAtbnwZHllaQazPDBacLOx8/SZZWaE5rDYas37ZFkCVLK8jGpk299RNHkKpO8QQv4JeITgaGnC7srr15srRqMtYzJH2FXR3Fk6XvNhdahqRl4bpNkClLq0YTHUNSLAy7RSFMWdpt9cOQs/uk2x5iytKq2aWGIamyp0uQK0s77b4Zcn5YbYY9VZZWDc87DEk6Q0OQLEtfSNsMIUlKHXSDfQ6uLK2aXrQYbiit6jfaybK0hNy0GHK28fVZ534yjUWTISVEScOxpZ96FHFpMKQsDEN9xRldlpaoxNSLIaPR9nZCBb4sLaHqDB+MQaoMR5Z8WVpCPGoMGYNUmLKxPMjSAq9hGtAGqfaoK4cHWVpCfRgisq47jzd6P/iQpQXKwpOCIUMomnN4lr76sNzELBgSnq7MJWZeZGmJiiFh+jYF+xxeZGkBtXoxJHz6hmBfwIssLVAsoQLKsJG2il2PRe7JiyH+0aGtKMlnmXTJEP8ZGoN9Dk+ytED+IWYMD/DP0Bjsc/iSpTnEoWAIj4bCmlruS5bmyCNixnCPZmhJ2J35k6U58vSBAP/lK3vVnDdZmiPMGcJzrnsKWL3J0hzZVBPAR421NGDmUZbmEJeMIfg3tQb7HEkoxsLhbW4ZQ7CiMa3s37jMx+Ix/W0yVROAZaIcUSk/FC7fUZoxxE40upMYV7i8j5oFWBFlD/bT4JSIpnYB9sDi2v/Co+E096pFAN2jsdfJTYObqBTbALlV2syxxMDx8F08gjMwWITOJoddOG7lynOwBLqOjjdx6oVryrJcBnccw4jgzu268JH3ACdp5EgDpyG4uM70MgliCLviYXiCgC2kGOAU88JkY0MLAFnn+wAnS/EEEWfvaYCqPlCaghxXIOZ5WHUFJdj/HXOxgBPsPR7h9EOTY+kMUr7rRGhyLJ0B3+V0QbugAgGY7QhkrmGs7EGT4BUSDxnBHrVxnGI0DZ4g7JRxj9CljGD/RDGMAWsLk5mBC2D7Y9nawn192C2ocAcs2MuN+xr/bwf7bI3vvE/zt4O9PDvvtZlyLF0A9BgTD+f9UoUniHRzE1vXPW9r2sVEIE+J1cL53AJPEJpSpHaOZ0/6ggo3QD24hOv5IWFlv4MuC1PHM2B5fIw+0e3bNgZuUb/OgJ3O8eXoM/moJ3yuoJszxTk+PunLiqinC7HZp0Uuhs88s6B3sQz2Gyzyaei14030nBIjrVuDQo8w8tps6NlXfWB/7ldem4+Szk+b9pUI+FVeuYlepxppFeo38Ku88ktXPnderRlF8PThV46wx9Tynm05aLDPkR9pcnL1zRAWIQsfTO9cfZ85rcJyXRO81ORdb+Ez5ivzGRXecfNdM8OoezLBsqtDqKWZVQw5pepamGXpAT6SyshEqz80wCxLCW196g89SlOjLCWY/dVqSFkuZl2YZSmhQrBeB0yp5ba02gXBHadRy+1tmJpkKSPtolGP722YmmQpof2Wp4KvYiSDLGXYwrZ8MUgeSt1m9bKUYQHf8jbxFfT1shQf7DX+NByPoQ70spTaEtsnqgWtLKU4+3Z8ojwtobRnccy7Qvh+be2GNQQpO2EavzY/dYEaWUpxM9R67pF8ExvQyVKOgZPON9HHdo3OCJPxw+q9L33kc2pkKWXH3eBf6sF0pCtLnQsqtM0YPGhZPsI1dGUppRmjjzC/E0XbWokS7M1e0PwvsXNlOOdaKbOfN32Z2JalwMK5D2ye7PRDmpYsxaZdvBtp+hv5uRuhQkuWci62st6NwFanTYacz74tfT3dUVKh0RYl2PfdUcK6Z6ZEU5Yy7nHVaHtfdwUVaM5ylN9ywF1BrPuecjR8TyhL7iH3PTEPvUVdllJ+yEF3drHuXQuaswCsoKKOgfeu8RaKtd1Simvb0LvzeOO0Jkspv+Lg+w9Jd1jWZSkl2I+4w5K1K/WRpYxgL/SOBz7vkv2INkawH3eXLOn+tbB6PCPYj7wPmHSn8+vhjGA/9k5nzr3clSwlfALj7+Vm3K1eyVLCjzflbvXZ7AeeKViKRsLKXlrsNi0Md/BEunIkwXMsM4aWIg5b3dICPNuUspSwF2Q1o7RWZoHDVrlbit+UtXuo2WvP5lCKhSwFF1RkCO0+fz3VdTfk+6h8/Q0uqMie2lMB2Vc/+AT2Yi5LwQUV2UP7zDZ7KySXuFfKrU1hD3sh7DUY668BXcJ6McIXVPQTHMBw9oT1Inxlb9ZqoxjObqBe3KMPDcIhZdaDKpUxQUOud1gJ0RMmxjDEhH65xG7OGNdLUxjOFgLwctCtCykGuosNraffXf0W0/ZB/Aw12hzuGBD7rTW1Q/VY209iOHv+HQu8aIRr+BjXhy3iYwRAdhIeUAxnu/QvfIwiHeV1O9K54/j9kRqNtLod603yK787UqW0FDBCGM5myTe7MRpvNz3BX2b7tW6UcoLn+yQHnft3ujHquxwEx3B2+oLCET/TfOGmuiCdXe5GmcJvsvvkZJ+n3Sb0eEVcuJns9+7gZLVae+Iow7XlskEiw2xNFUcest+j2MmF2dGN7BST+1GGsaPxpLPf2iKJeHOOCBNnF22Ao9y/peJwFGIJcJ3EeObNUwU/bFQp5t4hlCvgYiOAq0cpxAZl8g70PTysIwhJKdQaaFaIdXZ8rENHklKEa+N915MA9668bAI1kWXWecEG7ivNcOdczZOc5RiaMmMnk7mDdDGCwTDH6nDcq0E0c3Jqf3ww2OVgMSywOtySVGVEM6YtrvkfREZNpcntwCJXgMqwxG6xfZyX93W8T8t8tmu6j9f35fmxXRBuiGrjP99HhJdtBVRiAAAAAElFTkSuQmCC;" parent="1" vertex="1">
                    <mxGeometry x="952.6" y="799" width="200" height="200" as="geometry"/>
                </mxCell>
                <mxCell id="101" value="FastAPI" style="text;html=1;strokeColor=none;fillColor=none;align=center;verticalAlign=middle;whiteSpace=wrap;rounded=0;fontColor=#333333;fontFamily=Comic Sans MS;fontStyle=1;fontSize=17;" parent="1" vertex="1">
                    <mxGeometry x="924" y="768" width="110" height="30" as="geometry"/>
                </mxCell>
                <mxCell id="102" value="MySQL" style="text;html=1;strokeColor=none;fillColor=none;align=center;verticalAlign=middle;whiteSpace=wrap;rounded=0;fontColor=#333333;fontFamily=Comic Sans MS;fontStyle=1;fontSize=17;" parent="1" vertex="1">
                    <mxGeometry x="994" y="554" width="110" height="30" as="geometry"/>
                </mxCell>
                <mxCell id="104" value="" style="endArrow=classic;html=1;exitX=0.5;exitY=0;exitDx=0;exitDy=0;strokeWidth=5;strokeColor=#696969;endFill=1;startArrow=classic;startFill=1;" parent="1" source="99" target="98" edge="1">
                    <mxGeometry width="50" height="50" relative="1" as="geometry">
                        <mxPoint x="1440" y="559.5" as="sourcePoint"/>
                        <mxPoint x="1440.5" y="470.5" as="targetPoint"/>
                    </mxGeometry>
                </mxCell>
                <mxCell id="105" value="My SQL connector" style="text;html=1;strokeColor=#666666;fillColor=#f5f5f5;align=center;verticalAlign=middle;whiteSpace=wrap;rounded=0;fontFamily=Comic Sans MS;fontStyle=1;fontSize=17;gradientColor=#b3b3b3;fontColor=#121212;" parent="1" vertex="1">
                    <mxGeometry x="1070" y="751" width="180.5" height="30" as="geometry"/>
                </mxCell>
                <mxCell id="106" value="" style="shape=ext;double=1;rounded=0;whiteSpace=wrap;html=1;strokeColor=none;fontFamily=Comic Sans MS;fontSize=15;fillColor=#f9f7ed;" parent="1" vertex="1">
                    <mxGeometry x="1350" y="750" width="310" height="286" as="geometry"/>
                </mxCell>
                <mxCell id="107" value="" style="shape=image;verticalLabelPosition=bottom;labelBackgroundColor=default;verticalAlign=top;aspect=fixed;imageAspect=0;image=data:image/jpeg,/9j/4AAQSkZJRgABAQAAAQABAAD/2wBDAAsJCQcJCQcJCQkJCwkJCQkJCQsJCwsMCwsLDA0QDBEODQ4MEhkSJRodJR0ZHxwpKRYlNzU2GioyPi0pMBk7IRP/2wBDAQcICAsJCxULCxUsHRkdLCwsLCwsLCwsLCwsLCwsLCwsLCwsLCwsLCwsLCwsLCwsLCwsLCwsLCwsLCwsLCwsLCz/wAARCAC7ALsDASIAAhEBAxEB/8QAGwABAAIDAQEAAAAAAAAAAAAAAAEHBAUGAwL/xABEEAACAgEBBAMKDAUDBQEAAAABAgADBBEFITFBElFxBhMUIjJSYYGRsRY0VXJ0k5Shs8HR0kJUYuHwFSOCQ1Njc/GS/8QAHAEAAgMAAwEAAAAAAAAAAAAAAAUDBAYBAgcI/8QAMhEAAQMBAwkIAwEBAQAAAAAAAQACAwQFEUESEyExUXGBobEVIjJSYcHR4QYU8PEjkf/aAAwDAQACEQMRAD8AtuIiCEiIghIiIISIiCEiIghIiIISIiCEiY+XmYeDQ+Rl3JVSugLPrvY8FVRvJ9AE4raPdrl2Fq9mUimvXQXXhXub0qnkD16yKSZkfiKu0tDPVn/kNG3Bd7I1Gumo16tRrKfyNpbUyyTk5uVaDv6LWuEHYikL90xPfKZrhg1PG/jriO9Jcd1/uFdkSnMfO2jikHGy8mn0V2uFPauun3Totn92e0aSibQrXKq1ANlYWu9R16DRD7B2yRlYw+LQq89gzxi+Mh3I/wBxVgxMTA2jgbSpF+HctiDQOOD1sf4bEO8GZcuAgi8JA5rmEtcLiEiInK6pERBCRErTug7oMraORdRRaybPrZq0Stivf+idDZYRvIPIcNPTOrnBoVSqqm0zcp2s6grEOXhKSrZOOCNxBurBHaCZHhuB/N4319f6ym9F6h7BGg6h7BIs76JP2y7yc/pXJ4bgfzeL9fX+seG4H83jfX1/rKdqqsuOlFNlxHEUVPbp9WDPqyi+ka3419I676LKh7XUCGd9Fz2w+6/I5/SuDw3A/m8X6+v9Y8NwP5vG+vr/AFlN6L1D2CNF6h7BDO+i47Zd5Of0rk8NwP5vG+vr/WPDcD+bxfr6/wBZTei9Q9gjReoewQzvojtl3k5/SuTw3A/m8b6+v9ZjZu2NmYONdkvkU2CtfFrqtRrLHO5UUA8/78pUmi9Q9gjQDgB90ilqMht9ye2E+S1arNZNzRpcb8Pk/JwWdtPambtXIORktuGopqUnvdKH+FB7zz+4YURFLiXG8r1uONsbQxguASIkThd1MREELJwc/M2dkJk4lhSxdzA6lLE13pYvMf4NDLR2RtXG2viJkU+K6noZFJOrU26alT6DxU8x7BUs2mwdqNsraFNxY+DXFaMxeXemO5+1Tv7NeuWqacxuuOopLatnNqoy9g745+nwrXiQCCAQQQeGnAyY5WBSIiCF4ZhK4uYynQrj3kEcQQhMpocF7B7pcmb8Tzvo2R+G0pscF7B7pBLgs5bPiZx9k9RPAAAakk7gABznc7D7kalSvK2wgstYBq8Mn/aqHEd+08puscB6eM1fcfs5MzaVmVaoarZyo6AjccmzUIf+IBPbp1TtNs7Uq2RhPksA9jEVY9ZOnfLSCRrpyG8ns9MGNF2UV1s+ljEZqJtQ1cMVnolVKBK0SutBoFQKiKPQBoJ9eJYp8l0YEHgykenlKgzdo7R2jY1mZkWWkkkISRUg6krHiieWNmZWHYLcXIsosU8an6OvoYcCPQROc6FObYYHXBmj+wXZd1Oxtg42M2ZWVw8pm0qqpUd7ym4kd6G4elhp6ddZxEyc/aOXtLIOTl2h7OiEUDQIij+FF4Ac5i6g8CD2SJxBOhJquZk0hdG24JJkROiqpJiJSqD3rl65+DwBtHJNi513AAfJUSZE+LXNdVzjilbMO3TdK63hNwvKxcrONbNVT0SynR3I1APUo4TB8Kyyel3+zX5272cJ4xL7Y2tF1yz0lRJI6++5bHGz2LBL9NCdA4AGh/qA3TYznZvMVy+PQx49HQnr6JK6yvKwDSEwop3PvY7Be0jcdx4HceyIkCZK0+5rLbM2Ls6x21sqRsWw8y1DGsE9oAPrm5nJ9wzk7Oz05JtBtP8AlTWZ1kfQuyowV5paEYiqZGjVf1SIiSqksfN+J530bI/DaU2OC9g90uTN+J530bI/DaU2OC9g90glwWctnxM4+y77uGCeAbTYeUc/RuwUV6fnMXu6azvmx0/6fQy2HUX1rB+73zw7ic1acvMwXYAZaLdTrztqBDL2kb/+M6Tuj2Q21sELT0fC8Zjdj9I6B9Ro1ZJ3DpcvSBORpZcFNG0z2fks1/BvVWv5FnzG90tnE2VsdsXDZtm4DM2PQWLY1JJJRSSSVlVWV2VWWU2oyWoStldilXU9TKd8yxtfbaBEXaWeB4qVouRd2BVUH2CRscG60roqllO52cbferR/0nYnyZs/7LR+2c53YYGzsbZmPZjYmLRZ4dUhaimutipqt1BKAbtw9k2fc1i7Xow7L9qZGVZk5TK605Nr2HHqUaKpDE6Md5b1DlNP3cZa9HZuCG8bpPl2DqABqT26t7JM7w3p5VFhpS8tuvC4iJMSqsmoiTEp1DdIK9V/BqtroJKU6wcrgQB1HNRIdQ6Oh4OrKfWNJ9RKy9DIv0Ln3R62ZGGjKdCJ8zd341N+hYEOBoHXjp1GYh2Y+u65dPmHX3y42ZpGlI5KKRru6LwsAAkgKCWJAUDiSeU3tNfeqqq+JRQCes8TPKjEpoPSGrWaadNuWvmjgJkyGWTK0BXqSmMV7nayokxJVLbGrqqUvba6VVIOLWOeio9shV/UrB7iaimybrSNPCM+919K1qlOvtUzqZh7Nwk2fgYOEh1GNSlbN5z8Wb1nU+uZkfxNyGBq8xrJhPO+QaieWCRESRVVj5vxPO+jZH4bSmxwXsHulyZvxPO+jZH4bSmxwXsHukEuCzls+JnH2X3VZbTZVdU7JbU62VuvlK6nUESyth90eHtRK6bmSnPCgPUx0W0+dST19XEeniazj/7I2uLUtpKt9M69ukHBW/l7N2ZnaeGYePeVHim2tSwHobyvvnxi7I2Lgv3zFwMaq3lYlY74Ox21b75W2Pt/ugxVC07Qv6IAAW3oXAAch34MZ62903dLcpVtoWKD/wBmumo//qtA33yXON2Jv2pTk5RZp3DqrC2ptfZ+yaTZkuO+EHvNCkd9uP8ASOrrPD86uzs3I2hl35d5HfLm10Hkoo3Ki+gDd/8AZ4WWW2u1lru9jnV3sZndj1lm3z5kb35SV1lc6qN11wGCiTEAMxVVVmZmCqqglmY7gFA5yNUEAZiqqpZmYKiqCWZjuCqBzM2+TsLKxcBctm1uUlsmpdCKqyAAQw4kfxdvo1O52NsZcIDJyQrZjA6DiuOpG9VPnecfUN3lbkgEEEAggggjUEHcQQZla+2P+gZDpaNZ27vReh/jtnyULxVyaHHD0O316b1WsmbPbGzG2feGrBOLeSaT5h4msn0cvR2TWRjFI2Voe3UV6lHI2Roe3UVESZEkUiSZEmCEnXdxuxzdb/rF6f7VJevADDy7PIe7fyG9V9fVNHsXZF22c1ccdJcaro2Ztq7ilZ4Ip85t4HVvPLfatNVVFVVNKKlVSLXWiDRURRoABL1JDlHLOoLN23X5pn68Z7x1+g++i9IiI1WLSIiCFj5vxPO+jZH4bSmxwXsHulyZvxPO+jZH4bSmxwXsHukEuCzls+JnH2SJMiQJCkmRJghRJkSQGYqqqzMzBVVRqzMdwCgczBCAMxVVVmZmCoqglmY7gqgc52Gx9jLhAZOSA2Yy7huK46kb1U+cf4j6hu8psbY64Srk5IVsxhuG4rjqeKqfO84+obvK3UyFqWpnb4YT3cTt+uq3djWNmbqioHewGz76KIiLEsTo9JSAw1GvOKKOjkrJM3HxOxaaWVsTbyvDLx6Mui3HuGqWDiOKsODL6R/nGcHl412HkW49o8es7iODqd6uvoP+cJYE1W28DwzGNta65GMrOmnF6+LJ+Y/vN62zo6eEMi1jmizLTdHNkyHuu5H+1rjYkyJTW4SelVV19tVFK9K21giDlrzJPUOJ7J5zqu5/A7zT4bav+9kLpSDxroO8Htbj2aSWGIyOyVRr6xtJCZDrwHqun7nMKjAxLaK956aNbYRobLCu9j+Xom7mu2V5OR89PcZsY9aA0XBecSPdI4vebyUiInK6JERBCx834nnfRsj8NpTY4L2D3S5M34nnfRsj8NpTY4L2D3SCXBZy2fEzj7JERIEhSTIkgMxVVVmZmCoqglmYnQKoHOCEAZiqqGZmIVFUaszE6BVA5zsNjbGXCAyckK2Yy6AbiuOp4qp87zj6hu8psbYy4QGTkgNmMNw4rjqeKqfO84+obvK3UyFqWpnb4YT3cTt+uu5buxrGzN1RUDvYDZ6n16b1ESd53TSZfdAuNlVJjV13102a5DN5NnIpUR1dfWOrjQsuyqm1ZszTC86ycAPX2GK0NVVR0rMqQrpsfH00ssG/iqnl6TMh0SxSrDUH2g9YnliZeLnUV5OM/TrfUb9zIw4o45Ec/wBDqfeeg0tCyhZmWi4jXtJ9f7Qk75jMcu9aq6l6W0O8HyW5ETz3jeOPKbexEsUow1B9oPWJrLqXpbQ7wfJbkRLS6Lh9tYQw81+gulOQDfUBwXU+Mg7D9xE1k7Lb2ML8B7ANbMVhcOvoHRXHuPqnHRLUR5D9GK9DsmqNTTAu1jQf7csvZ2H4dmUY5B70Nbcj/wBSaaj17h653egGgAAA3ADgB1CaLubxgmLdlMPGybCqH/xVEqPadTN7L9LHksv2rMW1VGaoLBqbo44/HBbTZXk5Pz09xmxmu2V5OR89PcZsZcSNIiIISIiCFj5vxPO+jZH4bSmxwXsHulyZvxPO+jZH4bSmxwXsHukEuCzls+JnH2SJMAMxVVVmZmCqqglmY7gFA5yBIUAZiqqpZmYKiqCWZjuAUDnOw2NsdcIDJyQGzGXcNxXHU/wqfO84+obvKbG2MuEBk5IVsxhuG4rjqRvVTw6XnH1Dd5W6mQtS1M7fDCe7idv113Ld2NY2ZuqKgd7AbPXf03pG8kaRx0HXOc2vtfpdPExH8XeuRch8rka6yOXWefZxpWTZNRatQIIBvOAG0+wxWgq6uOljy38BtU7X2v0uniYb+LvW+5D5XI11kcus8+zjz8RPoOybKp7KpxTwDecSdp/tCwNVVSVUmXJ/iztmbTytl5HfavGrfQX0k6Lao9zDkfyOksLEy8XOorycZ+lU+o37mRhxRxyI5/oZV8ztmbTytl399q8ep9BfSTotqj3MOR/I6TpaVmipGcj0PHNSUtUYjku1dFZM+XRLFKsNQfaD1ieWJl42dRXk4z9Kt92/cyMOKOORHP8AQ78iYpzS0lrhcQn4IIvC1GRjEdOmwA12q1ZOm4q4Kn3yt7EeprayPHrZ69P61JXSW46JYpVhqD7QesSvNoYfe+6U4p0ItzaLwPOrcC8tp7dYvrGXhp4LS2DPm3SNOq6//wA/1dNi0jGxsXHHCmmuv1gbz7dZ7REugXC4LOucXuLjrK2myvJyfnp7jNjNdsrycj56e4zYzsuqREQQkREELHzfied9GyPw2lNjgvYPdLkzfied9GyPw2lNqGbvaqrMzdFUVRqzMdwVQOcglwWctnxM4+ykBmZVVSzMwVFUEszHcAoHOdhsbYy4QGTkhWzGXQDcVx1I3qp87zj6hu4tjbGXCAyckK2Yy7huK46kb1U+d5x9Q3eVuZibUtTO3wwnu4nb9ddye2NY2ZuqKgd7AbPU+vTeknjygAk6DnwnObX2v0u+YmG/i71vuU+VyNdZHLrPPs40rJsmotaoEEA3nADafYYrQVdXHSx5b+A2qdr7XDCzDxH8Xel9ynyuRrrPV1nnw4cefkRPoOybKp7KpxBAN5xJ2n+0LA1VVJVSZx/+JJkRGyqpERBCz9mbTytl5HfavGqfQZFJOi2qPcw5H8jpLCxMvGzqK8nGfpVvu37mRhxRxyI5/od9XTP2ZtPK2Xkd9q8ap9BkUk6Lao9zDkfyOkTWlZoqRnI9DxzV6lqjEcl2rorJnnZRRaek9aF+j0Q/RXpgdQbTX758YmXi51FeTjP0633b9zIw4o45Ec/7z3mKc0tOS4aQn7XXi9p1rVXUvS2h3g+S3Iiec27olilWGoPtB6xNZbS9LaHeD5LciJ1XK2GyvJyPnp7jNjNdsrycj56e4zYzlCREQQkREELwzAxxM0KCWONeABvJJrbQCcVsXY64SJk5IDZjJoBxXHUjeq/1ecfUP6u7YdIMDwIIPrGk0Lo1btWw0ZSR/eZf8hmljja1nhN9/wAKxS0sUswleLy3V8r4k8dwjQnQTndr7X6XfMTDfxd633KfK666yOXWefZxztk2TUWrUCCAbzgBtPsMUyq6uOljy38BtTa+1w3fMPDfxd633IfK5FKz1dZ59nHn4ifQdk2VT2VTingG84k7T/aFgaqqkqpM5J/iiJMRsqqiJMQQoiTEEKJMRBCztmbTydl399q8ap9BkUk6Lao9zDkfyOksLEy8XOorycZ+lW+7fuZGHFHHIj/Nx31fM7Zm08rZd/favHqfQX0k6Lao9zDkfyOkTWlZoqRnI9DxzV+lqjEcl2pWTPl0SxSrDUH2g9YnliZeNnUV5OM/Srfdv3MjDijjkRz/ALzImKc0tOS4XFPgQReF84FT0+Eqd4LoVbrGhmbPOlSFJP8AEdfVPScLlIiIISIiCEnjdjU3gdMEMNwZdzD0T2iRyxMlaWSC8FctcWm8LT5mxbMmlqas6ygPusZakZ2TzQSRprz/AM10/wACK/lO77PX+6dhEnoHmzozFS90E36hr3nSop421DsqXSVx/wACK/lO77PX+6PgRX8p3fZ6/wB07CIw7Vq/PyHwoP04fL1XH/Aiv5Tu+z1/uj4EV/Kd32ev907CIdq1fn5D4R+nD5eq4/4EV/Kd32ev90fAiv5Tu+z1/unYRDtWr8/IfCP04fL1XH/Aiv5Tu+z1/uj4EV/Kd32ev907CIdq1fn5D4R+nD5eq4/4EV/Kd32ev90fAiv5Tu+z1/unYRDtWr8/IfCP04fL1XH/AAIr+U7vs9f7o+BFfynd9nr/AHTsIh2rV+fkPhH6cPl6rndmdzd2y7++07Ttat9BfS1FfQtUcNdG1BHI/rpN8tKg6nU9vCekSlNO+d2XIbyrEcbYxkt1JERIV3SIiCEiIghIiIISIiCEiIghIiIISIiCEiIghIiIISIiCEiIghIiIISIiCF//9k=;" parent="1" vertex="1">
                    <mxGeometry x="1404.35" y="806" width="201.3" height="201.3" as="geometry"/>
                </mxCell>
                <mxCell id="108" value="GoogleMAP" style="text;html=1;strokeColor=none;fillColor=none;align=center;verticalAlign=middle;whiteSpace=wrap;rounded=0;fontColor=#333333;fontFamily=Comic Sans MS;fontStyle=1;fontSize=17;" parent="1" vertex="1">
                    <mxGeometry x="1434.6" y="769" width="140.8" height="30" as="geometry"/>
                </mxCell>
                <mxCell id="109" value="" style="endArrow=classic;html=1;strokeWidth=5;strokeColor=#696969;startArrow=none;" parent="1" source="110" edge="1">
                    <mxGeometry width="50" height="50" relative="1" as="geometry">
                        <mxPoint x="1404.35" y="907" as="sourcePoint"/>
                        <mxPoint x="1152.6" y="907" as="targetPoint"/>
                    </mxGeometry>
                </mxCell>
                <mxCell id="111" value="" style="endArrow=none;html=1;strokeWidth=5;strokeColor=#696969;" parent="1" target="110" edge="1">
                    <mxGeometry width="50" height="50" relative="1" as="geometry">
                        <mxPoint x="1404.35" y="907" as="sourcePoint"/>
                        <mxPoint x="1152.6" y="907" as="targetPoint"/>
                    </mxGeometry>
                </mxCell>
                <mxCell id="110" value="API" style="text;html=1;strokeColor=#666666;fillColor=#f5f5f5;align=center;verticalAlign=middle;whiteSpace=wrap;rounded=0;fontFamily=Comic Sans MS;fontStyle=1;fontSize=17;gradientColor=#b3b3b3;fontColor=#121212;" parent="1" vertex="1">
                    <mxGeometry x="1254.5" y="891.65" width="103" height="30" as="geometry"/>
                </mxCell>
                <mxCell id="112" value="" style="shape=image;verticalLabelPosition=bottom;labelBackgroundColor=default;verticalAlign=top;aspect=fixed;imageAspect=0;image=data:image/jpeg,/9j/4AAQSkZJRgABAQEAAAAAAAD/4QAuRXhpZgAATU0AKgAAAAgAAkAAAAMAAAABAAAAAEABAAEAAAABAAAAAAAAAAD/2wBDAAoHBwkHBgoJCAkLCwoMDxkQDw4ODx4WFxIZJCAmJSMgIyIoLTkwKCo2KyIjMkQyNjs9QEBAJjBGS0U+Sjk/QD3/2wBDAQsLCw8NDx0QEB09KSMpPT09PT09PT09PT09PT09PT09PT09PT09PT09PT09PT09PT09PT09PT09PT09PT09PT3/wAARCAHaAdoDASIAAhEBAxEB/8QAHwAAAQUBAQEBAQEAAAAAAAAAAAECAwQFBgcICQoL/8QAtRAAAgEDAwIEAwUFBAQAAAF9AQIDAAQRBRIhMUEGE1FhByJxFDKBkaEII0KxwRVS0fAkM2JyggkKFhcYGRolJicoKSo0NTY3ODk6Q0RFRkdISUpTVFVWV1hZWmNkZWZnaGlqc3R1dnd4eXqDhIWGh4iJipKTlJWWl5iZmqKjpKWmp6ipqrKztLW2t7i5usLDxMXGx8jJytLT1NXW19jZ2uHi4+Tl5ufo6erx8vP09fb3+Pn6/8QAHwEAAwEBAQEBAQEBAQAAAAAAAAECAwQFBgcICQoL/8QAtREAAgECBAQDBAcFBAQAAQJ3AAECAxEEBSExBhJBUQdhcRMiMoEIFEKRobHBCSMzUvAVYnLRChYkNOEl8RcYGRomJygpKjU2Nzg5OkNERUZHSElKU1RVVldYWVpjZGVmZ2hpanN0dXZ3eHl6goOEhYaHiImKkpOUlZaXmJmaoqOkpaanqKmqsrO0tba3uLm6wsPExcbHyMnK0tPU1dbX2Nna4uPk5ebn6Onq8vP09fb3+Pn6/9oADAMBAAIRAxEAPwD2WiiigAooooAKKKKACiiigAooooAKKKKACiiigAooooAKKKKACiiigAooooAKKKKACiiigAooooAKKKKACiiigAooooAKKKKACiiigAooooAKKKKACiiigAooooAKKKKACiiigAooooAKKKKACiiigAooooAKKKKACiiigAooooAKKKKACiiigAooooAKKKKACiiigAooooAKKKKACiiigAooooAKKKKACiiigAooooAKKKKACiiigAooooAKKKKACiiigAooooAKKKKACiiigAooooAKKKKACiiigAooooAKKKKACiiigAooooAKKKKACiiigAooooAKKKKACiiigAooooAKKKKACiiigAooooAKKKKACiiigAooooAKKKKACiiigAooooAKKKKACiiigAooooAKKKKACiiigAooooAKKKKACiiigAooooAKKKKACiiigAooooAKKKKACiiigAooooAKKKKACiiigAooooAKKKKACiiigAooooAKKKKACiiigAooooAKKKKACiiigAooooAKKKKACiiigAooooAKKKKACiiigAooooAKKKKACiiigAooooAKKKKACiiigAooooAKKKKACiiigAooooAKKKKACiiigAooooAKKKKACiiigAooooAKKKKACiiigAooooAKKKKACiiigAooooAKKKKACiiigAooooAKKKKACiiigAooooAKKKKACiiigAooooAKKKKACiiigAooooAKKKKACiiigAooooAKKKKACiiigAooooAKKKKACiiigAooooAKKKKACiiigAooooAKKKKACiiigAooooAKKKKACiiigAooooAKKKKACiiigAooooAKKKKACiiigAooooAKKKKACiiigAooooAKKKKACiiigAooooAKKKKACiiigAooooAKKKKACiiigAooooAKKKKACiiigAooooAKKKKACiiigAooooAKKKKACiiigAooooAKKKKACiiigAooooAKKKKACiiigAooooAKKKKACiiigAooooAKKKKACiiigAooooAKKKKACiiigAooooAKKKKACiiigAooooAKKKKACiiigAooooAKKKKACiiigAooooAKKKKACiiigAooooAKKKKACiiigAooooAKKKKACiiigAooooAKKKKACiiigAooooAKKKKACiiigAooooAKKKKACiiigAooooAKKKKACiiigAooooAKKKKACiiigAooooAKKKKACiiigAooooAKKKKACiiigAooooAKKKKACiiigAooooAKKKKACiiigAooooAKKKKACiiigAooooAKKKKACiiigAooooAKKKKACiiigAooooAKKKKACiiigAooooAKKKKACiiigAooooAKKKKACiiigAooooAKKKKACiiigAooooAKKKKACiiigAooooAKKKKACiiigAooooAKKKKACiiigAooooAKKKKACiiigAooooAKKKKACiiigAooooAKKKKACiiigAooooAKKKKACiiigAooooAKKKKACiiigAooooAKKKKACiiigAooooAKKKKACiiigAooooAKKKKACiiigAooooAKKKKACiiigAooooAKKKKACiiigAooooAKKKKACiiigAooooAKKKKACiiigAooooAKKKKACiiigAooooAKKKKACiiigAooooAKKKKACo0mWR3VTkocHHY+lUNU1B4JYbK0wb66zsB5EaD70hHoM/iSBV22tktbdIo8kL1J6se5PuTzQBNRRRQAUUUUAFFFFABRRRQAUUUUAFFFFABRRRQAUUUUAFFFFABRRRQAUUUUAFFFFABRRRQAUUUUAFFFFABRRRQAUUUUAFFFFABRRRQAUUUUAFFFFABRRRQAUUUUAFFFFABRRRQAUUUUAFFFFABRRRQAVna5rVtoGly312WKphVRBlpHPCoo7knirs00dvC80zqkcalmZjgADqTXE6EZPHGvr4huUZdHsXKaZCw/1r9GmI/RfT60Ab3hzTbmKOXUdV2nVL3DTKDkQr/DEvsoP4kk1uUUUAFFFFABRRRQAUUUUAFFFFABRRRQAUUUUAFFFFABRRRQAUUUUAFFFFABRRRQAUUUUAFFFFABRRRQAUUUUAFFFFABRRRQAUUUUAFFYvi/VbjQ/Cmo6jabPPt4S6bxkZ968/8Ah98W7rXNeGma+LeM3AAt5I12jf8A3Tz3/nxQB61RRRQAUUUUAFFFYfjTV7nQPCOoalZhDPbxhk3jIzuA5H40AblFeKaX4++I+uWQu9M0m3ubcsVEiQcZHXq1Xf8AhJvit/0L8X/fgf8AxVAHr1FeQ/8ACTfFb/oX4v8AvwP/AIqj/hJvit/0L8X/AH4H/wAVQB69RXkP/CTfFb/oX4v+/A/+KrtPBd/4l1LSLtvEtoljeiQrDiPA27euMnPOfyoA6qivLtE+I2rWXjiXw94wjtoSzBIZokKLu/hPJ5Vh37GvUaACiiigAoNFcH8S/GU2iWsWj6Nuk1vUPkiWPlo1PG76noPxPagCl4m1Kfx14nHhHSZWXTrch9VuU9Af9WD79Pr7A16FZ2kNhaRWtrGsUEKBI0UYCgcCuK0zw5feBfh9PHokC3euOFklJG7zJCRkdsgAkfrXO/8ACTfFb/oX4v8AvwP/AIqgD16ivIf+Em+K3/Qvxf8Afgf/ABVUtU8ffEfQ7I3ep6Vb21uGCmR4eMnp/FQB7XRXjFh42+JeqWUV5Y6NBPbSjKSJBw3OP73qDVn/AISb4rf9C/F/34H/AMVQB69RXkP/AAk/xW/6AEX/AH4H/wAVXp+hzXtxolnLqkQhvXiUzRgY2v3FAF+iiigAooooAKKKKACiiigAooooAKKKKACiiigAooooAKKKKACiiigAooooAKKKKACiiigAooooAKKKKACiiigDmfiR/wAk91v/AK9z/MV5DoHgpvEXwuk1LTkP9q2N5I8ZThpECqSv1HUe/HevXviR/wAk91v/AK9z/MVgfA3/AJEJ/wDr9k/9BWgDT+GvjJfF3h4faHA1K1xHcr3b0f6HH5g12VePeMNOufhz40g8V6RGTpt0+y8hQYAJ6j6HqPRhXq+nX9vqmnwXtpIJLedA6MO4NAFqiiigArlfid/yTnWf+uI/9CFdVXK/E7/knOs/9cR/6EKAMj4Jf8k9T/r6l/pXoNeffBL/AJJ6n/X1L/SvQaACiiigAooooA4H4p+B/wDhJ9GF7ZR/8TSzUmPHWVepT69x78d6Z8KvHJ8R6UdO1F/+JpZLtYt1lQcBvqOh/PvXoNeMfEnw7d+D/EcHjHw+PLjMoNwijhXPUkf3W6H3PvQB7PRWP4X8RWnijQoNSs2+WQYdD1jcdVP+emDWpPNHbQPNO6xxxqWd2PCgckmgDJ8U+JLTwroM+pXhyE+WOMdZHPRR9f0Ga4j4ZeH7vWNQn8aa+N93dk/ZVYfcXpuA7DHA9hmsMGf4wePRxInh3TTnHTcP/inx+CivaYokgiSOJFREUKqqOAB0FAEgooooAK8++Nv/ACT2T/r5i/rXoNeffG3/AJJ7J/18xf1oA1vhd/yTfRv+uTf+htXV1ynwu/5Jvo3/AFyb/wBDauroAKKKKACiiigAooooAKKKKACiiigAooooAKKKKACiiigAooooAKKKKACiiigAooooAKKKKACiiigAooooAKKKKACiiigDmfiR/wAk91v/AK9z/MVgfA3/AJEJ/wDr9k/9BWt/4kf8k91v/r3P8xWB8Df+RCf/AK/ZP/QVoA7jVdLttb0u40+9jElvOhRx6e49wec+1eY+AtTuvA3iufwZrUn+jyvvsJjwDnp+DenZgRXrdcX8S/Bv/CU6GJrMbdUssyWzL1buUz74yPcCgDtBRXG/Dbxj/wAJVoIS6O3U7PEdyh6k9nx74/MGuyoAK5X4nf8AJOdZ/wCuI/8AQhXVVyvxO/5JzrP/AFxH/oQoAyPgl/yT1P8Ar6l/pXoNeAeBPCHivWvDi3WieITYWhldRD5si/MOpwvHNdH/AMK48f8A/Q4H/wACJf8ACgD1yivI/wDhXHj/AP6HA/8AgRL/AIUf8K48f/8AQ4H/AMCJf8KAPXKK8j/4Vx4//wChwP8A4ES/4V6lp8E1tp1tDcyebPHEqSSZzvYDBPPqeaALVV76yg1GymtLuNZbeZCkiMOoNWKKAPC9Lubr4Q+PZLC8Z30S9Iw5/u9n+q5wfb8K0vid4tm17UIPCPht/Pe4ZRcPG2Q5PITPoByT/wDXrR+OGpaXH4ft7C4jEupSyB7cA8xAdWPsemO/4VyXwfuLLRPGk1lrFs0GozIIrd5RgxseSuD0LDHP4d6APYPCHhi28J+HoNOt8NIPmmkx/rHPU/0+greoooAKKKKACvPvjb/yT2T/AK+Yv616DXn3xt/5J7J/18xf1oA1vhd/yTfRv+uTf+htXV1ynwu/5Jvo3/XJv/Q2rq6ACiiigAooooAKKKKACiiigAooooAKKKKACiiigAooooAKKKKACiiigAooooAKKKKACiiigAooooAKKKKACiiigAooooA5n4kf8k91v/r3P8xWB8Df+RCf/r9k/wDQVrf+JH/JPdb/AOvc/wAxWD8DxjwCx9byQ/otAHolFFFAHk/jbTrnwJ4sg8ZaPGTZzP5eoQJwDnqfo3XPZgPWvTtN1C31XT4L2zkElvOgdGHcGlv7G31Kxns7uISQToUdSOoNeZeDLy48A+L5vB+qyE2Fyxk06d+Bz/D+PTH94e9AHq1cr8Tv+Sc6z/1xH/oQrqq5X4nf8k51n/riP/QhQBkfBL/knqf9fUv9K9Brz74Jf8k9T/r6l/pXoNABRRRQAUUUUAFZXiPXrTwzotxqV8cRwj5VB5kbso9yf8a0pHWNGd2CqoyWJwAK8O1u9u/i746i0rTmdNFs2yZB029GkPueij/69AFnwBoN3498Uz+LfEC77aOT9zGRlXcdAP8AZXj6n8a3vi54JbVrP+3tLQjUbJcyhBzIg5yMfxL1+n4V6FpunW+k6fBZWcQit4FCIo7Af5zVsgelAHEfDLxwvi3Q/KuXH9p2gCzr/fHZx9e/vXb14b400S7+G3jGDxLoaEWE0h3R/wAKk/ejP+y3JHp+Few6Drdp4h0e31KxfdDOuQD1U91PuDxQBo0UUUAFeffG3/knsn/XzF/WvQa8++Nv/JPZP+vmL+tAGt8Lv+Sb6N/1yb/0Nq6uuU+F3/JN9G/65N/6G1dXQAUUUUAFFcnfa7fQfE3S9GSRRZXFnJNIm0ZLDOOevYVhWureJfGWuatFpOs22kW+nXBgjhMAkkkI/ibPQH2oA9JorC8KXWuT6dIniO1SG8glMfmRkbJ1HRwB0z6fpW7QAUUUUAFFFFABRRRQAUUUUAFFFFABRRRQAUUUUAFFFFABRRRQAUUUUAFFFFABRRRQAUUUUAFFFFAHM/Ej/knut/8AXuf5isL4If8AJP8A/t7k/ktdR4y0y41nwjqWn2Sq1xcQlEDHaM59ay/hj4dv/C/hP7BqiIlx9oeTCOGGDjHI+lAHX0UUUAFcp8QPCC+LNCZIMJqNsfNtJc4w3dc+hx+Bwa6uigDjvhz4tbxLozQX2U1axPk3UbcMSOA2PfBH1Bqf4nf8k51n/riP/QhXO+ONMufCXiOHxto0bNGCI9TgQcOh43fyyfUA+tdJ4jibxl8PrpNFZZjfwAwEttB5B5PboaAMb4Jf8k9T/r6l/pXoNeJaN4S+J3h7TxZaXPbwW4YuEEkZ5PXqK0P7N+L3/P8Awf8AfcX/AMTQB67RXkX9m/F7/n/g/wC+4v8A4mj+zfi9/wA/8H/fcX/xNAHrtFeRf2b8Xv8An/g/77i/+JrodCj8eWWgam2qeReao5UWQaRAq8HJOMcDg474oAwvi14xmllTwlohMl3dELcmPrz0jHueM+3Heux8BeDofB3h+O2wGvZcPdSD+JvQew6frXO/Dn4dXeianc654jKS6o7Hy8Pv2Z+85Pqckew+telUAFFFFAFDWdItdc0q406+jD2867WHcehHoQea8a8K6td/CzxtPoOsOf7LuXBEp+6M8LKPbsfp7V7pXH/ETwRH4x0QpCqJqNvlraQ8ZPdSfQ/oeaAOuUhwCCCD0INOrkfh7ZeItL0JdN8RRR7rbC28yyhyyf3TjuOmfSuuoAK8++Nv/JPZP+vmL+teg1yPxL8PX3ifwk2n6YiPcGZHw7hRgdeTQA/4Xf8AJN9G/wCuTf8AobV1dYHgfSbrQvBunadfKq3MCMsgVtwBLE9foRW/QBFc3EVrbS3E7hIolLux7ADJNc5eeP8AR7TQ7LWI2ln026nEPnxpxEckEuDggAg10zosiFJFDIwwQRwRVYaXYLp5sBZW4s8bfs4jHl46429KAOEj1Sy1/wCMmnTaTOl3Da6dJ50sJ3IpJOBkfUfnVC+i8DeJtV1CXUJZNC1i2lZJWacQOxH8Y7Nn25r0fTdF07R0dNNsba0VzlhDGF3fXHWotR8OaPq0yzahpdndSjo8sKsfzIoA5f4WahfX2l6ilzeTX9nbXbQ2d3KDuljHfnqOld3UdvbxW0KQ28SRRIMKiKFCj2AqSgAooooAKKKKACiiigAooooAKKKKACiiigAooooAKKKKACiiigAooooAKKKKACiiigAooooAKKKKACiiigAooooAKKKKAI54Y7iB4Z0WSORSrqw4YHgivPtAEnw+8VHw/cux0TUnMmmyseIpO8RPv/h6mvRayfEmgW3iTRptPusqG+aOVeGikH3WHuD/AIUAa1Fc14P1q5vIJ9L1cbdY00iO4H/PVf4ZR6hh+ua6WgAooooAKKKKACiiigAooooAKKKKACiiigAooooAKKKKACiiigAooooAKKKKACiiigAooooAKKKKACiiigAooooAKKKKACiiigAooooAKKKKACiiigAooooAKKKKACiiigAooooAKKKKACiiigAooooAKKKKAOd8SaTObm31vSkzqVkCDGOPtMJ5aI+/dT2YVr6dfQanYw3lq+6GZQyk9foR2IORjsRVusVYP7G1R5IhixvHzIo6RTH+Iegbv/tc9zQBtUUUUAFFFFABRRRQAUUUUAFFFFABRRRQAUUUUAFFFFABRRRQAUUUUAFFFFABRRRQAUUUUAFFFFABRRRQAUUUUAFFFFABRRRQAUUUUAFFFFABRRRQAUUUUAFFFFABRRRQAUUUUAFFFFABRRRQAUUUUAFFFFABTJYkmjZJFDIwwQe9PooAit42iiCMxfbwGPUj396loooAKKKKACiiigAooooAKKKKACiiigAooooAKKKKACiiigAooooAKKKKACiiigAooooAKKKKACiiigAooooAKKKKACiiigAooooAKKKKACiiigAooooAKKKKACiiigAooooAKKKKACiiigAooooAKKKKACiiigAooooAKKKKACiiigAooooAKKKKACiiigAooooAKKKKACiiigAooooAKKKKACiiigAooooAKKKKACiiigAooooAKKKKACiiigAooooAKKKKACiiigAooooAKKKKACiiigAooooAKKKKACiiigAooooAKKKKACiiigAooooAKKKKACiiigAooooAKKKKACiiigAooooAKKKKACiiigAooooAKKKKACiiigAooooAKKKKACiiigAooooAKKKKACiiigAooooAKKKKACiiigAooooAKKKKACiiigAooooAKKKKACiiigAooooAKKKKACiiigAooooAKKKKACiiigAooooAKKKKACiiigAooooAKKKKACiiigAooooAKKKKACiiigAooooAKKKKACiiigAooooAKKKKACiiigAooooAKKKKACiiigAooooAKKKKACiiigAooooAKKKKACiiigAooooAKKKKACiiigAooooAKKKKACiiigAooooAKKKKACiiigAooooAKKKKACiiigAooooAKKKKACiiigAooooAKKKKACiiigAooooAKKKKACiiigAooooAKKKKACiiigAooooAKKKKACiiigAooooAKKKKACiiigAooooAKKKKACiiigAooooAKKKKACiiigAooooAKKKKACiiigAooooAKKKKACiiigAooooAKKKKACiiigAooooAKKKKACiiigAooooAKKKKACiiigAooooAKKKKACiiigAooooAKKKKACiiigAooooAKKKKACiiigAooooAKKKKACiiigAooooAKKKKACiiigAooooAKKKKACiiigAooooAKKKKACiiigAooooAKKKKACiiigAooooAKKKKACiiigAooooAKKKKACiiigAooooAKKKKACiiigAooooAKKKKACiiigAooooAKKKKACiiigAooooAKKKKACiiigAooooAKKKKACiiigAooooAKKKKACiiigAooooAKKKKACiiigAooooAKKKKACiiigAooooAKKKKACiiigAooooAKKKKACiiigAooooAKKKKACiiigAooooAKKKKACiiigAooooAKKKKACiiigAqG6uktIg7hmywUKoySTwKmqC7thdRqhd02sHDIRkEHPegBkV/byhcSqGb+Fjhh26Hvnilkv7WJctPH03ABhkj29aqPoNq4YM0pVjuYbur9N+euefp7UDQLMJIqq4DjB56DIPH0wKALa6halN3nxgcZywGM9M1Hcara28c7l94gALhPmIycY+uaqyeHbWSMRl5tgGFGRwPTpzyc85qQaHbfZpbdjI0ciqmCRwoOQOnqT1zQAyPxJp0jlPNZXULlWXGMtt/Qjn0qaPWLeS3nn2zLFCnmEvGRuXrlfUHFRz6DYTzK7xYKsrKq4UDbnAA9OTxTU0CziE43SsZ4vIJZ8lU/ug/456UAIviSxYqMyhirMwKfdC9c/8A1s0869aCykuXEyLGVDIyEMN3Tj39aS40GzuREjKyRRqVWOMhV7849eT0x75py6JAtrLD51wxkxvkL5YgcAdMYHpigAbXrONN0juvzbdpQ5+7u6fQj8Tiny6zbw2DXcyTRorhCrphgScdPxqIeHrAMTsfmBYB8/8ACOQfrwOfaj+wLX7NLDvmJlkErykjcWGMHpjt6UAMk8S2MTOsnmqUXJynsDjPrhh/jV2TUYY7aGchysxAQAc5Iz/Sq40S1CTYLiWbG6YEb+AB1x04HHSnjTrKO2trM4McBDRozA5x6569TQBY+32ozm4iBBwQXAIPp9aBqFoQSLmEgdSHHFVP7EtvNLkyE7WRQSMKrZyB+Z60lzoNpcjDGRev3SBnPXt7UAXIr62mbbFMjMSQFB544NMTU7WSAyrKpCp5hUH5gv0quNNtbOaO4aZoxGSAWcAc9vpknin2+kW9sgELSA/N82efmAH/ALKKAJI9Tt5EVmfyg2NvmELnNObUrVZAhnjzk5IYcY659KrR6FaqSxMjMwZSSRznrwBx+GKrJ4dSQk3MpbbgRBeNoByOvXr3zQBo3GoxW/lbld1lOFZBkHv/AC5qaK5imYrFIrsv3gDkj61VbSonMeJJVWOIxbQRgqevbqfUYo0/TFsctvZ3wQMjAVSxOP175oAv0UUUAFFFFABRRRQAUUUUAFFFFABRRRQAUUUUAFFFFABRRRQAUUUUAFFFFABRRRQAUUUUAFFFFABRRRQAUUUUAFFFFABRRRQAUUUUAFUdX1JdI097x4nlSMjcEPIBOCfoM5q9UN3bR3tpLbyjMcqFGHsaAMa48X2cEuoxiN3exVCQpH7wtwAvvkgU+98Uw2H21bm3kR7SFJtuRmQNxge4PFVYfBNnF9hzNM7Wrl2Zsfvuc/N7AgVoap4ettU1K0vJmYNbnlB0kGcgH2B5oAhbxPE4uDb20s4gtFumKEchuQv1xk/hTT4usRctFhsLZ/a9wIwRjO3645qxovh+20WC4iiZ5RO2WMnOFxgL9AOKzB4CsRZiD7RPxP5pfjJXGNn+7jigCDxO0zaZpviO2ieKa1KyvETz5bdQcemf1NVL/WE1LW5dShzLY6Pb+aoB4klYcfl/Sutk01ZnuVmlke3njEfkHG1BjBx7mq+l+HbDSdNlsYI2eGYnzPMO4tkY5/CgDntM8S6u91ZST4uoLogSRx2rp5IPcN0YCp9O1PxBrSSahYy2UVqs5jW3lUksAcHLdjWpYeFLPTbqOe3mvCIifLieclEz1wPSo5fBWly3Tzf6RGkj+Y8McpWNm9SKAMmwl1YeNdUBuY3SFFd4wrYK44CjsenPejdd3GnjWlu3CAFig4VRz17nBAH456VvTeHLSXWE1NXniuBgN5cm1XA6bh3plz4bglgnhinnijlJby1b5Ax749M846VlUjKWxvRqRje5kQa1rWp+IDZWRt4YFgimcypyoIBIGO5z+FY9zpn9mS3c/iDSZ72N5S4v4ZySqk8cZ4xXW6Dok1nPLfagwa/kQQu0bfIyLwpx2JAFQSeB9Mkdt0l55LNuaDzz5ZPXp6Vor21MZWbdjNvfE93canJaaVMsEEESsHNu0xkyARwOg5AzTZ/F+ovBptuIfsd3chzM7wM+3bx8qdTnrW7feFbC9uFnUz2sqoIy1tIUJUDAB9scU668L2F3ZW1vJ5ym1H7mVZCJF/4FTEcpreqXl/4VvItRjO63uYts3lGMSqT12noRitzw7rtx4h1Gd4HjhsLcBBCRmWQ4+8fQVcbwnZSaU9hLLdSRvKJWZ5dzFh7mpxoFqmsrqcRkhnCbHEZAWQdsigBup61JZXsdlaWMt7dPGZSiMFCoDjJJ9Txiq114oa3kmWPTbiZbVFe6ZGX91kZx/tEDnipLjw2ZpY511K8ju4wy/aARuKMc7TxjA7Uy58KpcPIy395Es8apcqrD9/gYyeOCRxkYoAiufGMNvJOUsbia2twjSzpjaqsMg4/HpV7StdGp3MttJaTWs8aLJslx8yN0PH8qik8M2722o26yukd6qIQAP3YUYGPy71bg0mO31Z78SMXa3WDYRxhTnP1oA0KKKKACiiigAooooAKKKKACiiigAooooAKKKKACiiigAooooAKKKKACilooASilooASilooASilooASilooASilooASilooASilooASilooASilooASilooASilooASilooASilooASjFLRQAlFLRQAlFLRQAlFLRQAlFLRQAlFLRQAlFLRQAlFLRQAlFLRQAlFLRQAlFLRQAlFLRQAlFLRQAlFLRQAlFLRQAlFLRQB/9k=;clipPath=inset(33.33% 22.67% 33.33% 21%);" parent="1" vertex="1">
                    <mxGeometry x="360" y="880" width="135.2" height="80" as="geometry"/>
                </mxCell>
                <mxCell id="113" value="Server Components" style="text;html=1;strokeColor=none;fillColor=none;align=center;verticalAlign=middle;whiteSpace=wrap;rounded=0;fontColor=#333333;fontFamily=Comic Sans MS;fontStyle=1;fontSize=17;" parent="1" vertex="1">
                    <mxGeometry x="964.5" y="1131" width="180" height="30" as="geometry"/>
                </mxCell>
                <mxCell id="114" value="" style="shape=image;verticalLabelPosition=bottom;labelBackgroundColor=default;verticalAlign=top;aspect=fixed;imageAspect=0;image=data:image/png,iVBORw0KGgoAAAANSUhEUgAAAggAAAD2CAYAAACz+38jAAAAAXNSR0IArs4c6QAAIABJREFUeF7sXQeYFFXWPZW6e3pyJucchigiiEiQoGIERVAQYXXVXcUEKqIgGMGsawQDigFQMSAGUMGASJAkoOQ0icmhU4X/u/dVD1HR/VdJr//1V5ie6qpT1e+ed++55yotWnVwdI8f8iURkAhIBCQCEgGJgEQgioDSonUHRzckQZCPhERAIiARkAhIBCQC+xBQWrRq7+ieWImJREAiIBGQCEgEJAISgSoElBat2zu6IQmCfCYkAhIBiYBEQCIgETgggyA1CPKBkAhIBCQCEgGJgETgQASkBkE+ERIBiYBEQCIgEZAIHIKAJAjyoZAISAQkAhIBiYBE4DAEQYoU5WMhEZAISAQkAhIBicBBCEiRonwkJAISAYmAREAiIBE4NIPQvGU7x/DGSWgkAhIBiYBEQCIgEZAIVCGgNG/Z3jG8ss1RPhMSAYmAREAiIBGQCOxDQBolyadBIiARkAhIBCQCEoFDSwxyFoN8KiQCEgGJgERAIiAROBgBRRIE+VBIBCQCEgGJgERAIiAJgnwGJAISAYmAREAiIBE4IgIyg3BEiOQbJAISAYmAREAicPIhIJ0UT757Lq9YIiARkAhIBCQCR0RAdjEcESL5BomAREAiIBGQCJx8CMgSw8l3z+UVSwQkAhIBiYBE4IgIKC1bd3A0w3/EN8o3SAQkAhIBiYBEQCJw8iAgnRRPnnstr1QiIBGQCEgEJAJ/GAGpQfjDUMk3SgQkAhIBiYBE4ORBQGoQTp57La9UIiARkAhIBCQCfxgBpWXL9o4mhzX9YcDkGyUCEgGJgERAInAyICBLDCfDXZbXKBGQCEgEJAISgT+JgNIiOu7ZAaD8yd+Wb5cISAQkAhIBiYBE4IREQGnRqp1jeGIBx5EE4YS8xfKiJAISAYmAREAi8OcR2K/E4ECRKYQ/j6D8DYmAREAiIBGQCJyACPAsBtXw76MGssxwAt5meUkSAYmAREAiIBH4cwgoLVu1d3RvjPgtJgckRpAviYBEQCIgEZAISAROZgSUlJRUp6iohCUIkhyczI+CvHaJgERAIiARkAi4CCgKlKSkJKekpERiIhGQCEgEJAISAYmARKAKAUEQiov5L2RxQT4ZEgGJgERAIiARkAgQAkpycrJTVFQk0ZAISAQkAhIBiYBEQCKwL4MgCYJ8GiQCEgGJgERAIiAROBgBmUGQz4REQCIgEZAISAQkAocgIAmCfCj+JALUCyvVKn8SNPl2iYBEQCJw3CEgCcJxd8vkCUsEJAISAYmAROCvR4C7GIrdLoa//uPkJxwvCCiKAkeYY1S96O/o5Tj0b/rH4j+L94q3if+2/6vLjB5//1+mczjwXPa3+hQfuv/vHXzO+85JZj3+q5sif0kiIBE4aRGQGYST9tYffOEqVAruVD5QRFAGbMBRoUATgdjrQLU02E4M9Bg/VN2GzSTBghkMAiGLSYWiOLAcG4qjcjVCUR3xPj60Avqtw71UVQW9kz/aAVSHzof+bl9Zw1EVaIoOh89Rh+6NheKxAUWHosTADoVhhQqhWGEQT+FPUgHbouMBtmIfQnzkIyARkAhIBCQChyIgCYJ8KlwEFCiK6uoL9u3aOUTrqgjA3lSk12+GjOaNkNm0CVRPIhRbgRkqQ/72jajM3YXindtRvGc37FAFrIgJjYIyH1UEejqe7RCpOCg74WYC6Of0O/ReS3PJiWNSjIet6IDHBz02DrWat4Q/sxYy6jeFJy4Bjk0kwgszXIb8Tauxa8USlO3ZATtUSZQDiq2CEh8OiMSIM5IviYBEQCIgEfhtBCRBkE9HFQKCINAuf1/wpKCqaDp86ZloP3AkGpx+FlLr14MnLhaOo/MunTIFocoKWJXFKNm1Fdk/r8H2pYuxffkPsCsL4ZiWCNJ8WMofHJpBoPBOGQx3w8/h21LdcgJZfuoe+FNqo1Hn3qjdqRuqt2yB+Grp0P1+2DYdj0iMBlVxEC4rQfaa5Vj3wdvYuGA+7GApbMqCOCJD4TgRSRDkcy8RkAhIBI6AgCQI8hERpMANziQmoH07VQdUqFxAUPxJOPvme9FwwAXwxiXBsXTYdgSGz+B0Pb2XywmWJbIDEROB/FzsWvkDvn/1eeT/8hNgVUJlXqDAdDUKB2gLiASoKlRLlBg4IUA7fseBkZCJBl3PRocLL0Va01bQk5KgG17YzE5MqIoGywRU4jeqDduyADOCSM4uLH72Uaz6+C0odgiOTVemw3RMgLMY8iURkAhIBCQCv4WAJAjy2TgsQaBgzbt+rx/N+1+GfmPvgROXBkV34ESCCOUXctAlQqF7vFA8Hjj+GGiaAagaFNWGEwTs0iIsnfkSVnz4KiKF2bCDJmzKUPD/9k/zU6pC5yyDqlhwVB2qJxkJDRvhzOFXo/4Z50CL88HWVOiKDjNiwgqE4ATLEKmoRGVFOXyxHsQkJkH1J8NWPFC1ICq3rMWcO25C/tpl0FQHpqIBNmUR/jshpXxcJAISAYnAyYKAJAgny50+UippvwwCKwVoR29oSKzfCOfd+wTSW54CRY1FpHAX1s+fjeVz3kR5XjZsW4EvJQO1W7RGvVNOQ0qTVkipWw+exAQouh9OmISNFchb/QO+f3M6tn+/COHSQg7QojTgvhQFKhEL+jvVQFyNhmjcewC6XXkVjORM2EQ8iFDYFipzc5G//idkr/4BW1f8iLxft0NRIoCmoXab09Dp8qtRs+Mp0PwGEKrAN88/jx+eeRQepwSVxECYoEgNgnz0JQISAYnA7yEgCYJ8Pg7MIPCfKAPgcPag/eAr0f36MYA/DU5FGL/Mex1fv/AwynNyQAIEx7FEG6KiQfPEI6l2Q9Rq1w4Nz+iPhqd1hePzU0IBMAOozMnGz/M+worZM1G6awscKwhFIUUC1QaonmBDUz1IbNwWna8chUZn9oQnPgNQDCiOiYqcndj6zQJsWfwFdv+8HJWFe+GYYa4WkPaAhI2qNx7JTVvi4omTEd+0HVToqNiyHS+PGoJwzs8wFcvNIEiCIB99iYBEQCIgCYJ8Bv4QAkKHQPkDHarqQEvOQM9bJ6LN+UNgQUfp1s2YN+FfyFn5NSxTtENWZQEo40CfoqhQdC8SajVH3S49cOrlQ5BYqz4c6KwxMCvLsWPxAnz/6n+Qu24p9zbYNvUhAvB5UKNdN/S7ZRwSGzWD6vHBtCxoVgT5a1bj+1dfw46VCxEq2uOWCLgngkWV1D7J6glNBQwdTfsNxLkTHoHi80OptLBw6ngsm/UCVNti/cTh/BL+EEjyTRIBiYBE4CRBQGYQTpIb/Ucuk7oIuLzgaNAVDamtO+LsCVOQ3KQNYDvIXboYs8aMglO8GzY8MJ1wVaCNOhUQyVBo306eBqqB+HpZ6Hf7ONTqeDocNRbQHShWEEW/LMWnUyZgz7Ll0GxAi/Wj/ln90efmSdCTUznQO7YOtagYK2e9hq+mPwezohCwKuDAhOLoTEbov6lcQfJD+lxLUaAZHiQ3bI3hz70BPTMdiuNBeM1SPDHsfCBUDtsxZZPjH3kg5HskAhKBkxoBJTEx0SkpKTmpQZAXL3wRKbirjgaHA6+KRv0vwkUTH4Mdl8glguXTnsGXzzwA3aqA7ehsOrRPRyAogiAI3FEIjTIDmgdaYho6DrkCbS++EjFp1aAZOqxIEBU7N2DBI49g99p1yDrvfJwydCR86elwNC8QNFHy63osmfEC1n06GzDLoWgKdBMIU1kDuit0tLlzgggCZy8UlTSIMJJScMboiWg76FJohh/Otq144rJ+MAt3w3FManaUt10iIBGQCEgEfgcBabUsHw9GQBCEqGsitRJ40eTiYRgw/kHA8EIJlWLGyMHIXbFY7OC5OEDl/MO1C1LLoiaCODVKKja02AQ0PWsAOl02EunN2jAJIE9FKy8P679dgvpduiImPQPQw3ACAez8dgm+nf4k8tZ9D8sKsaaQ2iSJcwixIpUVXL0hcQOO96SFEDdU8XjR/orR6HHDGOg+PyK5uXjxynNRtm0jHHtf5kPefomAREAiIBE4PAKyxCCfjAMIArkfOJoFVfGg2SXX4Zxxk7k7QCnKwdOD+iCweytHZa79syvi4Xbi5MpIBIHUiZSLICGiAy0mFpmtOqLLVTegXrczofrIGtmBY2mATmJHEwiGsfHj9/DdjGdRsPln0UpJ2giLXBlsOIoFm9kAmSUIruByA6GfYLdE6pjU0frCUeg7ZjIQ74FTUoy3bxqFXUu+hGORBkG2OcpHXyIgEZAI/B4CSkpKilNYWChROskREAJDN7CT2RBUtBl2K3reMg6apgE5u/D4xT1gFeUJUyQlwi2Jh5omi2wEmSCSloF39DQEgbITls7agrh6jdDr5glodGZ/OB4dhh6BGbKhWBGsnzULnz/5MILFOzjDQMdQKJYrNgyHMheUvwAsdn10hZHUTSEuQHwWlTpUL1r2vxz973oISooXVmkRFj48CStnvwrHpCNIgnCSP/Ly8iUCEoEjICAzCPIR2ZdBiPofKCpUTUXWyLE4a/QdrDewdm7GM4N7wSzN4928sEwWw5kOeZGWge0QqXPBgqPZUGwDiq2xbsGbXgunX3872l54KfS4GC5D2BHArizDpw9NwIYPZsEOlsBSwjzrgWwVhT3zwZMdD/fR7sRJxYOsfpfgnHunwk6Kg1VhYvFjk/DjjCdgW2S1LF8SAYmAREAi8LsZhOTkZKeoqEiidJIjEBUpismJKjRdR5tRY9DrhrHscGjt3oZnLumNcHE2Dz76fYIgMggkeLQ5K0HiR4Xtk43EBLQfPAodhlyLmIwMblG0iDzQlEUrAK2oGJ9MmYz1n78PK1TMlsiqo8L8s9bIqo7WfYkgPAo7MQF2ZQSLn5iEpa89CccKn+R3W16+REAiIBE4MgJSpHhkjE6Kd0RLDKJAQHOPNLS+4ib0vW08FM2AnZeDZwb2QiB/hxjmRDqE3xmdTBUASiJQO6LuUPuhBS0pGS3PvgRdrr4BvpQ64rihYpTm5iGpei3Ao/P0h8pt27Hg0anYuOh97p6ASTMYqSzwJzoPVA2t+l2Kcyc+CjshAXYghMWPTcbSN54GaBS0dFI8KZ5reZESAYnAf4+ALDH899idcL8ZnebIJEHT0GTgtRgwbiI0wwunqBDPDTkHZdvWQeHdPI1P/o0SA2kDVCEYpLICZwd0HdW79sXACY/Ak14bFnUhmBHs+Go2ls77CB0GXYkGXXsBagSIaNi76ifMf2gc8jYuZ8dFxyZSQlLHqOPCEeDXNLQ6dyj63TUFSIiHUlmG+feOw9oP3+RMBY+hlC+JgERAIiAR+E0EJEGQD0cVAtR5IF7kXKSjyXlX49y774Xu9yFSUITXRg1Gwc9LaR6j6B4gi+XDpf6pvOCOVybRoGLoSG3dFpfd/yz0ao2g6AY028beFYvwxm0jECkpRe0O/dFz9DiktmgG6o7UIhFs+uwjzJ9yBwJ5O6mrUZAEfh05k6AaHmQNvApn3XofEBsDu2wvZt34L+xY8gVgB/7QMeSjIRGQCEgETmYEJEE4me/+QdceJQjUKeBoKhqfPRLn33s/FJ8XamUQr197BXYvXQAFYWIHwlDpsNoAckmgDAJlGRQk1m+KPmPuRu0uZ0HTvLDtMApWrcK8KXehdO0PCFMDoxqLJj36o8etdyKhVm045MRYGcDyV/6DxS89BrOyxG2vdFscj0AUNK8X7YbdgJ7/uhuKV4NVtAcvDR+K0l9Xw3GCB02SlA+BREAiIBGQCByMgCQI8pkQCNCuXzHcvbkFRdXR6MxBuPChR4HYeDhmBD89OxWfP/sQdx2otg5bdXUBPJZBiBGjiXv6LyozeOKro+Owa9DxipHwJCbBNskh8Vd89dRUbPnuE+jBAGxFg6lGoHr9aDVgOPrcPAZISAAcDSgpxNdPPYIf33oJsCrhONQhYbhdDaLtUeQTHDZTEvMkyOcpBh1GjUX3q8dAMRSYOdvw/OUXILhnK2wn4v7WkTMRx8zj4XaGKDQFU/SOHtSq+SeuJTq5k45CRIzQE92hUHjolUvCqg7p/pA9J/5gieeYAU6eCH+9XYOQqrtHbciKA1VV4FjRG+2aiIhvkwROIgApUpQPgQio5I2oeLnTwEEImqIjvXVXnPfA40hu2Ay2ZSN7/my8PvZaKJYJWFQHCHFkiQZp7myMtiLSTEg1DnV6nY8Bd0yAJ70mWyDbpXvx/UtPY+W7byBSmQs4ov0ROgVtQPfVQadR/0Tn4VdCM2JhWREEdm/GFw9MwK/fzAcQBBydJQQaWS67Hgh0FlSBIHEkLXzepHT0uOVBtDrvMp7/EN66Fs9edg7MsiI4NvkrHF8aBMru6KoG1bFhanFw4OUR1xzOqUeURZyuwNQlAPwzd53fJ0IlF0qXETIhoD/YriUlmVWJyZiMJXWhcLAQplgk7JRh4/hbMNghlcuBCguMBcmjL70t7rfFE1hgsqjYpdvsYyLv9vF3t/+3ZywzCP9bPI/bowmC4GGXQsoG2IqKuDpN0euO+9D4jB5QFQ0Fy77GG9cNQbi8AA4FdZVaEBXYKs1c0ACDAhjtbB043hjE1miO65+fDjMpHZrXzwSh6JeN+HHmC7DDxfDE+uDxJcOJqFBUE5FgJcoqgLjU2mh1wTnIaNJYLGpWENu+XoDPnnoYlblbYQUEmUCYSh0h106RuirIIEkFuT8nNWyKEc/Pgr9BQ5iREHZ/+RnevGEknAjZNh+PTooaVFWDNyEVF4y8Cf6MmtzxYZPPBAHrLvs0G8N2yc8Be30mT8TgRAdKOGTCjoQRKN6LdauXY8+WzTDLy+CEA1CtEDSbDKlMmBRYiD5SScmxmCzI1/GGAHUH0fA08UQIckxkQRBF9iyhzJE7Cl3oiyRBON7u8l9xvjKD8FegehweU1F0kYak0YomGRwZ0PypOP3m8egw6DJANVC8cQXm3HINSnO3wIiNgS8mGZ74ZPgSkqD745FSty5q1m8AT1wSfKmZiK1ZG/706lA0D1SPGK5kByqh0o5XofKABtPWOVvhkBJBjUBxDDhUQtBp0aLtjSZ2vGYAldm7ULxtJyKl5agsL8bu9WtRkrcT4YoKRCrLECotQqCkgP87tUUnDH/uTejpSXBCZfj2mWex9IXHQY5MEdIg/FlfhaN8TxkKw4v4mg1x6zOvIa1hC2FhTQMqyKraMcTcCx5a9RsnS9kelaggsQUqAVlwLJMzMTQGe/umTdi5cT2Wf7kQ+b9sRP7OTbCsAJdkNDKrcogeyF3lUX4U/vTHiwkrOiy3fBStMBHpoxcXkHQHKmUXuNxAZacokfjTHyd/4QRCQBKEE+hm/n8uhQWKNCpZobS9zkll1efDqVffhE7D/wUjNhHBvfn4+ZO5CJcVwJ9RDQmptRGXmYmE9HTosTHsawDqXmATBFXYHlMXA6X9yVyJjq+psCI85kkMV6JYpdFCZbvDl2yousobXdu02bCJiQWlBdhVUZQ04IShwGIb5oriYpTnZaMyPwdFu7ejNHcPlPh0dB1+PVSvAidQiLeu/zeyl34CVbVgWtSeGZ3jcHwEPDaWVlTE1miIMdPeRkrj1lBsBzYROl7o3Wmaf+RyKNMiRm2JR4ZTz1yUhuaYMEMVyP51PdZ98yW+mD0TZdk7oNphUOyQaef/z7fs6PwuG5W5o0vototsIeUUdPEMGQosJQLVpGdJhUXZIv56HM5I/ehcg/zUo4OAJAhHB/dj8FNVXjTEeCUF8KfAk5SMdoOGotMV18CXmISICZhlZdANhX0NFKqD08rjjnjm3yR+wHoAIga0KhHhCLHI0bHJH4FmMpAwSkx5BKU1eb+i0whGHtjEhMEWHRAO7ZCpbKH7BKGwHerA5DHT4nhiD0Q7H0qZ0t4nFArBMk144pOYEFglRXjr3zcib/23QLgUVpjEjm6t9Tips/I4a1VFXI36uG36W0htSARBA1V6CD3e/fGyzoD87osEpKRloJIMlQ8IZ+o74Ttn0fFMzi6okUpsXb4EH73wDH7+dhEcM7BPwCgzCUeC+Zj5OY9g11RBrllcogE0TdWIQ0x8Klqf2g7JcTo+m/UOFDPMWgSehXbYSa3HzGXJE/kbEJAahL8B5KP1EUKYdOCWMqry57C6348omKtqDNTYBCTWa4y2/QeiRtsspDVoCsQkwOPzicmNNu3wTVa7WyYtOqYI1LwZpaCjQtFpQaL3emEFQyhevwy561agOK8Ye7O3oXRvNgKFxSysI0JgmypsU+dqgubzw5eQgqRq1ZBepxYS0zLQoFsP6Bk1Ac3D9XZNs+EEg7ApE+Hx8GhpCnL8ot0xTZKkwMlpCGrFNGEV52D38h+x8YsvsfG7eQgV74UTCYpzdoGI4iX+vf9d+yPb8r/6LpOQU0dC9Tq4bdobSG2YBYU6STQhERV7vt/rMNhXd2BJWpUYzS050DEcGoJFvI0IB73fhO4EUfTLz5jxwGT8vGQhbIswc6E+zPP1V6Mgj/9fIKCQNogIOBFuBXp8Mjr16o+sbt3QrN1piE1NRP7GVRg/fBicigLYruBVZov+C6xPsF+RBOEEu6EcIyl1yIuBxRMROTXPL9piCxEh7crpfdANqJ4YJNaohfRWbZDV93zUan8aVF8ceyHQbp26BkgHJ4K+hVBpASKlxbDLA6gsykPups0oz81F3p5tqNXxDJxy6WVQfTqssIaKjevw0eSbkLNqBUxOYwfdGrgmdqN0XDf+soMz/YGDPBfdofhiUb1tFwx68HEYaRkAPDDLC7F4+tMI5+xBfHoy4jIboVrTZjD8cfAmxMGTnA5PXBwHQc3QmUhYdhB2KATDMVC6Zyt2Lf0OK+fPQemezajMz4cTorIDZTUII0VcLwVcFnTtE/4drceFd4EwEFujDm6fPgtJjZtx1kVMvqbgLvB0SMdBpIgSyXwRgjjwtdB1UWaHBWj0txQ4SFdAehD21+YpnuIZItJhgYpNumVi5YIFeOP+cSjZswmOE3ZHbFPGwc3EyMa4o/Vo7EfY6L5TZs+9d8wXdcTVqoX4lGpo0aEzmnfpjpadu8LSvXAUDQ6NcnciyF/9EyZcfgGsYIkg7g4pXCi7J18nMwKSIJyId59qjiLRL9LH1Bbo7q6595myAJoHelIyMpq0Qe2O3dCkay+kN24GeDUoOgUbmzUAIkjSYEYfNM2BE6rEug8/wJavP8T2FUthBcphmxYs20Jio3a45KEnkNiwGQcjp7IMS56egiVvvggrUMadDqwr4AWMtqq0uxdjpqvCDGsgXPEU/0yFkZSO7tfehDYXXw74kqBrDrKXfoZ5k+5B4baNgBoL3R+LuNQU1GjVBqddeS0Sm7WASkOmTOq0cLg7Q9UMLnuQitshFX9JIbYt+xZbvl+InSt+QMmuzW4phNrCSPJn8m6a0KTAygr+o2QDwK1q0BFXow5umz4LKYchCKL3k1pQqVSkAGaYgz4TsSgLY8kBmVxR1oUyQK4wVRHumIJo6Dxngyy1qY1UJwzCAbwzdRIWvvEqgHJOV7Manr0RpDbhWFhGRJmItD709bOhKaQnMHDD1EfRoEtPxCSnw1Q8cBR9355BVaFZEeSvWomJV0iCcCzcx2PpHCRBOJbuxv/wXDhAEEXgdLubfuYpjAo03Yf4Bk3Q/uJLUe/U7kipUx8Op+rFVEU24ykrR96Gjdixdg0CoSA6Dx0GPT4WmuPgh2nTsOSl+xCq3AvNLViqiRnoP3YKGvc9F47HD80OY/tX7+Pde25ApKRE6OHIlIeCDe9i9+1ueUUjoRxfv1BQU81CVMjFzjaleRb63DIZNTueCccwYRbl4ofnnsDy2a8hEgxQSBNTKNMbY9gLbyCuYSP+3cjeHCyfOxdptaujWrNWSKxdHaZCHgKUcqVdtolwyV7k/7wSGxZ+gvULPuU/K6GAaOvjUyMiI3wAjt6LRGUG4mrWxpjps5DsEoSouRGbSrG01GKNhxIOYtOSRbDMENeSmeA4DnSPgYTkFFSv2wgaTbk0fLCYshFPo/ZPIgkeIWAkPwQrwroU3XGw95fVmDhkOMIVu6BSqyjpQNwMxdHF5ujdlWPpkwXpFjNQ6H4QQbYVH56c9yk8jdsy8bMoc6iI7ACVCXk9MMOSIBxLN/IYOhdJEI6hm/G/OhWRLqbWAVIMWmx8I1oGvTBSauK0i0ag5fkXwkirDt0fJxzVKBhGggjt3YM9y37Ad2+/ifI9OxEsL4KakorrXpkDvWZdTj2Wb/gZr189FGV7f+GRzo5uoG7P83DR5KegxscLMpCTg5dvGIiCDctY/GibUSGcCLh8XrSI0S5UsWGRMJHWK3qf6pB0QAQt+jEFcm8c2lx4JbpcexOM5Hh4FAP5a5bjk0ljsGfDT/A6FizFQEa7Hrjo0acRm1EbiISw5r2Z+PKph9gx0IipjppZzdH+vAHIyGoH3Z8Mk0iFRol1G4G9e1G4ZiUWzXgB2auXQqksFdkG2oxz/eOPTIH4X93Fg49DIlKdSwxjX56NlEZNuQBAjSIcFyglrFDLIqBZKir27sK9gwfCLMtxLapFpob+UXUP/CmZ6NyvD86+ahQsfwoiDglEbe6J5yQJCxjpJfQNdK+0UDnuumAQ9m5aAQU08MpkSsLvOqrk6a/C/Pg6LqtJ9m9xpdZlLRFT3/8I/qatudxAg07YNYO0K3SPKUNkBbF39SpMvPwCmMESnrUiSwzH173/q85WEoS/CtmjfFzqFiCJu0b7QxL1GQmIq9Ua3a+7CQ16doEam8KLgBMJwwyUIZi3E2s+fBcbv/wSxds2wDIreIeh2iq0+FScc/cTqNv7bBgeL5yyQswZOxpbv/oAmu5BTK16uOThp5DcsjOASjilFfjisalY895zbHIkpkOrZNzGffuUxlYUA6rXB0+8lw2XbDuCcHkISpj+O8zchgWPEVrUyJQJ8KRlYuD9j6FWt55Q9Bg4pUF88+IT+OHVR2FXBgAjHufeOQnNBg2Ekm6cAAAgAElEQVSBYyhQKkuw8PH7sWLmNCYLDgweBAWPHzVbdcQplw5H7banQk9Kh+rVoRtebvEL5+7C4unPY/3892AX58GkHTiLGY/mTRUW079NEKhaYLP+QLMcNpQac3YP2JX5VfLFA86eSjdeD2q164xR9z6ChLrNeMAWCTpJyCYyA+IVbaLUzACmjRuHFe+/DscqqzLckQ6LR/O52PfZXGIQI1RFyzAVmvRETHn/Q8Q2zxLdSfSdp64gLj0Rl7eg2yHkr16Ne6UG4di4kcfQWUiCcAzdjP/lqfDoZkeDSm2DXj/qdeuLLsOuRWbWKVC9Xl4szIpSFGxai60L52HVJx+isjAPdoDcCU04GgUb2uUTz4hBWodzMOzZF6DGebgzIfurBXjn9n/wgtT+slE4beS/ocals+o9d+lizH9wAvK2r4UWoV0m7W1oJ24DuhdxqTWQ1jgLKU1aoX6rFqSTRHlBAbJ/3YKcNWuwd8tahCsKhPEPjYum0KXTvkZDZvvTMfy5V+H4EmBZKpzcXZhx8xAU/LwWiXWaoM/4B1D3tO5wbBPFmzfgi8l3YtcPX8OmrAQdiTIeXIM3ofnjUa1lR2SdPRC1O3dDQs2aUA2D50U4ZSVYOXc2Vs1+HcVb1sEyg6KL42iJELh3/bcIgnC/pGvie24rCO7ZgFuZIBTuF+ijnR5iloNmR+DExKLbZdfggn+PgTchUWhP3OAhOhncHILiwLAC2PDV53jmnyNgo4J8HLmcQS9poPS//Pb+N8eizI/wMhGeInRHiCAkYMrcefA3beuWy1wfLfY64G8ldNIgrP0J9w79IxqEoyTC+W8gkb/z/0ZAEoT/N4TH3gGEn74rBaRdYqez0Gv0HUht3JRdDckjwCrci5/nzcGaeXNQ8MsvsM1K0ffM+gAFlkNOe2L/SOI+Pbk2hv3ndSS1aAFV02Dm5eCVq4fBE6Oi163jUb3DqZyKDuzZjcVPPoR1H8/hoMpWzK5oytHjkNLsVHS9YgRqtGmD2MzqUHRqXaQAR4K4CPK3bMf2RZ9gzYfvoHD7ejgmpUGJIpAeQIXiT0a3a25HxytHsTeCEg5hx9cf492Jt6FZzz4488bxiMmoCTtYiU2ffIhPH7gdZkk2ItTGyT4KYvekUHCknZamw0jMQK12p6DdBZei/um9AR9pFDSY5UHs/PZzLH72AeT/soY1gGQrLc6VhIu0vP5d1sO/RRDEbl/s8sUMBSoHhHM249Y+XWBXluxXKogSBLqvmlB7aBqqNe2AKydMQZ32beGoGmwyVzjYjpHuoR1G5bb1uK3PGTwTgzTuwn/BDRrcGeH6NkV1JVwPF2p4/hlltqLDpqg3n40f9ws6bAUtnkPx1+Lf4hmgLoyoW+R+Y6OoLMJ2GdTnL6aMclmKy0N0j1xvCDcpwh0y/HALG+mqFAlfiWiLpQ4QRsv1lxAiXzEgSwhXKWPjun3ye3/7SRCoR4O3Kxh1yIvCHXDG3TvCXIz8Cigjw3G+iqAJe2xB1ghzwkc8d/wW+oIpRAc0Jnf0syrZryceU97/DDGN6N66RxAXJkSpfMUm8lYtw6Rhl8AmG3WFLLUF0RDvIVJNHVEi6yDu51FNpx17i+4JekbSKOkEvLG0OGpkKqAbSGjSCpc9NA0xdRsIF8NwJdSCbMx96AHsXLoYoZK9cJwQLxTUiXDwF59375oOSzfQ7orR6HXDWGg+H6xgGda9Nxt7c/ag68h/QvUnQFMD2PPV5/jw3vHsvqeAhggpQj+neJHUojMGjn8I8Q2aQ/OS+REJKDVe61hURRY9YQV2IAc7v12ARc8+iYLN61kMR+SBU98w4K+dhSFP/QfJjVqKts2yEnzx1P1IbdIcbc4fCiMmBqHibCx+5EGsmP0yVIuCmbvgRQcViRwsZxPIuRGaioSajdDy3MvQYdAl8KbWQCSiQItQ18Y7+P7Fx1CWvctdwMNQLCIIRFr+LvHi7xEEd5/PWQQbmmMjnLsNN/XuBLuy7NDFnII93xSKWwq8STUwYvJjaN2rD2AQYTu82RJ5VoR2/oKbep4GFWFYHCjp3uxX+I52pHCEE4GLG2s18tkwoOhxSKvdCFmdT0ViZjpSMtKhEP7k2xe2kL8nG3s2bcamtT+hcM82qHYIDplt2fScCL1K1bAhEa4E4ePOXRuqZQMquW9StsiCQ06a7CZFk0oNOKoXSdVroVGL5kirWQNJGRlITEuG5jUEUYWCwtw8lOblY8cvP2Pjyh9gBSrhWBE3KFM7LGky3O4b1mzQwCxuhj3MakJkhdqORZ5FMCVBiDUS7SoGLEeHHpuEhq3aokGrlohPS0NiWhp/70SABsLBEAoLClBRUIgta1di15YNbCluR4JQI5T1iUBXdISNGM40UXmQzys2Ho+8Ox9GjYZu79C+eyXslOk8Ishftxr3j7yGTcWEMacQC/NwJ8okmiV83WTXDJ5lIgnCCRg6DrkkSRBOxLvMC6YGb3pNDH/kZcS0bgN/vBdm0ETJumWYeeftCGxbB9umQUc8zk30+h+m7VnUNVWomoK0tj0w9KmXoaVkQLNDCBcWIhCOIDazBmsE7JKd+ODO0TxYybaoPGHCogCseeCr1RBX/ec5xDZoA5PbLqmbQpQPuHOBBw5ZMMMqDMOGU1mJ715+CUtffQwW7WqiHgVUIlBjkXXZcPQdO55V+FyJqCxgPQSMJJDjc8nmn/D61VchkLOZSyU2lxbojUJ0GN3qcmiiMdVkIEO7PG8CWg4YiDP/eQM81eow0bJLi/HpI/di9ZwZ0O0ILCJUbMDkivn+lsmQf4Ag0O5Z3Y8gnNUJdsVhCAKHQdKBiCq0HpeGEfc/gTZ9zwODdxg3Rg7FVgjlv67FHef1guJQyYVpJTTKErlOjFVhgyIoCeBUMsDyQY9PRZseZ+H8f1yNzHoNYdoUrOleUraKxg7TAySmCWoIQ4kEsGnVj/hy9iys/PIzhEuLuD9fDBpigcp+1R43m0BGWzRplHbT1FJL91n3Q/Umoe3pZ6BZ59PR49wLYBl+2HSdnAEgYiFaX1nAyfMIqBWXcwlApByfz34bn70+HcU7tgBmJSzuABACWsqI8EAxQvKw8z2IIPjYmRIgIi5aSRXNCyM+EXWz2qH3xYOQ1bU7NF88QkRmNOooIrEMZUHEkC3OelB2hQSE4QAixflY8fXneHnqZKCsiA3LlNgkTFu4BE5corBLNi0eoBaCl4eniXzBfoGdOTJlkSzoTgTeMM31oNEeNA+FFsYQt0DGRkIY0rkN7FAZi4q5v0gShBMxchxKEJKTk52iIvryydeJggClx8n8qPn5l6HH9RPgzUyGaoVR/PNqzHvobuT+tBKKXQGLPQdoldA4kFPd/uAXrROGasBSbHjT66LLtePQbuBg3nnqPjIh4i0R7FAldi/4ELPvGg2noti1WKGw4UD1paLbv29E2yFXQfenipZGWvRcfwEmCFwTNaERuVGBcKUJtaQAM28ZjrwVi2CatChHw5CGuLot0PfO+1Gn65lQvD7ADDGRIVdGhCuwYdY0zHtoPO29OAVLwiyOKbzr31cx30+LxwuyTinauCS0PncQeo6+E058Co2UQtnGNZhx/QhU5mzjzAjDRos5ZxD+jpTrkQgCpb6JIDhVGYSbe58Kq7L0MOlgoUHg2VyODU9KdYx44Gm06tGfs06HW/w5tW0G8NWrL+GdB++CooSFgyYNeiKpG2+RxdRHN1yy0VZy9Tpo0r4bzr3qWmQ0bcmZKIvHDKuwqB0zGvwoUPMsACr72FCpJBShKeAhbF25FJ+89gLWfrcQ4coSbrUlGsEte/zAktETmUSpHOA5CBoxaHZqV3S7cDAatu2MpOrVYBk6IuTEafjgRP2EXavwaBtr9Ny53ZfKMJSQMEOIFOViwZyZ+OqdN1C0exvvouk99Nyy8E8MTD7M94eCu2gf5tKJoiExszrqtuuKPlf8Aw3bd2Ay4Dj0lDmcTRGx1/U04CDuTl90SwpMxyIRxERKMe6KS7Fn1TLuPFDjUvDMl0uBxHTuzolqd8giPcr59sv1uOdKHiFWFUHj7woreVmlxPc3NliBkR2b8QRW+mwidDJ/cKJEi9+/DplBOAHvMy26MZnV0PuWB9Ds7Et4h0DagEVPPIz1n86CFQrz9D5aGMQUF7Eg2A6tJId+9Q3aJ9JCrseg2dmXo/eYO+FJSYfH74UVMXmn4uTnYdqIwSjaulrYL/OiZkFXVcTUaIp+Ex9E3U69OQAJd0aRxhYLsyAZ4v+bPKeeiUc4gg1zX8G8SWPgRGgCpKjfckekkYhWFwzH6dffIjIYVDfWVViUFMnfhpeuHIKybSvEDi9qiBgVS5KeYb/7ziSBa90UsKhjQoPijUe3f9yOjsP/AdWjAcEKfDJpPDZ+/AYsnklAwZEHLrup5796yfx9DQIv6AcRhFt6nwYrQM54bv26atdHQYv2yKJnPr1pKwyf9ATqZXVmTYIwSTroi+E4MEJleOjqYdiyZCETLyII9KIBT0wQ6N4QaVA8LEat3qwlzh51HTqddTbCqheW6hEzAZg+0j3gwR1V53dg8luIbElH4CHyV1GK96c9g8/feAmoKGKNQIjndYgWXXHCFGiplKHBSMrEfe+8j/iajWHpZPwkzi/6GRzYRY7APYeqn7jHcmd7iNSJOxgshLULPsX0iZMQKNgJKIEqO28hYI3+Q4/SvqvR2KyM+k9jULfNKegz7Cpk9eoHx0stxrRbdzMZrmxQDCMjnAgfoQOIvljoS6TbBmLCZbhj8EXIWbucz9GIS8bjXy6FmlQNFs9eECUneq9b4zhktatChP0+SMsh5jUw+aHftQB/uALDsxpAd8p5YNfhSykn4EIqLwmSIJyADwEFufSWbXDW7Y+iJosHbexY9Ak+unssKvJ3uJMMaUdOO04VqhjTxy1Phwtz0X0aBc64uk0x4J6HUbNzD84iUN+8Ewhh+cxXsWjKeFhWORxKUVpi9wHDQIPT++OsO+5DbM3G0DxCHCbIwT7weUHl06BBQWEOYFZYgbntJzx5UW84NGBJTLUXdVHdh4S6jXDBxKlIa3MGVIPStgqUSAgrX38en025D4jQ7pkWX2ElTLs0IXjbV0sRWQX3ZFSaZkkiPSH8S2jUBlc+9zq8NerxZ5YuX4IXR54HxwxynV6kW4ki/NXkQESx3+piiEoABEGgEoODcO5W/C5BUFXoZKHt8aDb4GG4aPRdMGLTARrExeWeg182lILduPXc3gjt3cmeC4QB3ROd/BCi7XV0plo8GrY/HZfdejvSm7WG6osVDpbuREFhhCWuiQPnAS83WEbr/C62imlCqSjH/FefwycvPwm7ooTvE4VuKmXR8WwYbkregZFcHZPf+xT+Go3E55DpkyuIrLL2/g2pHe/2+QGNenfwvHEmCQgEkLdyFe6/YRQipXsAasnljiF6rvbhdgBBoPKJ5sOpZw9C3yuvQUbzVoDXgMliQyr1UIbLtTZzrb2jFtkH+Bq42REmp7YCf7gct192PvLW/MjPqychA49+vhRaYhpzfsciK2VhZ/7bI7zo52JGA3c/sgBXZNm408XS4A2XYURWPWhOBRMwEufK18mBgCQIJ+J9VnTU7tQLfSc+irSGjWAGFWx772l8eP/dnD2gMa5cR+UkpNBf03rt2uofgggRDqG4Jk8EP864bhxaXzICmt/Ptd7Q7jy89e9R2Lt+MRQnQCN++GAi7etFu4GXo+fYe6HEpgj9GNfv3RkR0RSz+6kcvG3ybtC4xm3nbMbTF57BYkpW3tOoZtrlk2gt1kHWhcPQ46Yp0H3xXOdVKvZixtWDkb1qKS+MOn2WGmR7aXaS48DEIwv3tX25Y4w9tIyqMTARgW2b8CanoPuYSci68Ao2mVG278DUi9pDCVHZgna3VNagOQ1/h6b7SCUG0nyQWRKVGIBw7paDCMK+AU28Q2UyFIP0Rs3xz4enolrzTjBJyEeleTec0HPCMyBogqZl4aMXn8DHj0/mUkPU51IQBB7UAVulQK0hJr0BpsycC7VmTZgaaet1WK6LpqAUImsU9c6M8isxhyOqC6CSuztPgtttRRlHKy/DO49MwOI5MxAOUdAWZQ4RSD2cSdKoHJZaDRM/+BT+zGZMXmgXLSYZ8q0TnR+ulTR/B1jgKXb+FKwJx2hrrkhcUdpLEBotXIb18z/Af24fDTNSwoE1GjP3H/wVTU44igcZLTpi8ow5iPgTxfNL3xJDA2kqbe5gEAMyBGFy52EckDlwOUuUMNkqfKFSjBtyDnLXLOHr8iRm4JFPl8JIShVJQdMQmQQ2ujp0oRNEzYJm6qzBoX/EoC7SJZDewwDdUq9ZgpFt6kJBBRyaxCoJwokYNQ57TbLN8US81SoRhJ7oO2EqUho0hBXUsGPeS/hgwliYITIucpd39ven5VosvoclCO4seY0mB1J9OzEeZ153J1oNHAE9zst12sieQrxz63XIXjmf7Xoti9oIac2j2QAetLlgMHrdPhlqQjqvfaJuK4AXO62o0EuUJSiLoJI5gglEsjfimYt7IlRUwO2VvJNUPXBowY7V0fHyUejyj3ugGTFQ9AgQKMbbN47Ajh++YJMlFpApNJPAhkbjkbluLMRZPAPCzSDQwk6lFEX1wiQfCAoyyXXQ/96paNyrN2zHgL1lCx4bdAqUEC2eOjTWbNDEhqOXQRAjrokEUdsm1csNDpJWzhaM7t8ddkWh2FWzMJ0IhLhgw+9HRsNmGHzreDTu0A2W5mM3S+4EYBtLOialxUPQghFU7s7Bs7eMxOaVP7D5FtHLaKCg42pk6+tYiE+tgSvvn4JWZ56HiJssop29qNOT9sDk4ztBE2agGJWlBTAD5XxuPn8S/MlpUKhLhoYJ8c2xOUNBgdPSRfDa8eNyTBt7I/buXCMyQ5yFp2dKdGYoigVvWjVMeO8LxFdrIFJVXEqzgWAAFcWFiAQqYIeDcCIhETypfdXn5xHhCWkZMDV6sg129LSIcZHDJ2WNCCMnjLIdW/D0v0Yib/0ykNMHVwRYl+Im7VlLIyaiZDTpgIkvvQIrLRO2Fiu6Bwln1WKybCuuUbht8gwF4YJKGSoLjhkW+gCVNBfCMIx28JptwBsuwp3DBiBn9RLWfqj+RDz15TIoidUEdrZKE9SF/kawn4NyJqSaiEC3vOSlzc8N00PTFfS6Ez5jzFKMaNcMsIp53KcYLP53PPMn4uJ8fF2TzCAcX/frD50tLUw07a/3HQ+hfuee/GXOWboYH999K0p2boTNamharEU/OC18VOulZf/QL77Y5/EuS1WR2LAlzr3nYdQ45QxefGjRtSvCWPfu2/hk8hhWt3NtmgcHsTURqrfvjr7jH0Byg1ZQPdTyJXq9owThAFEci9SCYoRzUEflxiV4ZnA/IBzmRZ5FcZRZ0PxIbkzn8iAyWneGQiUGWlcjYexc8CFm3X4DnMoiIWRzU9Aih0oEwe0hp6Ahus7cIEJxQueUKy3aSU27YuSLr0BNTYZimdg8by7m3PkPqLbJu1vKSggvur9jsTx8BkEEfwog1IZHntA0Y8JCOG8HnrjxGoTK8uFYog2POjK8sTFIyshEg6yO6Nz/PCTUrsvkgDMAFJxUGsFNvEdoAFhfUJKP+S/+B5/NeBbhQJnIDLlZl+g9VGmnavgw6Prb0GfU9QjqccLzIDpRw50VQTMcvFYEO1atxHfz38eGFUu4ndHjjUFmnUZo2aU7Ovc7H/G1G8DUhHZA4zZXEf9t24YnHMKbD9yNr2e+KGZCREVz7LlB5mAKvOk1MGHOAiRWqw3FDKI4Zxe2r12B3evXYdev65G9fSsK83MRqQzAMU02yIpLS0eD1q3R8cw+6NBvAJSYJETIp8NlIew86k41VSpK8NUrz+C9Jx/iFkh+BkS/rhiVTUIb+r5k1sA/730M9buejrCHorVXmEuxBpF0QO5sEvo7h7wsTYSK8lG0ayd2bP4FVigoND2kq4iJR/V69ZFSqzb8iWnw2iHcMViUGFhNEROP8a/OghKXLEppFn1PFGTUbSCcR6PdO9FsHREb3YYS0uFEylCUvVOQc7r39D1hfwcFHrsSY8/vD82q4OdeEoQ/tAyfEG+SGYQT4jYeeBEU+L2pKTjrtslofs5QOF4PIvl5WPLCo1g+ezqciqCbNRA7H4VSy1SKdEgZeGiwox0qZUUdzYfm5w5Dr9vu5DSmEePlgG1FLJh5+Xj16qEo+mUFHMs1ctFIPKbAm9II597zAOqefhaXJaLjhveRhP3TpyRCtEDdak4wgqUvPYxvXniIRzZzb7djQddV2Hoi2l52LU67+kb4U+NgkwCO0rVhB05xHt688SrkrVjoLtzU96/A5J71qBBzn2/9PpGiziSDyYa3Ji6c8ATq9ezOmWu1sgSzxtyIbV/NEwSBuhdYpPf35A9+V4PAOguLHRS5fEOxPViCvE2/csaoqp4CFd4YH+KTk+FPzYRteKDqlA+IdgxSSUjMx9A4YFFqPoDv57yBD/7zKIqzt4vsU9S0Zz/9AGV3GrTvjKsffBpxtZuwoRSo/58oFHUt2KIjQLeD2Lr0K7w19T7s3Liap2dyfy1nc1TovgRk9TgXV917H5SEJNgK3VdXQOq2NtJzWrppNe65+HxYgfwqMyN6iigtztmI1Gq47515iIuPx9fz5mL1ooXYvmYZKvbm8jPEHFYIB6rMwYSltwe+xGRc+K9bcMYlVyDkTeAppJqrW6GdOJmIeR0T37/3Bt5+YDzCJeRWKQyWouU6blNU/eg26BJcdPN4qMmpfF+o4ELkiwotlJGjbAd1xZB/gxoxseLzz7D8s49RsG0DsndtQ4QJgsV+IYY3Buk16iCzfnO07tYDXc7sgrv/MRI5a5exkRj5LdRq2Qma18PCZOrU0Lyx+PcDU+Gp3sDNHu1bK8R4cBMey0DRlvV4ceJd3MoozKaEJ4Rotwxh24rvoVhh7o5wmyNPwJVTXtLBCMgMwgn4TNBQH9oRNeozAL1ueQC+arWgqxYC23/Fx5PuxPbvF0OxK2Fxi5pwcWNt9OGMEGjpUzSe56Cn10O3GyYg67xBIvUb44UTsni3RCLCoh8XY8a/h8GsKBYtgGqYA4WupaH9JVfi1GuvQUz1mqDcMy8/PHmOFlahQudATUQkAoQDFpSCbMz49xAU/LJcdIgppsiEqiqSG3dAn3EPoUanU6FSjlj1wArTsCENZjCAvEUf4q07roNFvdtszEclEtFxIARY+yYgi7ozNzmymZQTm4RuV92G9sOvgh7rhxUJY++yRXhn7LUI5udB4R2jEHHtL3j8ax8l0S4XX6Mubps+GymNm5CDAafHWUVCan5LlIxoA8gBw9VaRGv9wila5P2Z4LhlFqq1s9cFtw4S1yCXPwuGWYklc9/GW4/dj0BRjrCgPkz/O+GnGzEYeNMd6DliNCIG9dwT6KK2blMmyVKgmzYKtm3Es3dchz2rl4sOANqxMmkTWRvqRFBjkjFk3D3oMnAIHC2GKStfH7Ww8ogRB55wKW4/tx+KNq8QAZ730CIrRhkEX1wCLh89FnPffguFO3cgEiI/CJcAuyUUeqg018GBmIxFzyLrA3TUbtUBwyZMQWarjqw/oHN0eMdPIj1WVWDb8u/x+oRbkbNhjevyGBUsWlB1HYlp9TH07slo2fNcmDq1Orrk1C0rUIaBvnmqFYERKccLk8bh5y/mI1hUCNsyhZsp1yP2bf2F4SJlglLQoGUL7NyyCWUFu0UZzaRzIxEJ4eB+nzx+THn3S8Q2as06kKo2DjfM0/dNi1jIW7MUEy8fCCdQzBoWyibxJBc2vrJhECnmRk5RYpCvkwMBmUE4Ae+zAg8MCnRx8ehz0yS0uPhyaD4FTphIwka8O+Eu5K7+AXY4wPVMlXb6lFOoauc/aAFgzwKg5mnn4uIpz8BIrgZDMVGxazcqwiaS69ZlwVW4dDc+Hn8TtnzxKS9w1DZJi5nieKGnVMPghx9GRvuugBEndpe6KDcIhxwxktgKUQbBgVVUjEXPPoI1c1+BSfVi2kWRCJHa6DwpaD10FHrfeBM7ONrhMAJ7shGGjYQ69bkeG9qzCW+Nvhb565ayBwQUg4OMyBG77Wj76yCoju6oPO2y3SUj0HHIcOgpqfAYBkK5+fjkwTuw8Yt3oYZJRElCT166xRSCv8U0xiUI1evgtpfnHEQQ3ADKtWYhOBBCQ9Gtwbyg6jl3O0ios4NLLfusc3RS0ls2bDOCyvxcfD97JmY9PxWqWcFBl54V0c530IsIW2Y9DJ/wMJpTMKzq+xcsjIM7hdDyUsx5/BF8/faLcIJFfDxO20dP0rUCJjJXs11XjH/5Tdj+ZDgsgKRAKlLzbGplBvHdjJfw+oN3cFmJ3Rzp+XCvnDIdtuaFppFDoxgfTneMFfj0TFJkdEtETBDdcxA0yQFiM3DJHZPQddBQMeRLJYJAXSuEH+lPAJQVYvq467Dssw9Y7W8TARH1GVDJpUXXfrj+0ReB+DSh/ucSjiPEsUwphEeZU16EF8bdjNWfvwvDHW5GRCSqCdr//lFVjLwrqN7CokI2eXK9PTjrIwyw+IroGLoPU99dhLgmrbhVeX+CEP0DEZS8tUswcegFQFD4ZrjVODG3hO27xT3nzMvf8ryfgAvzcXhJMoNwHN60I50y7YRVjUa92vBk1sEF9z6Hmp1OFdOfSeRXko/Pn34Cm7/+DGV5u6CQ2I6C8j6G4H6EML2hlC31x59y9Vh0v+ZmqN5YWIFirHrzLRQW5KH7P69jq1hFCWDP4q/w4aQ7ULprs6hnwsMtVIquwVu9PgbcPAHVO54GPTYeikekuEULuQliKFZEhV28C2vmvoWlb76M8txd+9IKHOB1xNTJwuX/eQFJjZoL9XhxMT568B6kNWmIU4deCyUmBk4gHz+9+hq+fu5hmKFi3oVxvzm3rtEeyLUIpjVTIwdFHRmNWqLthaPQvN95MIhNbKQAACAASURBVFLiQO66dmkZVr79Cpa/+TzK87NdUSX9gMKIOM7fs2BGMwh1cNt0QRCoKyMqQBR2/EKVzokSGuvLGovozIL9KAJHHCJbQjFPrXCUMdCDYeRsXIdfV3yHrz54H7s3rAMi1F7qzhqwf6MNVtXR6ZyLcNXER2HGpXBKno4b7QTgEZpOBAWb1uP1u8dhy4+L4NDUT1as7mt7jRJFpqPxdfDYxwvhyawJk8yruPThkg0eSGXB3L0Bowd0h1NR4ZYZRBcFB38uN9CzSx0pYjCR+D+XHLqEgHv/6fguiWKUVA2e5Bq4ZMzd6HzBINjkVSDaIIT9MNEdU4UnEsJLd1yNJZ+8A4UUme7cB2q7pLbbniP/jYtH3wtTp1Kc69jJH0C7exKDKjCsMH6Y+w7emjoBwYLdTGCrRmhXnVW08kclCSIARKrIRYrSHm6nDn1/+U6RuJFaP0lcScITPxOE2CYtDiUIUVMr20L+mu9w7+XnwyGCQN0wvClwr5m9LXSR8dlPw3OkdUj+/PhHQBKE4/8eHnIFIqi7i56uIrHJKeh72zjUIk8Ew8ux2Czai81ffYLl789E/rq1sEKlbncDBRphQOOazbLYypNSF1e+8BoSmrbgfvxIzk68eu1QaIoPvW6/C7U7dWHjm0h+Dr75z8NY+d5Mtqml1jtKS5Iznq3qiMtsglZnX4RG3bois3kLqDF+2Ba15kUQqSjCrnUbsXnBR9j41TwE8vcItz5VZ7tkWmX1+DR0Hz0eWQOHQvHGQAmH8cv7b+PjR+5BjdYd0XvM/Uht3BhOJIhd3y7CJ5NuRumeTW6vOtUvxI5VZ/c/Wl11eJNroumZPZE14GJktuoMeGhYUwRWWTl+nf8Rvpv2GIp3/sriTiY73L8uMPp7yIEwuqFFOq56PYzhEkNzvg52NGZTGzEESegHKBVuwNSjvhG0c6YMjCjt0LkTmaBsjNjGmkCwBAtmvoFV8z7C9p9/hBWuEKJQSsJTyyq1cx6mBMUpfd1A10uvwuXj74ep+92gT0HGJS3sVRDC6s/nYebkiajI3Q6bjJaqDBzcR5h3qaTuV4G4TNz98juo1rItTHIa5Fq9cJzg3TvFqpI83HLuGQjk7WKNgChFMOMT0y1ZWEtpfXfEuBgKIv6eOYwBX2wsqtWqh5SM6vAmJCAlI5P/20hKQ4O2pyC5Tn0xoIvLUiLdz+dgKdDCAbx812j88NFMJltiVgT9z4LuT8PYl99CjbadYancO7qvVOAKE1XTQcHmtXh98h3YuGwRQP4arh8CG42JmtB+32+iJ4JQKaxfEAkxIgTR8dyiK0d0TzCp0WIx9d0FiG3SGqbm/n2VCEgcmsjh3rXLMGHIAEEQXGKyz96c/kIQ4v3NoE7ApVNe0kEIyBLDifpIcGqf/jFZtJSedRq6jRiNOqedAdXvh2lZMMvLEcnegVVz38Gyj96EVZoDm+r4KmDSDocFAbTe6sjofDaGP/0iLK+H68lb583Fu3ddwz9rc+kIdLnmRngTarB3e/bSbzD/wbuQv30lfJaDEK9aolOC97axCYitXgfx1eohLiUVMfFxKC8qQmVuHsp270B5wS7YdkDU97mu7jruqToyOp6BK56ezkptx1Jh5uzAq9dehuJNq+BJrY1z7nkEDXv05V73cN5OfHHfXVj/+YcsyuRY6O6OYDgs4KJU9qkDhyOj7SmISaU2TOpiCANlBVj80vP4ed57qMjeCtsK/U2GSL/xQPJETAOx1epjzMuzkNqkFeMTzRpQxZgbHikdbFvC2ZB74EUUEdgTqRH5E1bauwSBB/2YlSj55VfMe3kavvl0DhAiB0aaz+Fa/nL76aEGOUQQNI8PZ474Fy6+ZRx3l5Agke4zBWvaOXN7rBPC7jWrsHrhQiGEE2HODZr7V7XF7lrxJ+D0i4cgsVYdFpeyVqEqEyDIgFpSirEX9kDpzo2cdufZDpyVEO2ynJ3ichJdgwdGfDKaZHVAveZZyKzfANVq1oPuj4MvIQ5GjI/Jot8fy1ki26CmV5oVIUiVaxrpBmzRVaGHA5gx4XYsmfMqfx4RKUFkHHgTG+CxLxYBial0Jgc4K0bvsGbZWLNgLqbdORqR8gKYFrVcRl1NDzMY5XfXKre44hoccaaMx6vHY+p7nyKuSVtEyEiMxZHuXAfXdkKzwzzuecLQAbADpNWg8hMbaJ+oq6O8rj+IgCQIfxCo4+1tnEEg5ThMGIrNwjFPSlP0uP5mNO7TE0ZCCu9IuV0gEAGKdmPhjKewceEChAtyYEXKud7M/dW+RFzy2DRkdu0DnXYhwRLMvu0abF04DyoJxtLrYtDDz6Jax56wKC9fWYmvn5qKlbOfhhquhMWBSAFJHUxKgVOPu2tcIzaRQhtAi5JO8xhUBRSOKbCoFkmlFDi6B3pKHVwx9XnEtusAX4wHdmkAC598BMtnPgPFLOfBPF2vGo0Oo66FEeeDaplYMv15fPfcI3BCJPxSoRoeeOITkdykDbpePgr1O3WD6YuB7qU0uI5wZRnKt23C1y89g18WfAAtRO5xYhDP3zfa+TBPW5QgVK+PMdMPIgi8kIuWwKgyn5TxOo3KJmxpiqJmwDbdUcOU+aCMAzvoEQcTMzOMsAO7pBTvPvcwvp49jUdF2yYdk1IBojPlYAUCBVN/YipGPvg0Wpw1ABEy1+HBS6SqF/oSarWjf2uWAzVMY8QdnmRIA73EAQ8MoDzWmSr6pKPRyV+Bzo8GCREIRACoFVMBiktw16C+KNy61jU18gjrLycClUYWs3gyDjWatUHfS4eiTa++0OKpm8DgND5nVFQVphWBZlBOiZU47rkLcyHOcjBJoGmQ0d08BVDAYwbxxr3j8M2sV3hcOvkNCDtnG770pnj6y28R9sbx4KT9nRWjd1e3wljx/ut4ftxoFiqSowYRBOFT8mfdCo9EENogohM2BxIEumKDxqyv+Qn3DD0PdqBUOI9KgnC8Lfl/yflKgvCXwHp0D8rLGO/YRV2U1jX2MaCWsbhkZPW7AK0uGMhpasOfyAZEtmlDC4ZQ8OsGrFkwDzkblqNo56+oyM+DJ7UarnvjIxjV6sK2IihdvxIzrx+Kyuzt/DnUr16ve38MfPB5wB/D3QBW3h7MvGkkcsjljSbNcfcA1Y5FUGKBGKfGRVVXOOjRYqVyLCJ3OVowo0V21ZuANhePRJdrboE3mUZL68hd/g0+nTwOOZtWQyeVtaYjpnYWRrz0EmLrNEIkYKNgzTJ8cPetMMvzEFetPjJbtEWj07uj7imnQotPdhdvkWatzM3Bjm8X48dZbyCf0uxmucgM8+nuV7s+Grf3twiCODthHOW+eMpCoBjfz3sXoM4DRUNKejVUq98YyTXr8sAkIgiip5923jwyEE7Egc5DB0vx+avP4OMXnkCkvFjEcNpVs6jvQIpAgS+leh1MfGse9JoNEXHnO/DulYc5uTa+XGYgzw1xS4mUiN29+KfKVZH5ogbTjkDTo5oBMfci2ozJ3Rn0tuJS3D24Pwo2r+LSCpMkPlcioR5kNsrChdfcjLbdewM+L2cFTK7fuzMHiD4JcUAVdiT6sywiMW6w5+dWlGXEt4iyCRTIFeiRAGZOGofF77wM2FQeEOUHEgmmNOiIBz6YD8sby46gh3s5wXJ8Ne1RzHniAZ7UKJwrXYLwp90Kj0QQshDR3RLb/hkEKgw6Eexd+xPuphIDZRAkQTga3/Bj8jMlQTgmb8v//6RIdS4WPmq+dgcj2aIFjIKrv359tLvgYjTq1hdJdRvz9Lto2xWsMAKFhdizZh3yNm6A49XQcfCV7L7nhCL4cQbtyh9glz4ypmEy4k9Er9F3o+3goTyUxgmHsWfJ13j3zpsQLNzNuzqbFvyI8MUnwRnXg3nXS6lg2hnSAklZi2ivtZjgSALJ6q1Pw1m3TUBa1ikk44ZdXITFT0zFyvdfhxWi+noFVHJY9FbD4IeeRjWa8ugxoIaCWDtvHgyficxmzZFQoy4UD43f1UQrphlBuDgXe1Z+jw0LPsWm7xbDLC0UY31Fb6VIzbNV85/d1f3/7+O+yOWWGA7OILhCSfJIFi1xZIusIpy9BTf168HzKKgtUNF9aNahC868ZDiyeveFSWOymUeKGr14kehN2GBX5u7B3CcewndzX+fBTFQ2oM6U/TEQ7aEO0uo2xIOzFyCSlAlHo524IH8qOxtFg6bono/2TIj7ftiw6RoNi5q/MGWiwE8ZEm6GFBkEKgCUlWPcJf2wd9NP0PmZcumLx4/2Z52HfsP/hVqkYfDQOe3f4ifGm4uGD9JpUHKE3iHoIOlemESQR4RII7iaDdG2Se2ORHS1SABvTB6HxW9PryIIfEWqgtpte+Cet+YgxG5irpXyQZcbKsnHtLHXYsOCj0SXAxMECuJut8Wfenz+GEEQ2aADSwyqFcLedatwz2XnwAlVyBLDn8L9xH6zJAgn5P2NTlkQbWy06EQ7kzg4c7+3AiMxCWlNW6Nhlz5oedbZiK1eA7ZHZS8A2yJDF8CKRNgISfHFw6M7cIJBrHxrBr577RmYlSXcOknGSDS7IKZ2Ewx9/GkkNW0t+u0rKrDylafw1fTHYVWWCdEbjW3mnZsgBqI+7IqxXNUdCyR5R+VwG5cnORPdrrkNbQddBtsTx1a/eT9+ibkT7kLx7i1QlURoMQo0nx+1s9qhxYBBaHLWAE7rWpYKOxJhHwi6ZtXjEcOeghGYRfnYufYbrJ3/LnYtX4mKvTmi5MLtgqKOLV6q2953DBCEgzQIIuySIt4jygAkPbA0hHasw+jenaEgKLoUoEBX4xFfqyEG3jgabfqex+ZS5NmvuXMIqrIDRNBMB6HsnXj4+mHI2fQTVJPuMQXVfXXp/QnCw7MXIJyYyToADqp8D7lhsGpQEPtPuP4LTALdiZ7RzICgKCIjIrIKoiVQTF0Uolvx94IgqGUVGDeoL/ZuWsUZKiql0cTINt3PwZDbJyO+bkMWavJ0Sjo2ZzSinyLGVFMmS8wfUKiZESHKouVlo2TvXiTVqoX4mjW5JMF5B+4OoXKI0LNo4SBm3ncXFr01DY4T4J8Li2oN9U/tg3GvvYUQezscniCESwsw4+7R+GneHOF2ycflKUuiO+ZPrU2HJwiKkYAp785HXBORQZAE4U+BetK/WXYxnJCPgNvqxTMI3BAcnX8gBs8JMRsp1BUPtJhYeNLS0LJ3f3S88FLE1G5GMisSg8OIUVh8ZUbC0D0+QRYiQaC8AMGyAuxYtQIlu3Yjd+dO5Py8GfV79EWv6/4FJSYWVkhDxa9L8cn/sfcdcFLV1/fntZmd2Qa7LL13WECKoKIioqKAhWLFii2xJJIYW1CxRI39r0b82YLGAopdY+wKCAqKgqLSey8LW6e89v/c+32zuzTdlbrsncRgljevnPf23fO999xz77sOq2fPhuNQzTkRDNlNKeppdG3wAlddWyq4sHI9BFhRNOzRFyMf/he0zFx4fghe8RZ8+NgdSG5ch0atWiCzXmfU79YF9Zs0BUImEIlCJzc51kZS6pwU+DaxHY6hpWuWYvG0zzHn/dexdfkC2MVFzAtohDCTpxB55CtfHZ5UsS+7FXb1PHIVxuIyyfXPTUJO2/zyQMqiQ8fiATtMwjwNyRVzMfq4wwITIkojq1Dt6RbqtGyFKx4Yh+adD0XcMGFQ5kXJ75VfgOOxMZXuJWGvXYobTz8FycLV3MWgujaC9snyDEJb3DvpYzjZjVhv4HAsp/NQ44q5h54rXUG6nlb/3AlSUdVPXXaq3JT6G2V+pJ4PFTCVzwB3O5TE8PczB2Hzoh+UQZLvILNxK5x7wz/RjfQQIY1nGVDGjMosKmNFXRAOTNeBs6UAv3w3CwvnzMaapYuwYvEvKCnYyIE6klEPZ//tBvQ86VTVmcFDq1QXQ2rao2nH8fI/UgRBDQRT/gQGmhzSH7e9+gaSv0IQtGQZvn7+cbx4723KLpqnjv42QUgRsxRmKaMv9r7YpUjxtwnCrWcPBpJlkkE4KGPC77soySD8PtxqxLe2f5Hw6zV4qasLqFR7NXQYoQiMaF007HwYup50Mhp164CMvGYI1c3hOip1Dejk3U4aNM+Ha9NoYXKnU33XtOJjJz7ynKfVimvBj8VQtHgOVsyZjoL161G6aSOSpVthx6hOTMd31IQ4Wm3yC5am0mUio34OMuvUR27DlqjX/VDUbdWazY5opaXrCQ721K6p4p6pHPAoQ0BKbTI9snQ45NjoUFU8jqIVy1G4aBkWf/Up5k/9L4rWroJGkyGDoJdCQtWQKyYfHjg3Ws1iyGhcyQeBDIlUkkhlEdgnQIdFM4mW/4LRA3srU6dKcy/UbTfQ97QzMOq2B2FH67J6n+9v4BGhdkqtkjqMWBKT//MU3nr8TjilhdwLQkOvVGslbWegTl5TjPnPG8hslc/kgI2FAtdAWm27CCGccLFl+Xws+YVW+xrcQJfC3RWEN2s8ghxBcDNYnUCBMyCQqRZF5bpJMwRK8NrT41C8bg1oLCIJE1v2PR43PPkinHAWZzIMdmtULbbsLqm7iK/bgK/fmIAPXngWxQUb4XlktEQuker5o080pzHOvvku9BoyFD7ZeLN2gS5O2VHTs27aSUy4ZyymvjyOXSbVaSsxZ17nw3HHa+8haUVgaJSbIIKybQbKcGx8/8bLeHbsaHhOnH93uLskcDTYWQaB3UeDRg3VjhwQ6uC7brlLqBq2pWvpePDtDxGlLobtMgisD+HZJgY2/fg1xo4cBNiJYNJ0UvlIyadWIyAEoVbf/oqL5xUY9/iTCCsCLZKNzMb1cNi5l6DzaeexD7xaZcc5sJO5kOeY8KmrgXv0+W3OCnZ+sXOfts+rd9I0kAkSlQvItIZWuKSOZ7EZ+fSzfSyVGqisQS9zn7MX/ALkTDQdL1T+ftVNcl0MbN1o7UvHofcyqeJdNWQmmYghjTo16N2cLMEH/7gTc9+bBCS2wie3Ou6cUEVrCkKVCcKB+UjsaJSkrJaD8ciBZTDbAPs+kst/wTUDD4XvJsovp0JJr8FMy8Z5N92BI0deDJsyNTxhkNb4wVwHIm7kJ+D4KFu2EC/cMwY/ffkJfCeh7l9qgiFMhDPq4owb70Tf08+Hr9No58BkR00cYKJhJm1Mf/V5vHzfbRyE6MOEMCgvKTfDICRWvhmp2hjfqhQbSjEIavNMuUUSOTQx7C83YuClo2HracoNMHBfpLIVnYufKMPHzz6D/40fB7twAzx6NgOdQaoOR2efkdcUZ998L7qfRASBCKhqE1VzCuheuIog/HMsvnxpHNtxB/SG/8ho0h4P/PczuGQcFXgXbP9cUUvw3M8/wL9vGY3k5tVweCiVIhK7KjGw9iJwN1StlykDKDUhlQSU/FPuViBX0l8nCCpp5GPT3K8w9mwiCDS7g0pqqZklB+Zvg5zVvkFACMK+wfmAPwoFb9IyqgyywZ7uejgNfS8fjd4XXQUrmsb2uz++/S4Hk4ZtGyFUJw+5zVshlJaunPvY8Y5Wj1Trp6BPwV/NW3Bs9QLTLSpZsF+rqkEzqSCiEIzkpWCt63BttaI1LQ0utefRi5lWeDROl2u1DuDZvFClNPLGZUtZWLdh2SJsXrkUeloWThp9I/zMKNxYGb5+7CFMe/5Bbn1UpIDYjrImrlEEoVELXDe+8iyGnREED8nl83ZJEFSQsRCq1wQ3/HsC8tp1Y/dAmplApIPCvw6byw5kP20mkvjxi4/w4t03o2jNUsad534GpI5aR4+58Eqc9bdb4elhNR6Z6/2qPED7pS6R7956CxNuvwFO0XqesskkY/sOhkrWz0Eho+InnC2i76ieB+X3oyYOsqtkKB2P/vdT6M06wNfDyrTI17lERHMQOMO1eTPuPO90bF40R1kjswlUQBZVaOXntUGr9hh564NoeeQA5Y1B32dxX2qOyM4IgurIICoSqdccD7z7MfR6TYPyxs5eAS5K163AhNvHYO5nb8OhwVXc1EvI7FyDwJLZQOCpCJUys2ISwskSW9lO016qQBDoO9RWvOHHqbjtjCHQnBg1pAZj1yWFcMC/uPfyCQpB2MsA15jdE0GgFDObp2jsKaBnNUS/0TfhkKFnQrc8FCychTev+QuK162DFdbZcTCcnQMzIwONO3TkUbRpdXP5n+wGLZBWpyGMnFw2rOFVPrewJ6C7MV75kSzMJhU5a+sow0BiSkr1UsdaFJpJc+ppRgJlyuMoWbcShStWoHTTZiS2FGD9koVY/dN3SMRL4cTK4MZK4MRL4NsJRBu1xkVPvoRQi/Z8TaXfTsMTlw2H7nhwuSVNrbRUSKi89jtQ7xjJDGlYUzNcR0ZJ7TqSX5+q73P6m2ytg0FC/s4JQuXrtUjAaaWhywmn44/3PgQvEg04G6XTKYWvhIAcfBwPWrwUL9x5C7757yToiUI4ngOXFfeK0B0xbCQuvONhOGY6vBANZyIbaGUnzJMF4SGxahWeG3Mt5k//mBX7Nq/+g9YDTkEFIsVUbj1YIacIHItMqUbPgZoyHGqdrcSMFoxQFh7/fAa83CZMctWESEVMyRmTPkVLl2DssMHwS9bAoSxJYA2hOm1VFouyU52O6o+Lxj6EjBYduQuEhzWVEwR6np3yDMLUF8fBs+l5UqSTgnUkqz7GvjARdTv0gk2DmrZxRAyeN9/nmRJzPnwXE+6+GVs3rOL7aZhke07XVqG9KC8TsRN0MHLZp7ZgukaS7QbiIhp/zdlAEke68PR0PPTGB0jvsPMSAyFuaB7W/zQDd59/BuySjcGcCpqlEkzZLJ+9UKEEOVB/S+S89iwCQhD2LJ41dm9KwmWxPS4L1TwTGS06YeDN96LV0QPY037TV5/ixasvgl1cqBTz/HIPxF/0PjYs7hLQWckeZVvlUY8+inDzZoAZ4g6B0uXL8PWEF5Dcsh5m2IBhZQUTYKhbIs5GS35GLvJPHYomXXvxvsi8ZcW0Kfhs3AMoWrcIfoxG2VL5gkoFNDiJPkFGIvDVNzNycPRfxqLH6efxZMvE/Dl46vKhsAs2B1MJ1eqocod69VTj+/pWUynHRGbj5myUlLMbBIHOXLW7Gkiv1wIX3XEvOg44Hi4PtKLgp0pNqm0wmPRIwaJgI+645Dys+/lrtr6m0gEbXGk+evQbhAvufAR6/cbQwhoTBPImUC2sygLa9GL48D+P4/0nH0Zs6ybAoQxOiqWlCELFlE1OGFBQpoFEAZEwuI7usHaEDJTInEiRJA16NBdPffUD4hk5gW6BymWq/ZMyGKSZiK1bjTGnnQJ702KeZ8BfDb5PNICCbTgrF0P+cDVOuvBKuJEs1X5IzyUTWPW8VxCEWzH1xSe2JQjk96Eb6DPsTFwy9v8hGUovbzWu/NQQeaJUfhgJjL/9Vsx4+w341DqMRKDvSPVtVgxIImEx6WzoXCLRDPixBDwnyYPKVMVMDe9WgkUXvpGB+1/7AFmde7LVsmr3VG2OasCVEuduXvILHv/r1diwaA6NUuVSIf0uKjvnwHBrXz/ycrz9joAQhP1+Cw6ME+CgQKszbnuwOdFZv/tROO2ux5HZuj2nlVe99xpeueEP8Gm4Ewuk1HCcoHcsGIRESzGlVje1KBoePRCDx4xFVuO2cD0PXtlWzHruOcyc+CwShWt5mBPb8RpKTKdHs3H0H0fj0HMuhR7Khu/HEVs9Hx/fcw8WTfsAvkPZhxBA7nzkraD61lJ+O4HQjoSSUfS85K849qprYZhhJFcvw9MXDUXZ6gXqhcep6XJNWjVbyvbHPavQIKQIApcDdpJBsHwfiZ1oECqfNZE5g9oWDQtdjxmE8265BxnNWqrkNptsKX0DtzWSmRIlzl0HSyZ/iEeuvQJO4Va1og4GAKdlNcI5Nz+AQ4cOg2f60Eigyq2lFKcs6BxkbOh2Ed569D588fJ4OCVFKpGu1IiB2DLIYAXNEqmx4PR/ybGxc4/eKFi7GssW/ASfSkxUIuL7TwQhD+Omfw8nK0fZLVN5gVwk6dy5NGXDj5Xg3zffiu8/eBVesjDwOAiswI0Qe2T0PnEIzrzuFoTqNQWsMDQvyQSHZyoEMx4UQUiwBqGCICj3SArOhu6hRZ/Dcfkd45DdogMcHmBVOTWiGjrVgEUHRlkMb497DN9//hbWL1sENxlTjo7bW1PpJjJzG6F1t67o07cf3vzPiyhYsZR/TypGmVMGQc2P8LV03DL+VTTqcwyfA/uNVCIInuYirJlIlm7BzNdewVtPPoiyTauC0psq35A/isvlj+Cm1IDflv3xG3owHlMIwsF4V3/HNSmhIa3o6AVHKw8dbY49HcPvfgTIyIKWjGHqw7dhxn+eVLXboN0rNStQvTMqdUVwolKHmVEPPc+7DH0u/APMOjkgC+DipcvwxWMPYcHnbwKJRNB36cC3wugy6Cz0/+tNSMtrCt81oJWsxeeP3IpZr78O344FrXHUnkkvV9WOt+18enUOZOfc7exLMPBvY6FFM+Fs2ogXrzgfm36cxuUFHvtbgz7q/tCwJtIgvIrc1p3hkUCUlWoEBpE2VYu3PD/oYthWpLgNQdANdjak75iRDIwYfT2OvuByeGnpwepSrfwZS+5oIM2Hh7CdxLuP3It3n/kXNDepOj6olVFLQ7+zL8fQa2+EVTcbLnU6+GoFCk/pUlR13oURK8LX776Obz74Lxb98D2S5NboJNmCWS3mVaqf/t2KZqFFh85o1qETOvQ5Ap26HYL3nnoMn7zyPDSeh0zmTcqJ0w/Vw1OTv4Jbrz4PWGKxHVsvBy6M5IDo2lgzZw7e+/c4/DTtYzhkLewZ0PQw6rVojT4DB2HAiDMQbdKaPRU0smD2k9A9mk6p5lcokaIDi7sYbsMUKjGQtqV83oeK/Gm5DTH8iutw9JkXImmFYYSpU0dpa9jJkghxMDiJpqyGkjEs+WkWfp45E6vm/4AV839G8datHJwj0XQ0a9UK9Zq3Roc+/dCuezc0qJeDa886kWHPLwAAIABJREFUExvnfcdkWfXmKikn211z9SmEQZePxtDRY5CkFlTN4lZehZ0a8mSSsNhLIrF+Daa9NRHffPRfrFuxHKGQhWZt2+PQw3vjPw/dF+yffgVlRkMNenXs1qkKQdgt+A6eL6tYQC9TJXrzTAPtB1+MoXf8E1o4DBQXYfwfTsem72dwipcNa2jlv6vVhGYyQaCdRRs3x4k3jkXbAYE5j5dE2aJf8OZt12H9j1+zHwOZOeV1Pwyn3fUg0hu3gGGmAfEYZr/8BD574n645avNqhUC6IWff/KZOPmWe+Fl5cApLsSnd92Eue+8xG1t+2wK4x56RLYlCK8gt1U+XEPZF6eyPtzOR10FHhBb8QtGn7BrgsB6BU1lCXTNR52W7XDjvyci2rKjmhDIC3AKsKo8QASEB0ORmdCqxXjqxmuwYMaXLIRjTwLfQBqJHseNR+4hh3Jro0GkhXQCwTly2YLL2j77UsQ2bMDm5Uuxct6P2LyO3DbJx4EyUuTeZKJB40Zo16Uri2FJ62KlZ8Bwknjlrhvx6cRn1chtVu0rkmSEc3D/m+8irU0HgLoYKOFOGLFhk/JJ5LHWTgJlmzdg5YIfsWzBz5xRqt+4GZq174TMJk1hZWSzBwddLrtp8j4CQ6+dEoQnVDo+GOPMvxuk+DWjqN+mEy7/x4Noln8oqM/Bo3kIVMLz6ZwUCVKTNUkaqLB0kkk4sRKUFRbCiatMgmFZCGVmIRTNgEWj0mn3ThnGnDEUG376qvzeKIKgxkKzw6mmo1nX3rjtlXeRAE34jCjiwBMuCQ9qjVWjqEkX5BZvQWzTRi4zUMtkODMTOelRXHRYN5icvSMa5O5PT9E99Bslu6kKAkIQqoJSLdmG06OsgPYAy0DH4VdhyJjbAXIfLCjAs5eeii3z5gZOb/Ri27XWmtsWaWVGLz1LR1brDhh5/1PIaNkD7D7rlqFg7ixMvHYU4hu3IL1lF5x2+32on98DepoBt8TG2q8/wXt3/w0la2i6o11Rr67C/dB0C/mDz8RJY+6Glp3HrXXTH7kT059/DD4NlKphHxaOkgahYQtc99yOBMHXqZef2tNMhH0gvuIXXFMFgqD8LOl+Z2DQpddg2FV/QxllEVjYpxwvOY1PuXDWFCQRchKY+dYkTLjnViSKNwGUmmeXZx91W+fjn6++BzuD5lzQuGHVrMLiVyYIZCRE1smKeGieA/ID4OCqKY9E3bBUCYgnNCpzI/YI0EMIxcow4e7r8dnEZzjbReOced+cq7fQc9g5uPwfD8FDJpe63BDpFWiqKRkQEaMl4aQDsuDQee6BD49LIT4cLnNQm6YKnnRgwwhxaSw1VpvdIdm12a2UQXgCXpCCZytowjRscVuwEYqi98kjcNlNdyOensNTRnWNxJEkNFSOpqrYEEzYJG8OJhgmh2EiTZxloCNqNLiMVvsONENDmpvATcNOxvq50yp1egR6AdJBkHiRrLCbt8Htr7wHM6spz01h/ypqJSZb7mCEN90TzsLQqbguDGYPaix4JF6CC3u2hW7ThE8ifNvm7GrYr5KcbjUQ0LKzs/3CQrrx8qnNCKhXEK+xlAOhaaDTWVdj8A23cV3WXb8az140BEVLFyizGG4h+zWCQO8bGs6kcynAMww07nsChoy5i2vdvmdBs20sn/4GZr31DroOPhdtBwyCnubDT/jY+suP+PDBW7By1hRW0SvxlVr7VNRyd33HKLXa8siTcNLYfyKjaSsgnsDUh8di5kv0Mk/1rNecO/5rBIFdB3SbswFEEEK+j/iK+bjmhF7b+CCkrlbda0qZq3tDo5KpL9VNq4ebHn8WzfseCzeomafGJSuLYao+JAHbgRUrwcv33oxpr7/EZlTBHuGbaTj+rIsw6MrRiOY1p+o6tz1yy2NQw2ZXQxIVsi6BxHWqcVHjVTo9f9QZkTJiCoyreDSDDzMZx6v3jMHnE55lh08qWbHzRlBpadqjL/78wFNIb9wOPnUDUDmMtRoG758zRyz4p+OylI//4UwIGQtRcHcdbFixDLYZRsMmLYIMCJEkIjQU4QnJgCDcfTumvDQuwIB+LwKbaDLsCso/WiSKS268DT1OPgd+WjY00yR9pvodYu2PeqS5uOe6XB5gx4fAAEuJM4LmznKXJCCcjOGWM07DurlflrdqpkZyq9KfKjNEs+vg3JvuQp9TL4AbCvH9UMkgKnGo3yvO8jDzCVpIeSYFZSk8RJ0SXNC9DXS3KMhxVBhK1ZzfIDnT34OAWC3/HtQOwu+UEwReqaoxuD1G/Q3H/+Xv0PQ02KsW4snzTmCvAU6Pcpp05wRB9agHCmnf4s56WqH5kXS0O24Q+l9zPdIbtucg5bulKFqzBhn1mkEPW9BMF7FlyzH5iUcw7+M34MRK+ThuNY1byKq5cc/+GDj2PtRr1wkoTWLKY7dg5otPBC/zmnUTtycIOa068/ArSp+rbkCVaqfBRhZlEJbPxzUDe/4KQaB7qAIat7dScPJDaNixB64b9yyTKpdU+7S65kBlcWKJhI2sP/EdLJ81Gf/392tQtHyJUvqrmaEw06Pod+aFGHT+1Yg0asHzEGjFS6l8TqNzv75aOauZHEF0p7PgWE+eA7SyDzpT2KCICKkLw4nhlXvG4IsJz8OjuR4etXdSBoDIjg8zMxen/vFaDLjwcrhpaUEpiQiCCoC8VueqjDoPymqogY6UwaCR1A5KV6/Gq48/hvxj+qP3CScCWhpoNAlbIXMXA5GloM3x7jsw5aV/wXdUOUUpAFQpRuln2WgAeloGTrn4ahxxypk8HI1W8hSaWWubuv7yf1ep/3LlbTkxDuQ6PGESCNsJjDn9NKz/iQgCBXk1Nr2CSAf/punIP/J4XHT7A8ho3pL1GWrIWpDh40MFBC6YlxFMcYHhuojGSnBRjw6AQ5MeiYTWLP1OzfpNP7DOVkoMB9b92G9no4JMpRe1YaDX5Tfh2KuvB7Qwkst+wv+NPA7Jwi2q9svVaUqC7kQTEIyXprq0T4GBB/eQstuCFongkNPPw2GXXYVovYbwXHLx06GZDreSoXQrJj/xMGa/PgFeSQGnd+llSMOgqvXRdDTq2Q8n3voA8jp2gV8Sx9THbsXMF56okSUGDr2kYG/YAn+jEkPrfJ57QARBxQ8KXkqDwBmEXyEI6lbzujnIBCnlPX2MtHQMGnUlhl51AxJWFDT/mQSKPk2L9HUYTqBRoZW2XYKpE8Zjwv23wbfLgpZXD5rpIRSti3a9+2PkNdehfocOSNJgKAR+ANxfryru205jCFwxWdwS2HfzMps6K2ioFKn9izDhnpsx+bUXqTTPehiup+tEAlTffk7z9rjgptvQ4cjjeGolWSUHBh+BEZgSX6oyh1qdk6DS9BLQtxbi4euvx8LvZuDsG27AkWecA2jpTBBU+6/KvJSLFDmD8LhyZExdTWBUFMgAVfg3Q9DTouhx9LEYdsWfkNeuCxwjolpFVYGFhY2pqZOVzZsq2jAV+aCZDzQ4K+IkcdPwU7BxwddqMBmTt+1/H1XmIZJVDwNGXoAhl10NKzMXSZ26TKjskspOVIxfDxgTJy6IIEQShbioR0fApvHnRLJU1kc+Bz8CWk5Ojl9QUHDwX6lc4W8ioKx4VaCAYeDQK8bg2CuuY3fExJKf8PjIY+EXFwGuGulLK71diRRZKQ0amGRDM8gBkUSLYTY9QlYOjvjTNdzKqIUiyhnOs+GU2Zg78Wl88eSD8ImIaEmWQ1IhW7VZ/fqn8gwFMpNp2us4DLztAeS27QS3OI6pj96CbyiD4Ka8E35rjwfO37PETlddDNePn4B6rfLZs4KCtlqLB/3vlEHwXJStXIhrTurNHv87+yiCkCoV0RZUg1aeBq269MEFYx9E48494Ro2tzly7Z1Xz5SqV1kFCq7heAHGjjodK2eTeJVWpcQ7HBi8StURrpOHoZddiYEjR8EOZcPhwKSW17Q9L1iDxDVn0rlRQA0bI62A5jpMDHQ/iWRxMd4fPx5TX/sPYptWwyYfgcAhkUpKRFhpW5cwyG6Ms/86BkePOAuOEeK6OxMqfta48VG5BbiUCSPLqTIsnj0DT4+5GVuWLeGR4mePGYvjzh+FZJICOX1X+S7w3A+S/Nk2XiKCMOFJ7gIgdb+6H0GmgpkYYJKugRMWDnTDg5GehZPOvwqnXno1DxYjUkfXzF0j5PvB3wummdL+KPATNny/XYSoZdN1sGXlcvzj4nNRvPrHgERvX31LUTDSddDktSgGnHkxRl7/d7hmGndpuIbSg1B5hbsqAu0Ft7gynklE44W44NBO0JJBBoFHcAtBOHDeDnvvTCSDsPewrXF7Js0AtzoaJIIy0XXkNRh47VjoRhje2oV4ZPixcChwU6Dwk/xiVx3yO37YsDcoV/BEPyYeFBxC3KVwxGV/RpdTR8BMiypRl6XDi5dhwfvv44vHHsDWVT8rK2U6H35BqhSoEruxbp7TyqmUbqpDu/xk9DDa9x+ME2/5JyKNm8MtK8WUB+/Aty/TyzxR415wHM40DZG8xjjt4iuR3aAJGxvxSpOW0kGbKonKwp6L2Ma1ePrBf8KlXv9gvVyVB5KEbUY4gqMGDUPXo0iLYHFLHgdx9hYI7nbQ0UpkoWztMrz46H1wHafSxEd1NF7ZGxayG7bEUSedho69D0d2k6ZIy8rmeR56yIARokFKZK/twLNd1hYQwSwt3IpkyRasnvcTZn76MeZ9+xWcGGWw1DTHykFKFUlUyysJZNU0UBNHDhmK7seejObtO8FKz4YWToMRsuA4SXh2EnasBEUrV+CrD97DzM/eR+lmKqF53CZ79JCh6Hr0MXD1NM5+sFCQLl8n/uDDdBP4/M2JmDdjMhAMW1JtmoHYLwA86GRUePD/0MAlC2lZuRgw/Gzk9+mL7KatEM6qA518FwwdZtjiZ9tN0lAyG77tIpmII15chK0rVmP6J+9j7rTPEd+6DpqXUJ0IuwjaqjylyilULqnboi0GjbwI7Q/tg2jdPOiRCMiAilsjPcBO2tD4eCU8Ev2HLz7EK08/Ct2Nq5kdu/idr8rzJdvULASEINSs+7VXz5Zeyvz2I4GYbqLTGZdjyN/vAsw06IWrMO7MgShbuZR77dVqaVciRcqW0iqLUsqkiPbgmzQ8JozMJq1w9GWj0XbAyTAystmBzqAaNU92JEvfBBZ/9D6mjh+HTQu+h6Yl1OqJZjkEWgYeG8zTmoiEBIGI/qgcu7QQOg86A0Nuvw/IyoVTUowp9/8ds159jrMVNW0FRCtf5TlgBfMugkwPtxgGY5S5t56wUXV5IguOm6oXV23FR8cwaRXLrYaUmlc0UBEDpXznEMFp9EAySvoQKgEFAjcS2qU+BpGAwAKaVvl6WgR16tdHkxatYUUzkZaZgbRomFfdyXgcibIY7LIyOIkE1qxaiS0b18GNl0Bz40yGHJfKHTsKVSsTBEWW1D+U8TAiddC0TTvkNmqCSFYdRDKiSCRiiG3dik2r12LN0qV8DNchC27SUtD50+8BkQwK5qoVgzUTtLImAqIGgQM0DIuMlMiRIegI+LVf0nLL5aAMR8cgfUJO4xZo2ro1zEgU4WgYaZE0Jsfx0jLES8lKPM6eCKuWL4ddVMSGYZS1UGSJsi507wN30+1OQGWLyEqdhjfRgS1oVhTp9fLQqGV7ZOTkIT0rilAohGTSRrw0hkRpGUq3bsLKxfOQKC7gEhLfeS5jVegs9uoLSXa+3xEQkeJ+vwUHygkoiRmv2NmBLYSOIy7AyX+/BwhnAIlNmHDZOVg760vlfs/xZle1SJXSpM5uUsjzMKZIOhp174+jzr8SjQ89DHp6OtvY2JvWYcl3P6BJl25Iq9cQWigBvyyBNd98j2nPPoK1cybDdWjFHzAB1TgetMGpUT+qo6LC0JERJaOkEZfgpJv/AS8Ugbu5EK/+7VysmjFZTX2sYZ3cHAB1lXpX4JNnQBC0VU5aBTWNZxZyWYBU/yp+VI0cqIhvwqCaffn9pWdBtSHyOOhUcE6JDFPmWMHt4aeifE6wmgnA557aH90rgyke4NKzpiaBqtvKqSGVFeF7nFL6qXkL/JWgJLH9FaXyB+oalHESTyelQM5tecG00KBtk0kAHSPYH1OOQCTICSueMxHkJIg0UC2EzCFS3IQ7LijjlhpwRrqA39bJKNKiBo+lJqgS+SAvECYf3GGgJIJE2Hm1nhIF0kTKwP5ataByxzH8VPcHE5sdBYRKX0Jtjy6XSThTwB0v9I8qBQV3QD1HwQAndr6k3zAa7c5jrOl3OiCMNez350B5y9a085AMQk27Y3vpfFNdDOpFS+p1DW1OHIphtz0EPzMPhleKWeMfx6eP3gODhi15FpLcQqZe1ZXXdPRiNkie7VLwNuGHs9DllHNw5CVXItqgOY9gpheuW7QRH917DxZPn4KOA/qj78V/RrRRI+jhdPhxG86Gdfjo0Xsx739vAF4xp6+5/s0vc/WS86lNKyAHdFzWwJOxTHo2+lx+I4665CpeCSaWLcXTVwxDYtUSJgg1rpObAx7183O1JegX8OBxO2BAAniCYnBHOMFA47WDEclVJAkcqiq13vHgYapPB8JBlabeNjyrleWOJITDM/fuU2peJaZTPE9lI8rjUfkzxKcZEB+qg7O3A7dxKodPdT1VJzwUZLm85fM4sODcA8U+ezsECfNglyyoZZdQnQdNEbRsC8S7UOdM4lseRc46gRSxILKx8xX8rn5lmZJrJK5URJczaIQ1j5amjyI3qrFAnSCV7cjzgc+Fmw+Cvw9mQO4KGc4ilLNohasiKhVnp7pKUj9IOavS/69UWmJtgnQx7KXX8AG3WyEIB9wt2T8nlCIIaklEQQKo07kHBo99APU6HQpL97H668l47YY/wtmyBpqrw9FTL+yAIqRax6AhrBlImmFkt+iC7sMvQI9hI2DWrcMBXXPiiK9ehC/G3Y+fPvwf2y3rkRC6n3IOel94JTJatYUeMmHHfVhFxfh20guYOWkCYutXwnMLOYXOr0d+yakXWHmwoUBq6Mhq2RGnP/Qsslt35yzGlu+mYPyfzoVXshVeDSQIgTGeGmxF184lFhWkgsK2Wjxyy6L6cCaomi1pajZSauUcOBcEA7BI3KciOfcFVoosdJyd2++W9/kHHCZlWKBW9BUEoWJvKkiqtrvUhdDqOshsBXbCVf4tofZHju7BSGe+tMDimH9Oq2ISXW57/qqLIDUXImXVrFoJFcIBUeEppcrzoCJzUsWzC0gfB/nySE2dHCoLwm2LlT5sBuVRRkY99iqYU/BWAfvXtAGqPMWFhuAZCX53AtOjSndTZXP4FILsC/3OpjwZGMaqE7QqIiGbHaAICEE4QG/M/jitVN2WXt6czK6bg2OvvR3dh53HKuvi5cvw4Z1/xYqZn7JoileWQY2bX5pBapdqzVmN26FZ737oPvwMNOp2CLSQCcdxWPy05tvpmPHCE1g+6wv4sTh8GoJDpjdpaWjcvS+OvvRPaNbnCB4nTfun8c3rZs/G95MmYvk3n6B061r4fpJ1CWpRpF5Y/AKk+QQhE51POQMDr78PeiQPKCvGl+Pu5GPCoRp2zcsgcJALZiOolWvgR7Bd9ka12lVkEnZphb2LB4wDBaecUxGdRw8FRGPngYHPZ6dBQ3UNlDv0cdCtWKFSGNpRTRDwHQp3ZLCkIiF3HqgVb/XmADAWAeEpTzxwhiR1ZNpn5ZVz6vh0/YoYqOmWKhgrWlBBytSCW2UiFNZVD54qyZOyj0rdkFRXSpAxIDJTnvlQx0k5K6pSX9DhULkUsZN7m9IhVJSIUnc4yACmyjmclVNJHDbgYmIQmEsRORKCsD9ezfvtmEIQ9hv0B9aBldKZXgDqpUgaAt8Koeuwc9B/9N8Rzs6DXZbEsk/ewBfj7kXhiuWqBkopX1rNUio5LR0ZjZqjzeF90eqoE9Cy55EwsurA123AjcEvK8Pst97A3DdewfqFP0Dzk/CIYHBNVK3WKBjVbd8Vvc6+AJ1OHIJQ3Ubq7z0bJetWY/0P32LBFx9i8VeTkSjcCI9V3sGq0/Chh9JRp2NXDL3lNuR2PBxAGP6GdXjqwhEoWTGXTV6oVFHTNAiqqKDU6EokmBpXrdZ+/H5PpVFSP6mYFlzlh03tLZUpUKtFfjY4jgTDlKocBlUgLl+JcrFg2/1sf2JqemOK7QUBt/z4QUCs8tWoDSvlVMp9F8pJA2NZscPUtsFIEoVFkHVIbaiwDjI5gXAvUFVUGZlKKAcnmVrDK6wrTimVsUidIwskUimEAM3Ud3ed+q/AILWf7bITlTAt/5vytEKlu1Z1/lPNuySbH4gIiEjxQLwr++GcKlqh6OBmMIdWR3rT5hh+14Oon384fCsbXslmLPn8bUx54QmUbNzAqVVqiWzUoSNa9z0GbY84DuHcRojm5sLzQ3AcahCzsXne95j67yew6rvJiG1aH6w4K608uc3fAhxFNtJyGqPd8YPR/w9XIZTXRCnHSc/g+khs3oji5UuwZPonWPzNl9iwcAV8Lcntay169UXfC65EXv4h0CM6YJdixrPP4MvH7oPmFnMNV6ns5U23Hx4zOaQgIAjUIAQkg1CDbtbePFVFEKiWSmtVUjYHkxpDGejQ/2QMuuVuWDmNoBkuDFLHlyRQVrKRhWPhaBY0KwzXpJ538qpXPdXcNrZlI3763zv49tWXUbj0R8CxQWZ87C3P/eJBipMXZFQfDRZIVNc1MxFp2hKD/3Q9mhzRH0Y4nQ2c9JDFpQcv7gJOKZBwUbSlAJH0NITrZMC1wtA9cgG0UbroO7z+99FMUFj5TWI1ynhIHXVvPk6yb0FAEDgIEJAMwkFwE/fEJXAKknVLQSubpsGgfngSUKXn4JhL/4zOw85CJK+RMjxKibRowI1BYiZqhXdAc+2pLbFw1QqULF2IOW9PwKJvJsOLl0KjUkBg0KzU45U+PDhIh06ueUFfN7VJ0vZGVg46DDgJnU84FfU79UBaTkP2TVAaRSovUAnCDNrjXPbop778ovk/Y8qTD2PhlHd5JgE78armTBFa7YmHRvYhCAgCBzUCQhAO6ttbvYtTddVKNdtAzky96uE6DdBx4BloP2AIGnfuACszyit5bo8mGYKbRGzLRmxeshDr5s7G0m+/xNo5c+GUkvOiHZABGh9LAXrHFH8g3FbtZSSUou1ojkNwDmYohPTcxmh26FFo1LUPmnQ5BHWbN4WZnqksh7kFkDIQHmKbN2LdnFn47vUXsXrml/CTRXB4WA/914VXTaFb9VCUrQUBQUAQODgQEIJwcNzHPXIVKYJQ0V+m7FnZWIXKD6FsZDVsirrtWqJRp3yYZqbqMvAdbF6zAsVrVqJk9SqUbloHJ1GkhIDchaVGO/H+6d930arG5ICyBixcd5WKnQY5kXELC+RMOKYJKzMD2Y0aIaNhC9Rv0wmR7DqoWycPsTIPJVs3YfXcmShYMg+xTavgJckdjzINag/c0iYEYY88L7ITQUAQOLgREA3CwX1/q3V1amJgpa8ouTZMslYml7iwD8Oj+j/pDWgwT0IN6AkU7iAbXI9S/mT3G4z/5T5zykq4oH9j05ud2hQFLoFkEqOTIZIGk6bWMc3QlTMjT4Uk9zqDh+mwkp/KIDo5vpH7XxiwqUuhmCbscquWS5MAqReeiAbvz9uhv7xaIMnGgoAgIAjUEgSEINSSG13dy6wsINz+u6ptjX66Jx3VUm1jyoK2soiwvHN+uyE43PMflEXobOicKr5aoXD4tWupLi6yvSAgCAgCtQUBIQi15U7LdQoCgoAgIAgIAtVAQAhCNcCSTQUBQUAQEAQEgdqCgBCE2nKn5ToFAUFAEBAEBIFqICAEoRpgyaaCgCAgCAgCgkBtQUAIQm2503KdgoAgIAgIAoJANRDQ6tbN9bdu2brTxrNq7Ec2FQQEAUFAEBAEBIGDCAGtQ4fOvm6E1FhV+QgCgoAgIAgIAoJArURgexagde7S0zdDkQAMGi1aMeeuYmL6jj+rjJ58J5gIG4BSk3Bjc+WUeUDKU6DcUKBi8m+FyUDli0xNVqpsQiDfUbOXU79SKXOGAxy38tG+tfK9KBe9HQLl7/TUs5x6J9B2O/3Zbz3nwe/ENvupCd+pnQvn1C3WOnfp7euhiCIG8pKQF4UgIAgIAoKAICAI0MRdyiDo4YxKeQPBRRAQBAQBQUAQEARqOwJa5/yevhlOr+04yPULAoKAICAICAKCQCUEtPz8HoogVK6bCkSCgCAgCAgCgoAgUKsR0PLze/pGOL3yhN9aDYhcvCAgCAgCgoAgIAhAaRDMkJQY5GEQBAQBQUAQEAQEgQoEtM5devlmKCqYCAKCgCAgCAgCgoAgUI6AEAR5GAQBQUAQEAQEAUFgBwS0zl17+aYlGQR5NgQBQUAQEAQEAUFgmxKDaBDkgRAEBAFBQBAQBASBbRHQOnXp6VsiUpTnQhAQBAQBQUAQEAQqIaDld+3lG1JikIdCEBAEBAFBQBAQBCoTBNIgWKEoz+KRjyAgCAgCgoAgIAgIAoSA+CDIcyAICAKCgCAgCAgCOyAgBEEeCkFAEBAEBAFBQBDYCUGQNkd5LAQBQUAQEAQEAUFgOwQkgyCPhCAgCAgCgoAgIAhIBkGeAUFAEBAEBAFBQBD4bQTESfG3MZItBAFBQBAQBASBWoeAEIRad8vlggUBQUAQEAQEgd9GQAjCb2MkWwgCgoAgIAgIArUOAZnmWOtuuVywICAICAKCgCDw2wgIQfhtjGQLQUAQEAQEAUGg1iEgBKHW3XK5YEFAEBAEBAFB4LcREILw2xjJFoKAICAICAKCQK1DQESKte6WywULAoKAICAICAK/jYDWKb+Hb4UzfntL2UIQEAQEAUFAEBAEag0CYrVca261XKggIAgIAoKAIFB1BIQgVB0r2VIQEAQEAUFAEKg1CIgGodbcarlQQUAQEAQEAUGg6ghIF0PVsZItBQFBQBBtfskkAAAgAElEQVQQBASBWoOAZBBqza2WCxUEBAFBQBAQBKqOgGgQqo6VbCkICAKCgCAgCNQaBLTOXXv6ppVeay5YLlQQqOkIeBqg+9W9Cg1AVb5E29GnKttW9xx2tT0dK3XcPbVP2Y8gIAjsLgKiQdhdBOX7goAgIAgIAoLAQYiAaBAOwpsqlyQI/H4EUpmDbVf0+yavsPNj//5rkW8KAoLA7iAgBGF30JPvCgJ7EAGf0vq6D4PipGdsk+TX4MLXfE7E+5oOj4+rQ+d/8eHvNEOvqX3w93xovvqT/6NpvA9tu9S+pnnQfPo72qEOnf70aDs+O/4e4AKaOgPa1ofO56QF8V0VDPin8Onvd3JutK3G+1LnQ4fx4fE18n7pP54e7ImOq4BOHWMPwi67EgQEgV0gICJFeTQEgQMGARUoKZDrMOBqPihG6j4FbR+6Z3CApJ+5OkVMDxoJEnbx8VLBlngHNOhEEDigA/Q1FXS3/b7hqwDNBEHjEM9BnAkCkQLN5Z/RfjSfSIEiMkQcSBdB+/R0Dbrn8XnTlezsFNWh1d/TvuiLTGLK6YEH3yfiQbTBAzMhPuHUPwfMTZMTEQQOWgSEIBy0t1YurMYh4AMGBVvdp3wB/0mLbI7ZHgVki4Oox6t3CtZEHCjA0kp7x49OAZjIBQdVIwiwFdtXUIOK1D4HZI0oAB0jRQqCVT4dxtegu3SWRB7UCl/zXZhwmCgQcXENIgg+DFcdYWcEQadj+JQV0eDpZnB9lBEhKqPIj8/pEcpWEPNQ+Q6VmxBBY417tuWEayQCMqypRt42OemDEoFgpe/SUlx3oLk+DE+DrxvwiDIEMZ7iJi+oocFjBsEJ+R0gobU9BW/mF3pQXNB0yu1z6l+jAB9kDDjbz8HXDfIHqiSh0v8Gr+Y5D+FR2YE2pTIEBXF1DNPjo8DR1bE032SCoMoZO94tgzMQGhzdgW8Q2QkyCW5QoGBy5IF2S/zA8E1urPiVhMlB+UjIRQkC+xMBrVN+T98KS5vj/rwJcmxBgBHgCgOtwGnV78JyiAiYsA2LV9MeEtAMA4brw7QpEOtwiDTsojbPa3EO8kQkKCPBeQf4ug5PJ/qgV2Qo+ASoPpBEyHWhw+XvcoQ2Q3ApoGs+XNofBXODSIYDgzIHHmUUTJiuC893AFODRwSBSYUqUuzw8XX195oD0D6oomGYcIkgEJnxHWieo4iPZsLTLaU/YEKzL1sw5dkUBGovAlJiqL33Xq78QENASRDgmhScAdM24OoWjNx6MDIyOTYauo9EQQG0wmLoWhKOQWUEtRrf/kNrfErhu4aFpGYhnFUHOQ0bo2Gz5sitnwcrlAYzpFbmtp1EWVkc8eISrF+5AptWLUOiaDPMZILivSoBeA5cy0SoXgP4VoQzC7rnctAuK9kKr6gIYTisU3BgqozDLoI5kRaWQTK70eCYIUTzGsIPpcEnvYWTAEoKES8sAOVPiAzRtRAGIlQ80B5cOZ+DFQHxQThY76xcV41DIBX4iCDopC3wDCSsEI4962wcduIp8IwIDC+JKW+9ielvvo6wWwxXd3hbeGbQCUApfyU3oGqCaxnIaNQc+Uf0Q8eehyG7cTPOCKhASxsGq3HKCgRrc811UFawDj9M/RQz3n8bfmkRLBcwjRDiZghHn34WjjjpFDhmVGkR4oWY9s4kTH//XUQpsHsuXCpLcN2CdBLB+QR+SCkZJCcefAO2mYZex52Ak86+AAkrDZrnIZyMYdK4f2HxrBkIeQl4msvX4/GXRINQ4x5uOeEaiYAQhBp52+SkD0YEVOufC5c6F1yT/7RDFo45+yL0GnwaZxNMx8WU117F929OhOaXceZA11yYjgWP2h8NG5qfhK2HEc5tgPy+/dCt/4nIatAE4FU44GikI6ACA2kQgiIArc41VUZgbaAHlKxegGfHjIZpl8L3IirYuzbS23TA4MuuRl7rfC4t+JqDgkXz8OH4x1CwfD6dNHTPAvQkNDhcxkgJESg7wE0LOokh6XpDyG7dBuf+7UaYWQ1ZU+HbCfw8+SN8+p+nYCYceNzTQaUIG/CtXbR0HoxPhFyTILB/ERCCsH/xl6MLAuUI7EAQDB+2FcIxZ49CryGnwdUsGK6LqZOIIEwoJwiUxjd5ZU26BA+2oSFUvwmOGnY6OvY+AmakDgde9lJwbTgJG8myUsRjMV6N64aJUDiEtGgEeigE3YjA83UUr1mMZ275M0LJrdBci/sryYHBs9LR/tgT0e/Mc5GWWQ8etU8mSzDrwzcw88034JXRfn3VnsmtkSpnQKUQ/pN1ECoRYGXlYsD5l6B9337wNItbMdcs+AVv/N/D8DaugGbT1mHofhKa5sD3iZDIQyMICAL7AgEhCPsCZTmGIFAFBHYkCIBtBRmEIUPh6iYMx8PUSa/g+7cmQvNKAd/kar7h0zrbYTEf6jTAMSPPQ/vDj4IRjrLQUPcSKFi3CgtmfYe1i5eidMsm2HaCBYy6ocEMh5GdUwd1GjZE266HoUGTFigtWIenxl4HK7kFOncbWtA1B66rwchpguNGXYI2vY+EBwu67iK+YS3efvwxbJz/I3QkQJ0KxANSfgxeZdMkEkpqJroecyz6njMKZlZ9aL4DZ2sB3n/+WSyZNQVhpxQ+SRz0EAyXro+EmioLIh9BQBDY+wiIk+Lex1iOIAhUCYFdEwTKIJwaZBB8TJk0kUsMul/GBIHFgojD8F3YRia6Dx6GI4afBWTV4c4CPVGMH76ejC9efwP2pgKYdgxGyvSIzIh06nIgOYAGzzCgRzLQ6ZDD0b1rPiY89ThMt4y6LjmrwEwBDlwtjLzOPXDaVX9FOKcet2KSTmHpzOmY+PgDSHcKYbDhYjBZik2P2N0ALlwYVhoyGjbDwAsvQYOuvWBoEXjJGH787H1Mm/QivOICaEgGXgtBB4N0L1TpOZKNBIE9hYB0MewpJGU/gsBuIlB9glDKq3oq8mtQ2YC0Bi0x+LI/oWHXHtzKaCRKMX/6Z/h0wovwt2xhEsFB3gMMj5QI9AkIAq/MybzIg6NZiGZmI15SBJ1IhmbC9T141IKpkTCSyh8Z6DviPPQ+ZRg8g8SFBhAvxjtP/wvLvp0KI5GA5ZPlkgstZQ9NsgfyUAin49CTh+Pwk0+FnpYFMlAoWLmEdQyb5v0Ak6mE8mmobAstHQy7+ZDJ1wWBaiAgJYZqgCWbCgJ7E4HfJAiwYHgeplCJgTMIQYmBZy0k4OohNDnkCAwcdQXSGzThwBrbuBYfPvcEVn8zEyHHhadTwFXCQXZgLLcUqJy61+CS+ZGhwaHSBa/+A08F/qILw7fhaib83CYYceVf0KjjIdxOafgOilYswCuPPIyyNcsRdsnLgMoMJIL0KfcA3bSQ06ojTrn6L8hs3AjwLGhlCUye9AJ++PQdJjU+iR99pXkgNkOCTY3cID3xUdybz6DsWxCojICW37WXb1jUriQfQUAQ2J8IKCNhCuIUg00W8iVJg3DOKPQcMgxkaGy6DqZMehnfv00ixTjghYIBTzG4egRt+w/BCedeAo0Eh5qPdQt+wQfPPIbYimXQHINNkkDZBnIp5JkJ5c2NwaWnZh345FfE63j+LxMKlW2gf9HZoZH8C9LQoFN3DLvqWhg5ddn5QLPjmPm/9zD9zRdglJUgjDA8x4dt2vAMH3okFydfciVaH3EEXCPEGYoV33+D9598Au7WTYCf5KyIEhukBlQpwyfJIOzPJ1SOXdsQECfF2nbH5XoPWATURAWXRX2aR+6JRBCoi+FC9BwyglfsppvElFcVQSAhoO+FOWAbiMPT0tBx4DAcf97F8MIWGxutnf8T/vfk/0Ny9XLWDdBK3qQAzHF/99V+OmUGonXRa/hZ6D1kCDQtDaZuYMvqRfjg+cex7qc5MJMGdF9DwkzCNU0ccvQQnHDBxXDD6cwB7K0b8O87b4O9crkqgfCsCXFLPGAfVDmxWoOAaBBqza2WCz3QEahMEHTXoonPTBD6nUM+CMPLCcLUV1/Gd+9MgO4TQQipkUl6HK6fhrb9TsTxF10KPSsbnuehdPUKfPbMOKydO4tFiDQ/yfQ85bm8JwhCkEXIbN0OJ108Cg1bdYNn065L8POXn2DyhJfgFm1lPwQa4pTZrDXO+tONSG/QEr5mwXeKMfW1iZj93tuIuHQNVAIRcnCgP6tyfrUDAdEg1I77LFdZAxD43QSBgqpBWYEQ6uf3wvGXXobspq3h+Qa0eAm+eetVfP/BO3DKiqEGOHHhYI8QBJJHsg1yKIwuAwbiiOHnI5yRA9eIw9myCR+Nfw7LZk2H5pQBGVk4asS56HbCEEBL57kPy2bPwMfPPw1n0yrOHlAuJKhqlN+xwICxBtxBOUVB4OBCQDIIB9f9lKupwQhsW2IgDYKGZCiEfmddhF5Ddp5BgBuC4ftwDRp4pMOq0xAnXnwZWvQ6EjDTAN9G6ZrlmPrm65j39dewkmXQXRuaniIJuw+YcmDUYGXXx3GjLkebw44CTaSkoVIr58zB6/96EIhtRYtefXD8yEu4vZG6E4o2rMYnLz6LNbNnAE6Mr9d0lPZAvA52/77IHgSB3UVACMLuIijfFwT2EAK70iD0I6vlXyEIpk9dgi4804Omp6HjkcdhAAkVM7PZftnwXMQ3b8CsyZ/g+88/glOwCSGalOg7gc/A7l0AtTySD4ILA1nt2uHCm26Gn57HvglaPI6PXngGi3/8DiedewFaH9oPlCSAW4rvPvwAX056CXrZFmiawW2Z5NtAFQYeYy0fQUAQ2K8ICEHYr/DLwQWBCgRUSKQJjF4lkaKFfmeNQq+Td51BIILgGkQQXGiuDjecg2NGXohDjj0OCKWz+yCZGxl+GVb/+B2mvfseNiz4BX4iBm27tkGq/3O7ZTBlcRfDmre5bXzevgabqgMhC10HnowBZ10KjwYv0QSFzSvw4ZuvY/C5F0MLZXP3RdH6xZhw//1w1q2ERQZPZLRkk42yzRqEPSGglGdLEBAEdg8BIQi7h598WxDYYwhwYKZGR8Pl9kMXOmwzjGPOOh+9TqUuBvJBSHAXw+y3J7J9MnsIEKHgPkSP7YttQ4eRkY7jh49EuyOOg5mZAdfQ4ZO3gesiUbgFi2Z/j3nfzsSmJQthF23msgP5DmgGjXX21MAmkMmRz+2QigQoWeP2EkKlHdDgGGoeBKK5OO3qv6Jx9+7wdZqvYKOkoAAZ9RqqAdCFG/H+809i8cxpMG0Hvu3CoJ7KYKaTSBT32CMlOxIEdgsBESnuFnzyZUFgzyGQIgiOTqt9nQlC0gih/9kXoteplEHYCUFgJ0UV0JVvAaXqNdg6EMrMRrdj+qHLUccis2krGHqE5jEqHwPbRdnWAiyfNxuLv5uOVT/NgVu8hWcekH0zDX2iyYvUnkjaBipVkG5A30n0VmZGPlz2VdBha2E0O/RwDBx1KdLrN+EBUdSySa6PWjKBHz//Lz57+TkYyRh0nhPhs+0Bk5Fyv4U9h6vsSRAQBH4fAkIQfh9u8i1BYI8jsGuCcMGuMwg8/pjcDqm078P3KJhr8A0a3WTDjFio16YTuh11Ijr27KN0CYbOpQXqGPBtG7Etm7By7izM+ex/2LR4EXSPzJpIC+BwwKc9M0HgDogdL1ujaY6asmjWvBATGz0nD31HXohu/Qey+6FDXg2aieJ1a/Dag3ehaOU8mFCuzzRuio2byJuBWA7tT9IIe/z5kh0KAtVFQAhCdRGT7QWBvYTA9gSBZhEkQ2k4avi56D3s9PIMwpevkA/CRDZKoi4GWnvTVIWgEKBEfqQDpKy9QcOgaQhTBA3bdcJRQ4eicadO0MMROJ4BjaZBUunAS8IrLcGUd1/H3C8+hFtaSP6H8D2b5j1C85l+KMvj7YI3lTc01g6QqaOFmO8i2qgFThj1BzTr3geGpjFBoLHSKCnGpPvvwtr5s2F6DgzKfKTKGaQ9CCydxSdpLz1ksltBoBoIyDTHaoAlmwoCexOBqhIEMkr6njQIfgKaSyUGWnEHzgaV1P80PIm1AZbN8xN834KZXR+te/RC1yOOQF6rtjAyctiwiLiErtnwYiVYMGMavnz7HZStXc7OjVTsIBJAhIWdmbf7MAWhQU5UitBNxMNhHD54GI469Qz4kXQeQ+34DjQzjVsfC5fNxwsP3YPk5nUwPR8mmSdqVNII2hsle7A3HzPZtyBQZQREpFhlqGRDQWDvIlAuUtRdVfsPMghHDj8XfSplENhq+Z2JLFgkgqCy8tT9kDo/FWFTQ5ZI9EgWzrz8N0JwjBCiOTlo16MX2vY6DA3bdoARiUAzTC49OIkyLJ45A9PffBVlq1dA9+M8H4KEBDzgabuPrtF0SBJBhpAMaWiY3w1DLr8a6fWaQfNdFG1ai80b16NV567wtRAMN4E5H76LL157DkgkYThMPcrVj5xQkI8gIAjsdwS0Tl16+lYofb+fiJyAIFDbEaAsAIVflwYqsbcAkDDTcOTw83D40BFwdYu7EGjq4az3JiJkk0ZA9RWkVvaKGlQ0CVLKnmv69FMqJehKUuhSKl83kNW4Mdr07I1u/QagTuPWcHWThQFaaRnmfzUdH45/EqFYMVwzzgGcSggkWuR+Bm6F9HiCIzQLLsIw8/Iw4pprUK9NF3iGBT0Rx6eT/oPCjRtxysVXwcjM5UFPya1r8fF/nsSSGV/BdFODmJSWgq5F7JZr+2+DXP+BgIBMczwQ7oKcgyDAIZe6BKitkEYde/ANH0kzgqNOvxB9Th4KzwzBsB18+sp4zP7gdYSTDqfsKXOws9T/rkDlcgKNcLYAm8hFKB0N2nbFieddhDotW7LAkZIOWkkJ3n36USyb8RXPVtDgwfNYWsi+B5ywoNHPms/CRC+Ugf5nXYBDBg1hvQRlNlb/8gMmPXIvLMNDvxEXo0u/E7mVkiY2rvrxW3wy/hmUrV3FyQ36mI6axSBVBvmVEAT2PwKsQbBCUV5dyEcQEAT2JwIBQdDIT0C5FSWtdBw78mL0OGkIHMOC6Tj46IUn8eOn78Ii/wDuMFQk4dc+FeOaeTo0txY6FpERH75jwTOzkN2mDc7601VIa9CER0uHPBcFi2Zj/D/uhJkoYktn+MrroGIoNE2f1OBZYbTs2QcnXXAVzLwG8Lw4nMKteO+pcVj1w7fQUIpGHXpg0IV/RlbTZnAtDW5JMWa+/Tq+++8b8Jw4ly9MjzwVUkfYn/dCji0ICAKiQZBnQBA4UBAgpT+J/diLmPIJPmwrAydecgXyjz0eDlkR2zbefeZRLPzyA5gOpeRVOSIVUqvM87njgLQOPhyPnBjDcEIR5PcfgBNH/ZENmogQaMVr8fxdd6J4+ZLAI0GdGZcsaKWvUwujhfQmrXDCueej2SGHw9FD0O1izP3sY3z92itIFm2GpcdghzNw2Cnno/eQ0+BFI9A8DUWrluCDZx7Fhl9+gklZDRpFTaJLbtqUjyAgCOxPBIQg7E/05diCQGUEyEeArIw8U80i0IBkKBNn/G0MmnbrwdoEI5bApMfuwZrvp0J3PWgatSnSyr7qUNKmlAggMqKR+pDKGgbYHyHSpDUuGHMXzOw8khdAswvx/v/9PyydPg2GrwyZUlbInkbfM+BHM9F7yHD0HjQEWiQLmquhYMUSfPjcv1Aw7xf+joEkkpaO9MbtcNoV1yC3ZTt4pgnNTWD5t9Pw9qOPIJRMwvUT0JXPc9UvSLYUBASBvYKAtDnuFVhlp4JA1RDYxrqYDY/INtmEwyJCDW56XVx42z+Q2awNdzX4hUWY8ODtKFwwO1AdkpdB9QiCyjbQmGYlZ1ROhj7PctDrNcLpf70Vuc06kN0RPLsUn73wOOZ98gkLJHkwU2C/TBmNpGGhWcduGHblnxCu1wCupkOPJTH5lZfw/cevwUzGYXArJlkxO0hqGlof1h8j/jgabiTCpMdMxDD55Rcw639vI+Q6TJKqxXiqBrVsJQgIAtVEQDII1QRMNhcE9iQCKdMh1hBw2t/nVb1jUADXkdGkJUbeNBZGvUYwfCC2di1eefhOxJb/wjGU3BBTC262KWZTI/qzom2Qzpe7GYIPtVByaYG0A5SVCAiCbbnQc/Nw0a33I5rbBBr5GiRieP+Zh7D8qy9hJB3oPAFSdVrYeghW3Xo4f/T1yGrTnjMQ0HSs/flHvHbfPdDjm3n7kE1GSWF4ug1Pj8MO1cHJl1yD9v2OgW2EWWHpbVmNiffdiaKlK7grwvdtJYaUjyAgCOw3BCSDsN+glwPXVgR8jVbiajYBB2/fhm/Smt6A7urwdTJJ9uGG6uCQAYPQ/+xz4KdnQrMdLPr6M3z+/DNIlGyG5ZBBEdXtdbjkNuQBaXXy4Njgvw8ZHjyyU+RMQaBT8HQYrFh04Rg+HF2D5dKAJh3xsI4m3XrijGv+Di+SxiUGs3ALnr77dsRXLYWeJD8FyjlQoPfhR3Nw5Ijz0GPwEEAPw/UdJLeux2uP3o/CeT8DrtqerlU5JFLNgjQPPnJa5+PUq0YjvWVTODBZcLl4xpf45MXn4BVtBJCA67owvRBAJRfyZKZ/PBr3JB9BQBDYFwgIQdgXKMsxBIFKCLAzIafRDR6eRC1+tKJX5kg098CBo5nIbNoWgy66DI3zu8LRLWglRZg84TnM/fR/0PykciBUzZEcPB3dRIe+x6BB89aYM+NrFKxZDiRiygkRdoXbIp8LZQ+INujQXBOukYa0xg0x5NxRaNntMNhEWDwbBQsX4Pl7/oFQ2VY1v0FzWJhI1s1tDu+HEy64GFZmLmshPLsEX7/9Oma++QqidoKHN9HAp1S5IDURkn7mpmWh++BT0Xf4aUA0h02YnIJ1mPb6RMz98hNoyWIYVNLwLFA/JhGE1ChqeZgEAUFg3yAgBGHf4CxHEQTKEVDDjShVb7KZkB0OwbQBP06ZhBBc3YNVty4OP3koeh5zAvRIFnw42DDvR3z8zDMoWrmQMwBqsqISCpJ3kYMQeg46Df1OHYGNmzdi1dKFmP/NDKxZugROSRHPPqDOBdUSacEjd0XyUNDT0KBNBxw9YgSad+4G34zw/lFShPeefhbLp0+FhmK2W9Z0F7ZhoU6TDjjuokvQqGsXaJ7FTojL5s7C5888hbLVi1nQyH4OvN5X3ohEZojO0FAm1zQRadgCg0ddjIbd+8BFCIYTx5ZFP+Gdf/8fSlcvgWEnYLhEMki0WdkpUh4mQUAQ2BcICEHYFyjLMQSBSgjwXAOu/2vQsnMw8pq/4Jvp36Jg/Xo4jo/chg3Qs/9RqN+mIzQjjTUFTmwLvnxtAn54/38Iu3G4PNhIaQ183YCuu3C1KLoNHoZ+I0bCD4UB3QbKkijduBEr5y/A0oXzUbx1M2JlMd5nNDMddZs0QJv8TmjWPh9mRi6TDVezYblJzHj7v/hq4qsIuaUA4vBJq2AaQHpd9DnlDPQadAr8aBSe78Ap2oJPX3gei6d8CMOPc8mCCNAuxYaazq2VHQ7vh36jLkYopwFgu7DcUnz7wX/x0cQXkOXEoCcpY6FmSvA8CdElyO+SILDPEJBpjvsMajmQIKAQoMmI1EFAAkE/txH+8sgj7B3g2mRnrMPULcA02b6YZygkSjBn8seY/MpEmEWFMOEq50IuTVD5gMSBNlw9gq6DhrOboWdZ8A0TVPYnPwPdszmQe64Lz1NdAtQlYaaFecgSj37m+r4NJ1aA+dO/wrTX34C9dRPIb9FwPeiahbhmoVmPw3DKpZcjlFsPHukfnBgWfDUZn78wHijcAJjkl2wGUxp3ThG4XAATfjQbAy+7BO37HgNPCykfiKJCvPzow9j882yEnDhRoCADQX/SucpHEBAE9gUCQhD2BcpyDEGgMgKUPeCUuQGvblNc+9gTcMwIXJImagZrC6j1kCyTyrasw/yvPse0997hFkfDT7DI0PcN2Ca49ZBKFr7pwvMpeB+Nw4eMQF6r5kA0wiSBPz4JBpVAkVL85GFAcxl4pc8zIFwgGcfGlUvxy/QvMe/r6UgUrIOuO5w5YGtlIwKrTmOMuPoa1O/QngWOpJsoWbcW7z79L2z6ZTZCNDaauh98gzsYOMdRqYMiBQMPp6ZSg26gTrt2OPvaa2FlN2BSpNPEx8Xz8eoj9yO2aTXPg+Zx1jykQf9N10h52AQBQWDPICAEYc/gKHsRBKqMgEapclLz6yF4mfVx9di7kJbXEA6l70FdBT5KNm/AioXzMO/br7Bm7nfwiosDS2VXBUomGYFtMhkd8TwGDUjLRGbDxshr1hh5LVujQcv2yMnLQzQ7G4YVZmEkT4FieSSQKC1FccFGrFu+GKsXzsPG5UuxeflyaJTN8Gz2R1CFDGWn3PWwo9G579Fww2HWL9AkxgXfzsSczz+AkYyxxoAieGXtQeUWyxRIVGahoO9oOpxwGrocfTQ6H96XdQvUXmnGyjB36mT89O0M6E6SNQ1s6MSDouQjCAgC+wIBIQj7AmU5hiBQCQEOnxzsLDhGGOn1GiBarz4iWZnwPBdlRVsRK9yC2NbNQKIMYZpPwFmDHWcuUPymVXywuOaOCN8gMSGVCyxY4SyY0QgQTkNWnRxE0rPguR7ceCliZcWIxUtgx0rhlBZDSySge16lzoNK3gncjunBCKfBCafD04loQM1OiJfBtxM7mB9uYwK1/RNAGRS2ZQy0ClYYeiQKGCY86nxwHJhOEolYKQwSTGqUKQnGTf/W4Al52gQBQWCPICAEYY/AKDsRBKqOgBIXUordZ30ADzviEcxqUJGmaTBIn+CpNDz9Q+SAJzfv5DCqPZIX7kwO2DaZ9u0leSojGRiRIJJIhqYZXGYw2YjIh02lB43IhM5yB0Mz4O50chvVJZK8uoce4omPrGXwHZj0VdIvVCNwU7sktWHw4ChXg2GEkHRc6NSREXRnuI4N06Q2UFdNeySC4NHfixNC1Z822VIQ+P0IaJ3ye/hWOOP370G+KQgIAtVCgMcwBR0IbK1MyXbNgxvoEiiQ0waGZnJandFnaEcAAAU1SURBVM2QWKq3M3rATgZBGYDYBHVH0D5VxkHzSNBA31dJf1q0KwdGOgGlPyDiwYGar0IDKQe2dyPiI2uKZJCjI59XsEOP9Q2B1qGKSLCmgPYRbE+Ehs2U6CToOK4HoxIjShEgUiPIRxAQBPYNAmK1vG9wlqMIAuUIaEQEQHMXOMIGaQEV5Ln9MaXaJytDrv4H4T0Ytbw9lCrIKq2AchoIFACccVB/q7wXVFAmSuEhxPV8ogPkyUBEhY/l09+lhjlXHElxFvVzw+WeBz4iiR1pcyY11fioM1UpEdJjpOhPuZ6Rsh183upPvkJq7ZQehmqgLJsKAruHgBCE3cNPvi0IVBsBXo3zQjiYWhi4KAb1BfY4YHMhXk2r0KnzZKVU+r3yIVXg5xHJFEwD40JFEypmMKi0vBIzqmjLO+fMhapjKNMk6o7gjoXtAj4FZ0U3FMngjL/qLQjoSfUIAnVxUCkllargTgpOgCjSQA7RfLyAMXCZhY9dveNU++bIFwQBQaAcATFKkodBENjHCKjMQWpV7EHTSRiohiup0EvpeqUroA+v6mnSY+BIuP3pUvDWKeDyMp+CqAq77F/IZQSVmeAgH8RkKj0YVBrw1bHoS9SaqEofikikBkmljsechiN1QAp2SiKqBiadrw83mNuosgQ61RcCPQVnUfia1CkTeeAujYDYVO0ospUgIAjsDgIiUtwd9OS7gsDvQCA1fVGtkQMSEPxwW31g5dVy1eyBKgf1X19sB6LHVNahnLDs+oJ2tXav2pntQGs4O0DXq5IEqbkN2263rYXCzrf5HbdAviIICAJVQEAyCFUASTYRBAQBQUAQEARqGwKiQahtd1yuVxAQBAQBQUAQqAICkkGoAkiyiSAgCAgCgoAgUNsQEA1Cbbvjcr2CgCAgCAgCgkAVEJAMQhVAkk0EAUFAEBAEBIHahoAQhNp2x+V6BQFBQBAQBASBKiAgIsUqgCSbCAKCgCAgCAgCtQ0BIQi17Y7L9QoCgoAgIAgIAlVAQIY1VQEk2UQQEAQEAUFAEKhtCAhBqG13XK5XEBAEBAFBQBCoAgJSYqgCSLKJICAICAKCgCBQ2xAQH4TadsflegUBQUAQEAQEgSogIAShCiDJJoKAICAICAKCQG1DQAhCbbvjcr2CgCAgCAgCgkAVEBCjpCqAJJsIAoKAICAICAK1DQEhCLXtjsv1CgKCgCAgCAgCVUBAuhiqAJJsIggIAoKAICAI1DYERINQ2+64XK8gIAgIAoKAIFAFBLT8rr18w4pWYVPZRBAQBAQBQUAQEARqCwJap/yevhVOry3XK9cpCAgCgoAgIAgIAlVAQDQIVQBJNhEEBAFBQBAQBGobAqJBqG13XK5XEBAEBAFBQBCoAgKSQagCSLKJICAICAKCgCBQ2xAQglDb7rhcryAgCAgCgoAgUAUEhCBUASTZRBAQBAQBQUAQqG0ICEGobXdcrlcQEAQEAUFAEKgCAiJSrAJIsokgIAgIAoKAIFDbEBCCUNvuuFyvICAICAKCgCBQBQSEIFQBJNlEEBAEBAFBQBCobQgIQahtd1yuVxAQBAQBQUAQqAICIlKsAkiyiSAgCAgCgoAgUNsQkFkMte2Oy/UKAoKAICAICAJVQECmOVYBJNlEEBAEBAFBQBCobQhonbv28q1QFL5f2y5drlcQEAQEAUFAEBAEdoWAaBDk2RAEBAFB4P+3W4dGAMAgAMRMUZ2lpvvvBg4DI2SF3IsnQIDAEDAIoiBAgAABAgSWQXg/T1w0BAgQIECAAIEWKHzcJXvJGQ1CAAAAAElFTkSuQmCC;clipPath=inset(2.11% 16% 5.63% 17.67%);" parent="1" vertex="1">
                    <mxGeometry x="929.57" y="1162" width="246.07" height="161.99" as="geometry"/>
                </mxCell>
                <mxCell id="115" value="" style="shape=image;verticalLabelPosition=bottom;labelBackgroundColor=default;verticalAlign=top;aspect=fixed;imageAspect=0;image=data:image/png,iVBORw0KGgoAAAANSUhEUgAAAggAAAD2CAYAAACz+38jAAAAAXNSR0IArs4c6QAAIABJREFUeF7sXQeYFFXWPZW6e3pyJucchigiiEiQoGIERVAQYXXVXcUEKqIgGMGsawQDigFQMSAGUMGASJAkoOQ0icmhU4X/u/dVD1HR/VdJr//1V5ie6qpT1e+ed++55yotWnVwdI8f8iURkAhIBCQCEgGJgEQgioDSonUHRzckQZCPhERAIiARkAhIBCQC+xBQWrRq7+ieWImJREAiIBGQCEgEJAISgSoElBat2zu6IQmCfCYkAhIBiYBEQCIgETgggyA1CPKBkAhIBCQCEgGJgETgQASkBkE+ERIBiYBEQCIgEZAIHIKAJAjyoZAISAQkAhIBiYBE4DAEQYoU5WMhEZAISAQkAhIBicBBCEiRonwkJAISAYmAREAiIBE4NIPQvGU7x/DGSWgkAhIBiYBEQCIgEZAIVCGgNG/Z3jG8ss1RPhMSAYmAREAiIBGQCOxDQBolyadBIiARkAhIBCQCEoFDSwxyFoN8KiQCEgGJgERAIiAROBgBRRIE+VBIBCQCEgGJgERAIiAJgnwGJAISAYmAREAiIBE4IgIyg3BEiOQbJAISAYmAREAicPIhIJ0UT757Lq9YIiARkAhIBCQCR0RAdjEcESL5BomAREAiIBGQCJx8CMgSw8l3z+UVSwQkAhIBiYBE4IgIKC1bd3A0w3/EN8o3SAQkAhIBiYBEQCJw8iAgnRRPnnstr1QiIBGQCEgEJAJ/GAGpQfjDUMk3SgQkAhIBiYBE4ORBQGoQTp57La9UIiARkAhIBCQCfxgBpWXL9o4mhzX9YcDkGyUCEgGJgERAInAyICBLDCfDXZbXKBGQCEgEJAISgT+JgNIiOu7ZAaD8yd+Wb5cISAQkAhIBiYBE4IREQGnRqp1jeGIBx5EE4YS8xfKiJAISAYmAREAi8OcR2K/E4ECRKYQ/j6D8DYmAREAiIBGQCJyACPAsBtXw76MGssxwAt5meUkSAYmAREAiIBH4cwgoLVu1d3RvjPgtJgckRpAviYBEQCIgEZAISAROZgSUlJRUp6iohCUIkhyczI+CvHaJgERAIiARkAi4CCgKlKSkJKekpERiIhGQCEgEJAISAYmARKAKAUEQiov5L2RxQT4ZEgGJgERAIiARkAgQAkpycrJTVFQk0ZAISAQkAhIBiYBEQCKwL4MgCYJ8GiQCEgGJgERAIiAROBgBmUGQz4REQCIgEZAISAQkAocgIAmCfCj+JALUCyvVKn8SNPl2iYBEQCJw3CEgCcJxd8vkCUsEJAISAYmAROCvR4C7GIrdLoa//uPkJxwvCCiKAkeYY1S96O/o5Tj0b/rH4j+L94q3if+2/6vLjB5//1+mczjwXPa3+hQfuv/vHXzO+85JZj3+q5sif0kiIBE4aRGQGYST9tYffOEqVAruVD5QRFAGbMBRoUATgdjrQLU02E4M9Bg/VN2GzSTBghkMAiGLSYWiOLAcG4qjcjVCUR3xPj60Avqtw71UVQW9kz/aAVSHzof+bl9Zw1EVaIoOh89Rh+6NheKxAUWHosTADoVhhQqhWGEQT+FPUgHbouMBtmIfQnzkIyARkAhIBCQChyIgCYJ8KlwEFCiK6uoL9u3aOUTrqgjA3lSk12+GjOaNkNm0CVRPIhRbgRkqQ/72jajM3YXindtRvGc37FAFrIgJjYIyH1UEejqe7RCpOCg74WYC6Of0O/ReS3PJiWNSjIet6IDHBz02DrWat4Q/sxYy6jeFJy4Bjk0kwgszXIb8Tauxa8USlO3ZATtUSZQDiq2CEh8OiMSIM5IviYBEQCIgEfhtBCRBkE9HFQKCINAuf1/wpKCqaDp86ZloP3AkGpx+FlLr14MnLhaOo/MunTIFocoKWJXFKNm1Fdk/r8H2pYuxffkPsCsL4ZiWCNJ8WMofHJpBoPBOGQx3w8/h21LdcgJZfuoe+FNqo1Hn3qjdqRuqt2yB+Grp0P1+2DYdj0iMBlVxEC4rQfaa5Vj3wdvYuGA+7GApbMqCOCJD4TgRSRDkcy8RkAhIBI6AgCQI8hERpMANziQmoH07VQdUqFxAUPxJOPvme9FwwAXwxiXBsXTYdgSGz+B0Pb2XywmWJbIDEROB/FzsWvkDvn/1eeT/8hNgVUJlXqDAdDUKB2gLiASoKlRLlBg4IUA7fseBkZCJBl3PRocLL0Va01bQk5KgG17YzE5MqIoGywRU4jeqDduyADOCSM4uLH72Uaz6+C0odgiOTVemw3RMgLMY8iURkAhIBCQCv4WAJAjy2TgsQaBgzbt+rx/N+1+GfmPvgROXBkV34ESCCOUXctAlQqF7vFA8Hjj+GGiaAagaFNWGEwTs0iIsnfkSVnz4KiKF2bCDJmzKUPD/9k/zU6pC5yyDqlhwVB2qJxkJDRvhzOFXo/4Z50CL88HWVOiKDjNiwgqE4ATLEKmoRGVFOXyxHsQkJkH1J8NWPFC1ICq3rMWcO25C/tpl0FQHpqIBNmUR/jshpXxcJAISAYnAyYKAJAgny50+UippvwwCKwVoR29oSKzfCOfd+wTSW54CRY1FpHAX1s+fjeVz3kR5XjZsW4EvJQO1W7RGvVNOQ0qTVkipWw+exAQouh9OmISNFchb/QO+f3M6tn+/COHSQg7QojTgvhQFKhEL+jvVQFyNhmjcewC6XXkVjORM2EQ8iFDYFipzc5G//idkr/4BW1f8iLxft0NRIoCmoXab09Dp8qtRs+Mp0PwGEKrAN88/jx+eeRQepwSVxECYoEgNgnz0JQISAYnA7yEgCYJ8Pg7MIPCfKAPgcPag/eAr0f36MYA/DU5FGL/Mex1fv/AwynNyQAIEx7FEG6KiQfPEI6l2Q9Rq1w4Nz+iPhqd1hePzU0IBMAOozMnGz/M+worZM1G6awscKwhFIUUC1QaonmBDUz1IbNwWna8chUZn9oQnPgNQDCiOiYqcndj6zQJsWfwFdv+8HJWFe+GYYa4WkPaAhI2qNx7JTVvi4omTEd+0HVToqNiyHS+PGoJwzs8wFcvNIEiCIB99iYBEQCIgCYJ8Bv4QAkKHQPkDHarqQEvOQM9bJ6LN+UNgQUfp1s2YN+FfyFn5NSxTtENWZQEo40CfoqhQdC8SajVH3S49cOrlQ5BYqz4c6KwxMCvLsWPxAnz/6n+Qu24p9zbYNvUhAvB5UKNdN/S7ZRwSGzWD6vHBtCxoVgT5a1bj+1dfw46VCxEq2uOWCLgngkWV1D7J6glNBQwdTfsNxLkTHoHi80OptLBw6ngsm/UCVNti/cTh/BL+EEjyTRIBiYBE4CRBQGYQTpIb/Ucuk7oIuLzgaNAVDamtO+LsCVOQ3KQNYDvIXboYs8aMglO8GzY8MJ1wVaCNOhUQyVBo306eBqqB+HpZ6Hf7ONTqeDocNRbQHShWEEW/LMWnUyZgz7Ll0GxAi/Wj/ln90efmSdCTUznQO7YOtagYK2e9hq+mPwezohCwKuDAhOLoTEbov6lcQfJD+lxLUaAZHiQ3bI3hz70BPTMdiuNBeM1SPDHsfCBUDtsxZZPjH3kg5HskAhKBkxoBJTEx0SkpKTmpQZAXL3wRKbirjgaHA6+KRv0vwkUTH4Mdl8glguXTnsGXzzwA3aqA7ehsOrRPRyAogiAI3FEIjTIDmgdaYho6DrkCbS++EjFp1aAZOqxIEBU7N2DBI49g99p1yDrvfJwydCR86elwNC8QNFHy63osmfEC1n06GzDLoWgKdBMIU1kDuit0tLlzgggCZy8UlTSIMJJScMboiWg76FJohh/Otq144rJ+MAt3w3FManaUt10iIBGQCEgEfgcBabUsHw9GQBCEqGsitRJ40eTiYRgw/kHA8EIJlWLGyMHIXbFY7OC5OEDl/MO1C1LLoiaCODVKKja02AQ0PWsAOl02EunN2jAJIE9FKy8P679dgvpduiImPQPQw3ACAez8dgm+nf4k8tZ9D8sKsaaQ2iSJcwixIpUVXL0hcQOO96SFEDdU8XjR/orR6HHDGOg+PyK5uXjxynNRtm0jHHtf5kPefomAREAiIBE4PAKyxCCfjAMIArkfOJoFVfGg2SXX4Zxxk7k7QCnKwdOD+iCweytHZa79syvi4Xbi5MpIBIHUiZSLICGiAy0mFpmtOqLLVTegXrczofrIGtmBY2mATmJHEwiGsfHj9/DdjGdRsPln0UpJ2giLXBlsOIoFm9kAmSUIruByA6GfYLdE6pjU0frCUeg7ZjIQ74FTUoy3bxqFXUu+hGORBkG2OcpHXyIgEZAI/B4CSkpKilNYWChROskREAJDN7CT2RBUtBl2K3reMg6apgE5u/D4xT1gFeUJUyQlwi2Jh5omi2wEmSCSloF39DQEgbITls7agrh6jdDr5glodGZ/OB4dhh6BGbKhWBGsnzULnz/5MILFOzjDQMdQKJYrNgyHMheUvwAsdn10hZHUTSEuQHwWlTpUL1r2vxz973oISooXVmkRFj48CStnvwrHpCNIgnCSP/Ly8iUCEoEjICAzCPIR2ZdBiPofKCpUTUXWyLE4a/QdrDewdm7GM4N7wSzN4928sEwWw5kOeZGWge0QqXPBgqPZUGwDiq2xbsGbXgunX3872l54KfS4GC5D2BHArizDpw9NwIYPZsEOlsBSwjzrgWwVhT3zwZMdD/fR7sRJxYOsfpfgnHunwk6Kg1VhYvFjk/DjjCdgW2S1LF8SAYmAREAi8LsZhOTkZKeoqEiidJIjEBUpismJKjRdR5tRY9DrhrHscGjt3oZnLumNcHE2Dz76fYIgMggkeLQ5K0HiR4Xtk43EBLQfPAodhlyLmIwMblG0iDzQlEUrAK2oGJ9MmYz1n78PK1TMlsiqo8L8s9bIqo7WfYkgPAo7MQF2ZQSLn5iEpa89CccKn+R3W16+REAiIBE4MgJSpHhkjE6Kd0RLDKJAQHOPNLS+4ib0vW08FM2AnZeDZwb2QiB/hxjmRDqE3xmdTBUASiJQO6LuUPuhBS0pGS3PvgRdrr4BvpQ64rihYpTm5iGpei3Ao/P0h8pt27Hg0anYuOh97p6ASTMYqSzwJzoPVA2t+l2Kcyc+CjshAXYghMWPTcbSN54GaBS0dFI8KZ5reZESAYnAf4+ALDH899idcL8ZnebIJEHT0GTgtRgwbiI0wwunqBDPDTkHZdvWQeHdPI1P/o0SA2kDVCEYpLICZwd0HdW79sXACY/Ak14bFnUhmBHs+Go2ls77CB0GXYkGXXsBagSIaNi76ifMf2gc8jYuZ8dFxyZSQlLHqOPCEeDXNLQ6dyj63TUFSIiHUlmG+feOw9oP3+RMBY+hlC+JgERAIiAR+E0EJEGQD0cVAtR5IF7kXKSjyXlX49y774Xu9yFSUITXRg1Gwc9LaR6j6B4gi+XDpf6pvOCOVybRoGLoSG3dFpfd/yz0ao2g6AY028beFYvwxm0jECkpRe0O/dFz9DiktmgG6o7UIhFs+uwjzJ9yBwJ5O6mrUZAEfh05k6AaHmQNvApn3XofEBsDu2wvZt34L+xY8gVgB/7QMeSjIRGQCEgETmYEJEE4me/+QdceJQjUKeBoKhqfPRLn33s/FJ8XamUQr197BXYvXQAFYWIHwlDpsNoAckmgDAJlGRQk1m+KPmPuRu0uZ0HTvLDtMApWrcK8KXehdO0PCFMDoxqLJj36o8etdyKhVm045MRYGcDyV/6DxS89BrOyxG2vdFscj0AUNK8X7YbdgJ7/uhuKV4NVtAcvDR+K0l9Xw3GCB02SlA+BREAiIBGQCByMgCQI8pkQCNCuXzHcvbkFRdXR6MxBuPChR4HYeDhmBD89OxWfP/sQdx2otg5bdXUBPJZBiBGjiXv6LyozeOKro+Owa9DxipHwJCbBNskh8Vd89dRUbPnuE+jBAGxFg6lGoHr9aDVgOPrcPAZISAAcDSgpxNdPPYIf33oJsCrhONQhYbhdDaLtUeQTHDZTEvMkyOcpBh1GjUX3q8dAMRSYOdvw/OUXILhnK2wn4v7WkTMRx8zj4XaGKDQFU/SOHtSq+SeuJTq5k45CRIzQE92hUHjolUvCqg7p/pA9J/5gieeYAU6eCH+9XYOQqrtHbciKA1VV4FjRG+2aiIhvkwROIgApUpQPgQio5I2oeLnTwEEImqIjvXVXnPfA40hu2Ay2ZSN7/my8PvZaKJYJWFQHCHFkiQZp7myMtiLSTEg1DnV6nY8Bd0yAJ70mWyDbpXvx/UtPY+W7byBSmQs4ov0ROgVtQPfVQadR/0Tn4VdCM2JhWREEdm/GFw9MwK/fzAcQBBydJQQaWS67Hgh0FlSBIHEkLXzepHT0uOVBtDrvMp7/EN66Fs9edg7MsiI4NvkrHF8aBMru6KoG1bFhanFw4OUR1xzOqUeURZyuwNQlAPwzd53fJ0IlF0qXETIhoD/YriUlmVWJyZiMJXWhcLAQplgk7JRh4/hbMNghlcuBCguMBcmjL70t7rfFE1hgsqjYpdvsYyLv9vF3t/+3ZywzCP9bPI/bowmC4GGXQsoG2IqKuDpN0euO+9D4jB5QFQ0Fy77GG9cNQbi8AA4FdZVaEBXYKs1c0ACDAhjtbB043hjE1miO65+fDjMpHZrXzwSh6JeN+HHmC7DDxfDE+uDxJcOJqFBUE5FgJcoqgLjU2mh1wTnIaNJYLGpWENu+XoDPnnoYlblbYQUEmUCYSh0h106RuirIIEkFuT8nNWyKEc/Pgr9BQ5iREHZ/+RnevGEknAjZNh+PTooaVFWDNyEVF4y8Cf6MmtzxYZPPBAHrLvs0G8N2yc8Be30mT8TgRAdKOGTCjoQRKN6LdauXY8+WzTDLy+CEA1CtEDSbDKlMmBRYiD5SScmxmCzI1/GGAHUH0fA08UQIckxkQRBF9iyhzJE7Cl3oiyRBON7u8l9xvjKD8FegehweU1F0kYak0YomGRwZ0PypOP3m8egw6DJANVC8cQXm3HINSnO3wIiNgS8mGZ74ZPgSkqD745FSty5q1m8AT1wSfKmZiK1ZG/706lA0D1SPGK5kByqh0o5XofKABtPWOVvhkBJBjUBxDDhUQtBp0aLtjSZ2vGYAldm7ULxtJyKl5agsL8bu9WtRkrcT4YoKRCrLECotQqCkgP87tUUnDH/uTejpSXBCZfj2mWex9IXHQY5MEdIg/FlfhaN8TxkKw4v4mg1x6zOvIa1hC2FhTQMqyKraMcTcCx5a9RsnS9kelaggsQUqAVlwLJMzMTQGe/umTdi5cT2Wf7kQ+b9sRP7OTbCsAJdkNDKrcogeyF3lUX4U/vTHiwkrOiy3fBStMBHpoxcXkHQHKmUXuNxAZacokfjTHyd/4QRCQBKEE+hm/n8uhQWKNCpZobS9zkll1efDqVffhE7D/wUjNhHBvfn4+ZO5CJcVwJ9RDQmptRGXmYmE9HTosTHsawDqXmATBFXYHlMXA6X9yVyJjq+psCI85kkMV6JYpdFCZbvDl2yousobXdu02bCJiQWlBdhVUZQ04IShwGIb5oriYpTnZaMyPwdFu7ejNHcPlPh0dB1+PVSvAidQiLeu/zeyl34CVbVgWtSeGZ3jcHwEPDaWVlTE1miIMdPeRkrj1lBsBzYROl7o3Wmaf+RyKNMiRm2JR4ZTz1yUhuaYMEMVyP51PdZ98yW+mD0TZdk7oNphUOyQaef/z7fs6PwuG5W5o0vototsIeUUdPEMGQosJQLVpGdJhUXZIv56HM5I/ehcg/zUo4OAJAhHB/dj8FNVXjTEeCUF8KfAk5SMdoOGotMV18CXmISICZhlZdANhX0NFKqD08rjjnjm3yR+wHoAIga0KhHhCLHI0bHJH4FmMpAwSkx5BKU1eb+i0whGHtjEhMEWHRAO7ZCpbKH7BKGwHerA5DHT4nhiD0Q7H0qZ0t4nFArBMk144pOYEFglRXjr3zcib/23QLgUVpjEjm6t9Tips/I4a1VFXI36uG36W0htSARBA1V6CD3e/fGyzoD87osEpKRloJIMlQ8IZ+o74Ttn0fFMzi6okUpsXb4EH73wDH7+dhEcM7BPwCgzCUeC+Zj5OY9g11RBrllcogE0TdWIQ0x8Klqf2g7JcTo+m/UOFDPMWgSehXbYSa3HzGXJE/kbEJAahL8B5KP1EUKYdOCWMqry57C6348omKtqDNTYBCTWa4y2/QeiRtsspDVoCsQkwOPzicmNNu3wTVa7WyYtOqYI1LwZpaCjQtFpQaL3emEFQyhevwy561agOK8Ye7O3oXRvNgKFxSysI0JgmypsU+dqgubzw5eQgqRq1ZBepxYS0zLQoFsP6Bk1Ac3D9XZNs+EEg7ApE+Hx8GhpCnL8ot0xTZKkwMlpCGrFNGEV52D38h+x8YsvsfG7eQgV74UTCYpzdoGI4iX+vf9d+yPb8r/6LpOQU0dC9Tq4bdobSG2YBYU6STQhERV7vt/rMNhXd2BJWpUYzS050DEcGoJFvI0IB73fhO4EUfTLz5jxwGT8vGQhbIswc6E+zPP1V6Mgj/9fIKCQNogIOBFuBXp8Mjr16o+sbt3QrN1piE1NRP7GVRg/fBicigLYruBVZov+C6xPsF+RBOEEu6EcIyl1yIuBxRMROTXPL9piCxEh7crpfdANqJ4YJNaohfRWbZDV93zUan8aVF8ceyHQbp26BkgHJ4K+hVBpASKlxbDLA6gsykPups0oz81F3p5tqNXxDJxy6WVQfTqssIaKjevw0eSbkLNqBUxOYwfdGrgmdqN0XDf+soMz/YGDPBfdofhiUb1tFwx68HEYaRkAPDDLC7F4+tMI5+xBfHoy4jIboVrTZjD8cfAmxMGTnA5PXBwHQc3QmUhYdhB2KATDMVC6Zyt2Lf0OK+fPQemezajMz4cTorIDZTUII0VcLwVcFnTtE/4drceFd4EwEFujDm6fPgtJjZtx1kVMvqbgLvB0SMdBpIgSyXwRgjjwtdB1UWaHBWj0txQ4SFdAehD21+YpnuIZItJhgYpNumVi5YIFeOP+cSjZswmOE3ZHbFPGwc3EyMa4o/Vo7EfY6L5TZs+9d8wXdcTVqoX4lGpo0aEzmnfpjpadu8LSvXAUDQ6NcnciyF/9EyZcfgGsYIkg7g4pXCi7J18nMwKSIJyId59qjiLRL9LH1Bbo7q6595myAJoHelIyMpq0Qe2O3dCkay+kN24GeDUoOgUbmzUAIkjSYEYfNM2BE6rEug8/wJavP8T2FUthBcphmxYs20Jio3a45KEnkNiwGQcjp7IMS56egiVvvggrUMadDqwr4AWMtqq0uxdjpqvCDGsgXPEU/0yFkZSO7tfehDYXXw74kqBrDrKXfoZ5k+5B4baNgBoL3R+LuNQU1GjVBqddeS0Sm7WASkOmTOq0cLg7Q9UMLnuQitshFX9JIbYt+xZbvl+InSt+QMmuzW4phNrCSPJn8m6a0KTAygr+o2QDwK1q0BFXow5umz4LKYchCKL3k1pQqVSkAGaYgz4TsSgLY8kBmVxR1oUyQK4wVRHumIJo6Dxngyy1qY1UJwzCAbwzdRIWvvEqgHJOV7Manr0RpDbhWFhGRJmItD709bOhKaQnMHDD1EfRoEtPxCSnw1Q8cBR9355BVaFZEeSvWomJV0iCcCzcx2PpHCRBOJbuxv/wXDhAEEXgdLubfuYpjAo03Yf4Bk3Q/uJLUe/U7kipUx8Op+rFVEU24ykrR96Gjdixdg0CoSA6Dx0GPT4WmuPgh2nTsOSl+xCq3AvNLViqiRnoP3YKGvc9F47HD80OY/tX7+Pde25ApKRE6OHIlIeCDe9i9+1ueUUjoRxfv1BQU81CVMjFzjaleRb63DIZNTueCccwYRbl4ofnnsDy2a8hEgxQSBNTKNMbY9gLbyCuYSP+3cjeHCyfOxdptaujWrNWSKxdHaZCHgKUcqVdtolwyV7k/7wSGxZ+gvULPuU/K6GAaOvjUyMiI3wAjt6LRGUG4mrWxpjps5DsEoSouRGbSrG01GKNhxIOYtOSRbDMENeSmeA4DnSPgYTkFFSv2wgaTbk0fLCYshFPo/ZPIgkeIWAkPwQrwroU3XGw95fVmDhkOMIVu6BSqyjpQNwMxdHF5ujdlWPpkwXpFjNQ6H4QQbYVH56c9yk8jdsy8bMoc6iI7ACVCXk9MMOSIBxLN/IYOhdJEI6hm/G/OhWRLqbWAVIMWmx8I1oGvTBSauK0i0ag5fkXwkirDt0fJxzVKBhGggjt3YM9y37Ad2+/ifI9OxEsL4KakorrXpkDvWZdTj2Wb/gZr189FGV7f+GRzo5uoG7P83DR5KegxscLMpCTg5dvGIiCDctY/GibUSGcCLh8XrSI0S5UsWGRMJHWK3qf6pB0QAQt+jEFcm8c2lx4JbpcexOM5Hh4FAP5a5bjk0ljsGfDT/A6FizFQEa7Hrjo0acRm1EbiISw5r2Z+PKph9gx0IipjppZzdH+vAHIyGoH3Z8Mk0iFRol1G4G9e1G4ZiUWzXgB2auXQqksFdkG2oxz/eOPTIH4X93Fg49DIlKdSwxjX56NlEZNuQBAjSIcFyglrFDLIqBZKir27sK9gwfCLMtxLapFpob+UXUP/CmZ6NyvD86+ahQsfwoiDglEbe6J5yQJCxjpJfQNdK+0UDnuumAQ9m5aAQU08MpkSsLvOqrk6a/C/Pg6LqtJ9m9xpdZlLRFT3/8I/qatudxAg07YNYO0K3SPKUNkBbF39SpMvPwCmMESnrUiSwzH173/q85WEoS/CtmjfFzqFiCJu0b7QxL1GQmIq9Ua3a+7CQ16doEam8KLgBMJwwyUIZi3E2s+fBcbv/wSxds2wDIreIeh2iq0+FScc/cTqNv7bBgeL5yyQswZOxpbv/oAmu5BTK16uOThp5DcsjOASjilFfjisalY895zbHIkpkOrZNzGffuUxlYUA6rXB0+8lw2XbDuCcHkISpj+O8zchgWPEVrUyJQJ8KRlYuD9j6FWt55Q9Bg4pUF88+IT+OHVR2FXBgAjHufeOQnNBg2Ekm6cAAAgAElEQVSBYyhQKkuw8PH7sWLmNCYLDgweBAWPHzVbdcQplw5H7banQk9Kh+rVoRtebvEL5+7C4unPY/3892AX58GkHTiLGY/mTRUW079NEKhaYLP+QLMcNpQac3YP2JX5VfLFA86eSjdeD2q164xR9z6ChLrNeMAWCTpJyCYyA+IVbaLUzACmjRuHFe+/DscqqzLckQ6LR/O52PfZXGIQI1RFyzAVmvRETHn/Q8Q2zxLdSfSdp64gLj0Rl7eg2yHkr16Ne6UG4di4kcfQWUiCcAzdjP/lqfDoZkeDSm2DXj/qdeuLLsOuRWbWKVC9Xl4szIpSFGxai60L52HVJx+isjAPdoDcCU04GgUb2uUTz4hBWodzMOzZF6DGebgzIfurBXjn9n/wgtT+slE4beS/ocals+o9d+lizH9wAvK2r4UWoV0m7W1oJ24DuhdxqTWQ1jgLKU1aoX6rFqSTRHlBAbJ/3YKcNWuwd8tahCsKhPEPjYum0KXTvkZDZvvTMfy5V+H4EmBZKpzcXZhx8xAU/LwWiXWaoM/4B1D3tO5wbBPFmzfgi8l3YtcPX8OmrAQdiTIeXIM3ofnjUa1lR2SdPRC1O3dDQs2aUA2D50U4ZSVYOXc2Vs1+HcVb1sEyg6KL42iJELh3/bcIgnC/pGvie24rCO7ZgFuZIBTuF+ijnR5iloNmR+DExKLbZdfggn+PgTchUWhP3OAhOhncHILiwLAC2PDV53jmnyNgo4J8HLmcQS9poPS//Pb+N8eizI/wMhGeInRHiCAkYMrcefA3beuWy1wfLfY64G8ldNIgrP0J9w79IxqEoyTC+W8gkb/z/0ZAEoT/N4TH3gGEn74rBaRdYqez0Gv0HUht3JRdDckjwCrci5/nzcGaeXNQ8MsvsM1K0ffM+gAFlkNOe2L/SOI+Pbk2hv3ndSS1aAFV02Dm5eCVq4fBE6Oi163jUb3DqZyKDuzZjcVPPoR1H8/hoMpWzK5oytHjkNLsVHS9YgRqtGmD2MzqUHRqXaQAR4K4CPK3bMf2RZ9gzYfvoHD7ejgmpUGJIpAeQIXiT0a3a25HxytHsTeCEg5hx9cf492Jt6FZzz4488bxiMmoCTtYiU2ffIhPH7gdZkk2ItTGyT4KYvekUHCknZamw0jMQK12p6DdBZei/um9AR9pFDSY5UHs/PZzLH72AeT/soY1gGQrLc6VhIu0vP5d1sO/RRDEbl/s8sUMBSoHhHM249Y+XWBXluxXKogSBLqvmlB7aBqqNe2AKydMQZ32beGoGmwyVzjYjpHuoR1G5bb1uK3PGTwTgzTuwn/BDRrcGeH6NkV1JVwPF2p4/hlltqLDpqg3n40f9ws6bAUtnkPx1+Lf4hmgLoyoW+R+Y6OoLMJ2GdTnL6aMclmKy0N0j1xvCDcpwh0y/HALG+mqFAlfiWiLpQ4QRsv1lxAiXzEgSwhXKWPjun3ye3/7SRCoR4O3Kxh1yIvCHXDG3TvCXIz8Cigjw3G+iqAJe2xB1ghzwkc8d/wW+oIpRAc0Jnf0syrZryceU97/DDGN6N66RxAXJkSpfMUm8lYtw6Rhl8AmG3WFLLUF0RDvIVJNHVEi6yDu51FNpx17i+4JekbSKOkEvLG0OGpkKqAbSGjSCpc9NA0xdRsIF8NwJdSCbMx96AHsXLoYoZK9cJwQLxTUiXDwF59375oOSzfQ7orR6HXDWGg+H6xgGda9Nxt7c/ag68h/QvUnQFMD2PPV5/jw3vHsvqeAhggpQj+neJHUojMGjn8I8Q2aQ/OS+REJKDVe61hURRY9YQV2IAc7v12ARc8+iYLN61kMR+SBU98w4K+dhSFP/QfJjVqKts2yEnzx1P1IbdIcbc4fCiMmBqHibCx+5EGsmP0yVIuCmbvgRQcViRwsZxPIuRGaioSajdDy3MvQYdAl8KbWQCSiQItQ18Y7+P7Fx1CWvctdwMNQLCIIRFr+LvHi7xEEd5/PWQQbmmMjnLsNN/XuBLuy7NDFnII93xSKWwq8STUwYvJjaN2rD2AQYTu82RJ5VoR2/oKbep4GFWFYHCjp3uxX+I52pHCEE4GLG2s18tkwoOhxSKvdCFmdT0ViZjpSMtKhEP7k2xe2kL8nG3s2bcamtT+hcM82qHYIDplt2fScCL1K1bAhEa4E4ePOXRuqZQMquW9StsiCQ06a7CZFk0oNOKoXSdVroVGL5kirWQNJGRlITEuG5jUEUYWCwtw8lOblY8cvP2Pjyh9gBSrhWBE3KFM7LGky3O4b1mzQwCxuhj3MakJkhdqORZ5FMCVBiDUS7SoGLEeHHpuEhq3aokGrlohPS0NiWhp/70SABsLBEAoLClBRUIgta1di15YNbCluR4JQI5T1iUBXdISNGM40UXmQzys2Ho+8Ox9GjYZu79C+eyXslOk8Ishftxr3j7yGTcWEMacQC/NwJ8okmiV83WTXDJ5lIgnCCRg6DrkkSRBOxLvMC6YGb3pNDH/kZcS0bgN/vBdm0ETJumWYeeftCGxbB9umQUc8zk30+h+m7VnUNVWomoK0tj0w9KmXoaVkQLNDCBcWIhCOIDazBmsE7JKd+ODO0TxYybaoPGHCogCseeCr1RBX/ec5xDZoA5PbLqmbQpQPuHOBBw5ZMMMqDMOGU1mJ715+CUtffQwW7WqiHgVUIlBjkXXZcPQdO55V+FyJqCxgPQSMJJDjc8nmn/D61VchkLOZSyU2lxbojUJ0GN3qcmiiMdVkIEO7PG8CWg4YiDP/eQM81eow0bJLi/HpI/di9ZwZ0O0ILCJUbMDkivn+lsmQf4Ag0O5Z3Y8gnNUJdsVhCAKHQdKBiCq0HpeGEfc/gTZ9zwODdxg3Rg7FVgjlv67FHef1guJQyYVpJTTKErlOjFVhgyIoCeBUMsDyQY9PRZseZ+H8f1yNzHoNYdoUrOleUraKxg7TAySmCWoIQ4kEsGnVj/hy9iys/PIzhEuLuD9fDBpigcp+1R43m0BGWzRplHbT1FJL91n3Q/Umoe3pZ6BZ59PR49wLYBl+2HSdnAEgYiFaX1nAyfMIqBWXcwlApByfz34bn70+HcU7tgBmJSzuABACWsqI8EAxQvKw8z2IIPjYmRIgIi5aSRXNCyM+EXWz2qH3xYOQ1bU7NF88QkRmNOooIrEMZUHEkC3OelB2hQSE4QAixflY8fXneHnqZKCsiA3LlNgkTFu4BE5corBLNi0eoBaCl4eniXzBfoGdOTJlkSzoTgTeMM31oNEeNA+FFsYQt0DGRkIY0rkN7FAZi4q5v0gShBMxchxKEJKTk52iIvryydeJggClx8n8qPn5l6HH9RPgzUyGaoVR/PNqzHvobuT+tBKKXQGLPQdoldA4kFPd/uAXrROGasBSbHjT66LLtePQbuBg3nnqPjIh4i0R7FAldi/4ELPvGg2noti1WKGw4UD1paLbv29E2yFXQfenipZGWvRcfwEmCFwTNaERuVGBcKUJtaQAM28ZjrwVi2CatChHw5CGuLot0PfO+1Gn65lQvD7ADDGRIVdGhCuwYdY0zHtoPO29OAVLwiyOKbzr31cx30+LxwuyTinauCS0PncQeo6+E058Co2UQtnGNZhx/QhU5mzjzAjDRos5ZxD+jpTrkQgCpb6JIDhVGYSbe58Kq7L0MOlgoUHg2VyODU9KdYx44Gm06tGfs06HW/w5tW0G8NWrL+GdB++CooSFgyYNeiKpG2+RxdRHN1yy0VZy9Tpo0r4bzr3qWmQ0bcmZKIvHDKuwqB0zGvwoUPMsACr72FCpJBShKeAhbF25FJ+89gLWfrcQ4coSbrUlGsEte/zAktETmUSpHOA5CBoxaHZqV3S7cDAatu2MpOrVYBk6IuTEafjgRP2EXavwaBtr9Ny53ZfKMJSQMEOIFOViwZyZ+OqdN1C0exvvouk99Nyy8E8MTD7M94eCu2gf5tKJoiExszrqtuuKPlf8Aw3bd2Ay4Dj0lDmcTRGx1/U04CDuTl90SwpMxyIRxERKMe6KS7Fn1TLuPFDjUvDMl0uBxHTuzolqd8giPcr59sv1uOdKHiFWFUHj7woreVmlxPc3NliBkR2b8QRW+mwidDJ/cKJEi9+/DplBOAHvMy26MZnV0PuWB9Ds7Et4h0DagEVPPIz1n86CFQrz9D5aGMQUF7Eg2A6tJId+9Q3aJ9JCrseg2dmXo/eYO+FJSYfH74UVMXmn4uTnYdqIwSjaulrYL/OiZkFXVcTUaIp+Ex9E3U69OQAJd0aRxhYLsyAZ4v+bPKeeiUc4gg1zX8G8SWPgRGgCpKjfckekkYhWFwzH6dffIjIYVDfWVViUFMnfhpeuHIKybSvEDi9qiBgVS5KeYb/7ziSBa90UsKhjQoPijUe3f9yOjsP/AdWjAcEKfDJpPDZ+/AYsnklAwZEHLrup5796yfx9DQIv6AcRhFt6nwYrQM54bv26atdHQYv2yKJnPr1pKwyf9ATqZXVmTYIwSTroi+E4MEJleOjqYdiyZCETLyII9KIBT0wQ6N4QaVA8LEat3qwlzh51HTqddTbCqheW6hEzAZg+0j3gwR1V53dg8luIbElH4CHyV1GK96c9g8/feAmoKGKNQIjndYgWXXHCFGiplKHBSMrEfe+8j/iajWHpZPwkzi/6GRzYRY7APYeqn7jHcmd7iNSJOxgshLULPsX0iZMQKNgJKIEqO28hYI3+Q4/SvqvR2KyM+k9jULfNKegz7Cpk9eoHx0stxrRbdzMZrmxQDCMjnAgfoQOIvljoS6TbBmLCZbhj8EXIWbucz9GIS8bjXy6FmlQNFs9eECUneq9b4zhktatChP0+SMsh5jUw+aHftQB/uALDsxpAd8p5YNfhSykn4EIqLwmSIJyADwEFufSWbXDW7Y+iJosHbexY9Ak+unssKvJ3uJMMaUdOO04VqhjTxy1Phwtz0X0aBc64uk0x4J6HUbNzD84iUN+8Ewhh+cxXsWjKeFhWORxKUVpi9wHDQIPT++OsO+5DbM3G0DxCHCbIwT7weUHl06BBQWEOYFZYgbntJzx5UW84NGBJTLUXdVHdh4S6jXDBxKlIa3MGVIPStgqUSAgrX38en025D4jQ7pkWX2ElTLs0IXjbV0sRWQX3ZFSaZkkiPSH8S2jUBlc+9zq8NerxZ5YuX4IXR54HxwxynV6kW4ki/NXkQESx3+piiEoABEGgEoODcO5W/C5BUFXoZKHt8aDb4GG4aPRdMGLTARrExeWeg182lILduPXc3gjt3cmeC4QB3ROd/BCi7XV0plo8GrY/HZfdejvSm7WG6osVDpbuREFhhCWuiQPnAS83WEbr/C62imlCqSjH/FefwycvPwm7ooTvE4VuKmXR8WwYbkregZFcHZPf+xT+Go3E55DpkyuIrLL2/g2pHe/2+QGNenfwvHEmCQgEkLdyFe6/YRQipXsAasnljiF6rvbhdgBBoPKJ5sOpZw9C3yuvQUbzVoDXgMliQyr1UIbLtTZzrb2jFtkH+Bq42REmp7YCf7gct192PvLW/MjPqychA49+vhRaYhpzfsciK2VhZ/7bI7zo52JGA3c/sgBXZNm408XS4A2XYURWPWhOBRMwEufK18mBgCQIJ+J9VnTU7tQLfSc+irSGjWAGFWx772l8eP/dnD2gMa5cR+UkpNBf03rt2uofgggRDqG4Jk8EP864bhxaXzICmt/Ptd7Q7jy89e9R2Lt+MRQnQCN++GAi7etFu4GXo+fYe6HEpgj9GNfv3RkR0RSz+6kcvG3ybtC4xm3nbMbTF57BYkpW3tOoZtrlk2gt1kHWhcPQ46Yp0H3xXOdVKvZixtWDkb1qKS+MOn2WGmR7aXaS48DEIwv3tX25Y4w9tIyqMTARgW2b8CanoPuYSci68Ao2mVG278DUi9pDCVHZgna3VNagOQ1/h6b7SCUG0nyQWRKVGIBw7paDCMK+AU28Q2UyFIP0Rs3xz4enolrzTjBJyEeleTec0HPCMyBogqZl4aMXn8DHj0/mUkPU51IQBB7UAVulQK0hJr0BpsycC7VmTZgaaet1WK6LpqAUImsU9c6M8isxhyOqC6CSuztPgtttRRlHKy/DO49MwOI5MxAOUdAWZQ4RSD2cSdKoHJZaDRM/+BT+zGZMXmgXLSYZ8q0TnR+ulTR/B1jgKXb+FKwJx2hrrkhcUdpLEBotXIb18z/Af24fDTNSwoE1GjP3H/wVTU44igcZLTpi8ow5iPgTxfNL3xJDA2kqbe5gEAMyBGFy52EckDlwOUuUMNkqfKFSjBtyDnLXLOHr8iRm4JFPl8JIShVJQdMQmQQ2ujp0oRNEzYJm6qzBoX/EoC7SJZDewwDdUq9ZgpFt6kJBBRyaxCoJwokYNQ57TbLN8US81SoRhJ7oO2EqUho0hBXUsGPeS/hgwliYITIucpd39ven5VosvoclCO4seY0mB1J9OzEeZ153J1oNHAE9zst12sieQrxz63XIXjmf7Xoti9oIac2j2QAetLlgMHrdPhlqQjqvfaJuK4AXO62o0EuUJSiLoJI5gglEsjfimYt7IlRUwO2VvJNUPXBowY7V0fHyUejyj3ugGTFQ9AgQKMbbN47Ajh++YJMlFpApNJPAhkbjkbluLMRZPAPCzSDQwk6lFEX1wiQfCAoyyXXQ/96paNyrN2zHgL1lCx4bdAqUEC2eOjTWbNDEhqOXQRAjrokEUdsm1csNDpJWzhaM7t8ddkWh2FWzMJ0IhLhgw+9HRsNmGHzreDTu0A2W5mM3S+4EYBtLOialxUPQghFU7s7Bs7eMxOaVP7D5FtHLaKCg42pk6+tYiE+tgSvvn4JWZ56HiJssop29qNOT9sDk4ztBE2agGJWlBTAD5XxuPn8S/MlpUKhLhoYJ8c2xOUNBgdPSRfDa8eNyTBt7I/buXCMyQ5yFp2dKdGYoigVvWjVMeO8LxFdrIFJVXEqzgWAAFcWFiAQqYIeDcCIhETypfdXn5xHhCWkZMDV6sg129LSIcZHDJ2WNCCMnjLIdW/D0v0Yib/0ykNMHVwRYl+Im7VlLIyaiZDTpgIkvvQIrLRO2Fiu6Bwln1WKybCuuUbht8gwF4YJKGSoLjhkW+gCVNBfCMIx28JptwBsuwp3DBiBn9RLWfqj+RDz15TIoidUEdrZKE9SF/kawn4NyJqSaiEC3vOSlzc8N00PTFfS6Ez5jzFKMaNcMsIp53KcYLP53PPMn4uJ8fF2TzCAcX/frD50tLUw07a/3HQ+hfuee/GXOWboYH999K0p2boTNamharEU/OC18VOulZf/QL77Y5/EuS1WR2LAlzr3nYdQ45QxefGjRtSvCWPfu2/hk8hhWt3NtmgcHsTURqrfvjr7jH0Byg1ZQPdTyJXq9owThAFEci9SCYoRzUEflxiV4ZnA/IBzmRZ5FcZRZ0PxIbkzn8iAyWneGQiUGWlcjYexc8CFm3X4DnMoiIWRzU9Aih0oEwe0hp6Ahus7cIEJxQueUKy3aSU27YuSLr0BNTYZimdg8by7m3PkPqLbJu1vKSggvur9jsTx8BkEEfwog1IZHntA0Y8JCOG8HnrjxGoTK8uFYog2POjK8sTFIyshEg6yO6Nz/PCTUrsvkgDMAFJxUGsFNvEdoAFhfUJKP+S/+B5/NeBbhQJnIDLlZl+g9VGmnavgw6Prb0GfU9QjqccLzIDpRw50VQTMcvFYEO1atxHfz38eGFUu4ndHjjUFmnUZo2aU7Ovc7H/G1G8DUhHZA4zZXEf9t24YnHMKbD9yNr2e+KGZCREVz7LlB5mAKvOk1MGHOAiRWqw3FDKI4Zxe2r12B3evXYdev65G9fSsK83MRqQzAMU02yIpLS0eD1q3R8cw+6NBvAJSYJETIp8NlIew86k41VSpK8NUrz+C9Jx/iFkh+BkS/rhiVTUIb+r5k1sA/730M9buejrCHorVXmEuxBpF0QO5sEvo7h7wsTYSK8lG0ayd2bP4FVigoND2kq4iJR/V69ZFSqzb8iWnw2iHcMViUGFhNEROP8a/OghKXLEppFn1PFGTUbSCcR6PdO9FsHREb3YYS0uFEylCUvVOQc7r39D1hfwcFHrsSY8/vD82q4OdeEoQ/tAyfEG+SGYQT4jYeeBEU+L2pKTjrtslofs5QOF4PIvl5WPLCo1g+ezqciqCbNRA7H4VSy1SKdEgZeGiwox0qZUUdzYfm5w5Dr9vu5DSmEePlgG1FLJh5+Xj16qEo+mUFHMs1ctFIPKbAm9II597zAOqefhaXJaLjhveRhP3TpyRCtEDdak4wgqUvPYxvXniIRzZzb7djQddV2Hoi2l52LU67+kb4U+NgkwCO0rVhB05xHt688SrkrVjoLtzU96/A5J71qBBzn2/9PpGiziSDyYa3Ji6c8ATq9ezOmWu1sgSzxtyIbV/NEwSBuhdYpPf35A9+V4PAOguLHRS5fEOxPViCvE2/csaoqp4CFd4YH+KTk+FPzYRteKDqlA+IdgxSSUjMx9A4YFFqPoDv57yBD/7zKIqzt4vsU9S0Zz/9AGV3GrTvjKsffBpxtZuwoRSo/58oFHUt2KIjQLeD2Lr0K7w19T7s3Liap2dyfy1nc1TovgRk9TgXV917H5SEJNgK3VdXQOq2NtJzWrppNe65+HxYgfwqMyN6iigtztmI1Gq47515iIuPx9fz5mL1ooXYvmYZKvbm8jPEHFYIB6rMwYSltwe+xGRc+K9bcMYlVyDkTeAppJqrW6GdOJmIeR0T37/3Bt5+YDzCJeRWKQyWouU6blNU/eg26BJcdPN4qMmpfF+o4ELkiwotlJGjbAd1xZB/gxoxseLzz7D8s49RsG0DsndtQ4QJgsV+IYY3Buk16iCzfnO07tYDXc7sgrv/MRI5a5exkRj5LdRq2Qma18PCZOrU0Lyx+PcDU+Gp3sDNHu1bK8R4cBMey0DRlvV4ceJd3MoozKaEJ4Rotwxh24rvoVhh7o5wmyNPwJVTXtLBCMgMwgn4TNBQH9oRNeozAL1ueQC+arWgqxYC23/Fx5PuxPbvF0OxK2Fxi5pwcWNt9OGMEGjpUzSe56Cn10O3GyYg67xBIvUb44UTsni3RCLCoh8XY8a/h8GsKBYtgGqYA4WupaH9JVfi1GuvQUz1mqDcMy8/PHmOFlahQudATUQkAoQDFpSCbMz49xAU/LJcdIgppsiEqiqSG3dAn3EPoUanU6FSjlj1wArTsCENZjCAvEUf4q07roNFvdtszEclEtFxIARY+yYgi7ozNzmymZQTm4RuV92G9sOvgh7rhxUJY++yRXhn7LUI5udB4R2jEHHtL3j8ax8l0S4XX6Mubps+GymNm5CDAafHWUVCan5LlIxoA8gBw9VaRGv9wila5P2Z4LhlFqq1s9cFtw4S1yCXPwuGWYklc9/GW4/dj0BRjrCgPkz/O+GnGzEYeNMd6DliNCIG9dwT6KK2blMmyVKgmzYKtm3Es3dchz2rl4sOANqxMmkTWRvqRFBjkjFk3D3oMnAIHC2GKStfH7Ww8ogRB55wKW4/tx+KNq8QAZ730CIrRhkEX1wCLh89FnPffguFO3cgEiI/CJcAuyUUeqg018GBmIxFzyLrA3TUbtUBwyZMQWarjqw/oHN0eMdPIj1WVWDb8u/x+oRbkbNhjevyGBUsWlB1HYlp9TH07slo2fNcmDq1Orrk1C0rUIaBvnmqFYERKccLk8bh5y/mI1hUCNsyhZsp1yP2bf2F4SJlglLQoGUL7NyyCWUFu0UZzaRzIxEJ4eB+nzx+THn3S8Q2as06kKo2DjfM0/dNi1jIW7MUEy8fCCdQzBoWyibxJBc2vrJhECnmRk5RYpCvkwMBmUE4Ae+zAg8MCnRx8ehz0yS0uPhyaD4FTphIwka8O+Eu5K7+AXY4wPVMlXb6lFOoauc/aAFgzwKg5mnn4uIpz8BIrgZDMVGxazcqwiaS69ZlwVW4dDc+Hn8TtnzxKS9w1DZJi5nieKGnVMPghx9GRvuugBEndpe6KDcIhxwxktgKUQbBgVVUjEXPPoI1c1+BSfVi2kWRCJHa6DwpaD10FHrfeBM7ONrhMAJ7shGGjYQ69bkeG9qzCW+Nvhb565ayBwQUg4OMyBG77Wj76yCoju6oPO2y3SUj0HHIcOgpqfAYBkK5+fjkwTuw8Yt3oYZJRElCT166xRSCv8U0xiUI1evgtpfnHEQQ3ADKtWYhOBBCQ9Gtwbyg6jl3O0ios4NLLfusc3RS0ls2bDOCyvxcfD97JmY9PxWqWcFBl54V0c530IsIW2Y9DJ/wMJpTMKzq+xcsjIM7hdDyUsx5/BF8/faLcIJFfDxO20dP0rUCJjJXs11XjH/5Tdj+ZDgsgKRAKlLzbGplBvHdjJfw+oN3cFmJ3Rzp+XCvnDIdtuaFppFDoxgfTneMFfj0TFJkdEtETBDdcxA0yQFiM3DJHZPQddBQMeRLJYJAXSuEH+lPAJQVYvq467Dssw9Y7W8TARH1GVDJpUXXfrj+0ReB+DSh/ucSjiPEsUwphEeZU16EF8bdjNWfvwvDHW5GRCSqCdr//lFVjLwrqN7CokI2eXK9PTjrIwyw+IroGLoPU99dhLgmrbhVeX+CEP0DEZS8tUswcegFQFD4ZrjVODG3hO27xT3nzMvf8ryfgAvzcXhJMoNwHN60I50y7YRVjUa92vBk1sEF9z6Hmp1OFdOfSeRXko/Pn34Cm7/+DGV5u6CQ2I6C8j6G4H6EML2hlC31x59y9Vh0v+ZmqN5YWIFirHrzLRQW5KH7P69jq1hFCWDP4q/w4aQ7ULprs6hnwsMtVIquwVu9PgbcPAHVO54GPTYeikekuEULuQliKFZEhV28C2vmvoWlb76M8txd+9IKHOB1xNTJwuX/eQFJjZoL9XhxMT568B6kNWmIU4deCyUmBk4gHz+9+hq+fu5hmKFi3oVxvzm3rtEeyLUIpjVTIwdFHRmNWqLthaPQvN95MIhNbKQAACAASURBVFLiQO66dmkZVr79Cpa/+TzK87NdUSX9gMKIOM7fs2BGMwh1cNt0QRCoKyMqQBR2/EKVzokSGuvLGovozIL9KAJHHCJbQjFPrXCUMdCDYeRsXIdfV3yHrz54H7s3rAMi1F7qzhqwf6MNVtXR6ZyLcNXER2HGpXBKno4b7QTgEZpOBAWb1uP1u8dhy4+L4NDUT1as7mt7jRJFpqPxdfDYxwvhyawJk8yruPThkg0eSGXB3L0Bowd0h1NR4ZYZRBcFB38uN9CzSx0pYjCR+D+XHLqEgHv/6fguiWKUVA2e5Bq4ZMzd6HzBINjkVSDaIIT9MNEdU4UnEsJLd1yNJZ+8A4UUme7cB2q7pLbbniP/jYtH3wtTp1Kc69jJH0C7exKDKjCsMH6Y+w7emjoBwYLdTGCrRmhXnVW08kclCSIARKrIRYrSHm6nDn1/+U6RuJFaP0lcScITPxOE2CYtDiUIUVMr20L+mu9w7+XnwyGCQN0wvClwr5m9LXSR8dlPw3OkdUj+/PhHQBKE4/8eHnIFIqi7i56uIrHJKeh72zjUIk8Ew8ux2Czai81ffYLl789E/rq1sEKlbncDBRphQOOazbLYypNSF1e+8BoSmrbgfvxIzk68eu1QaIoPvW6/C7U7dWHjm0h+Dr75z8NY+d5Mtqml1jtKS5Iznq3qiMtsglZnX4RG3bois3kLqDF+2Ba15kUQqSjCrnUbsXnBR9j41TwE8vcItz5VZ7tkWmX1+DR0Hz0eWQOHQvHGQAmH8cv7b+PjR+5BjdYd0XvM/Uht3BhOJIhd3y7CJ5NuRumeTW6vOtUvxI5VZ/c/Wl11eJNroumZPZE14GJktuoMeGhYUwRWWTl+nf8Rvpv2GIp3/sriTiY73L8uMPp7yIEwuqFFOq56PYzhEkNzvg52NGZTGzEESegHKBVuwNSjvhG0c6YMjCjt0LkTmaBsjNjGmkCwBAtmvoFV8z7C9p9/hBWuEKJQSsJTyyq1cx6mBMUpfd1A10uvwuXj74ep+92gT0HGJS3sVRDC6s/nYebkiajI3Q6bjJaqDBzcR5h3qaTuV4G4TNz98juo1rItTHIa5Fq9cJzg3TvFqpI83HLuGQjk7WKNgChFMOMT0y1ZWEtpfXfEuBgKIv6eOYwBX2wsqtWqh5SM6vAmJCAlI5P/20hKQ4O2pyC5Tn0xoIvLUiLdz+dgKdDCAbx812j88NFMJltiVgT9z4LuT8PYl99CjbadYancO7qvVOAKE1XTQcHmtXh98h3YuGwRQP4arh8CG42JmtB+32+iJ4JQKaxfEAkxIgTR8dyiK0d0TzCp0WIx9d0FiG3SGqbm/n2VCEgcmsjh3rXLMGHIAEEQXGKyz96c/kIQ4v3NoE7ApVNe0kEIyBLDifpIcGqf/jFZtJSedRq6jRiNOqedAdXvh2lZMMvLEcnegVVz38Gyj96EVZoDm+r4KmDSDocFAbTe6sjofDaGP/0iLK+H68lb583Fu3ddwz9rc+kIdLnmRngTarB3e/bSbzD/wbuQv30lfJaDEK9aolOC97axCYitXgfx1eohLiUVMfFxKC8qQmVuHsp270B5wS7YdkDU97mu7jruqToyOp6BK56ezkptx1Jh5uzAq9dehuJNq+BJrY1z7nkEDXv05V73cN5OfHHfXVj/+YcsyuRY6O6OYDgs4KJU9qkDhyOj7SmISaU2TOpiCANlBVj80vP4ed57qMjeCtsK/U2GSL/xQPJETAOx1epjzMuzkNqkFeMTzRpQxZgbHikdbFvC2ZB74EUUEdgTqRH5E1bauwSBB/2YlSj55VfMe3kavvl0DhAiB0aaz+Fa/nL76aEGOUQQNI8PZ474Fy6+ZRx3l5Agke4zBWvaOXN7rBPC7jWrsHrhQiGEE2HODZr7V7XF7lrxJ+D0i4cgsVYdFpeyVqEqEyDIgFpSirEX9kDpzo2cdufZDpyVEO2ynJ3ichJdgwdGfDKaZHVAveZZyKzfANVq1oPuj4MvIQ5GjI/Jot8fy1ki26CmV5oVIUiVaxrpBmzRVaGHA5gx4XYsmfMqfx4RKUFkHHgTG+CxLxYBial0Jgc4K0bvsGbZWLNgLqbdORqR8gKYFrVcRl1NDzMY5XfXKre44hoccaaMx6vHY+p7nyKuSVtEyEiMxZHuXAfXdkKzwzzuecLQAbADpNWg8hMbaJ+oq6O8rj+IgCQIfxCo4+1tnEEg5ThMGIrNwjFPSlP0uP5mNO7TE0ZCCu9IuV0gEAGKdmPhjKewceEChAtyYEXKud7M/dW+RFzy2DRkdu0DnXYhwRLMvu0abF04DyoJxtLrYtDDz6Jax56wKC9fWYmvn5qKlbOfhhquhMWBSAFJHUxKgVOPu2tcIzaRQhtAi5JO8xhUBRSOKbCoFkmlFDi6B3pKHVwx9XnEtusAX4wHdmkAC598BMtnPgPFLOfBPF2vGo0Oo66FEeeDaplYMv15fPfcI3BCJPxSoRoeeOITkdykDbpePgr1O3WD6YuB7qU0uI5wZRnKt23C1y89g18WfAAtRO5xYhDP3zfa+TBPW5QgVK+PMdMPIgi8kIuWwKgyn5TxOo3KJmxpiqJmwDbdUcOU+aCMAzvoEQcTMzOMsAO7pBTvPvcwvp49jUdF2yYdk1IBojPlYAUCBVN/YipGPvg0Wpw1ABEy1+HBS6SqF/oSarWjf2uWAzVMY8QdnmRIA73EAQ8MoDzWmSr6pKPRyV+Bzo8GCREIRACoFVMBiktw16C+KNy61jU18gjrLycClUYWs3gyDjWatUHfS4eiTa++0OKpm8DgND5nVFQVphWBZlBOiZU47rkLcyHOcjBJoGmQ0d08BVDAYwbxxr3j8M2sV3hcOvkNCDtnG770pnj6y28R9sbx4KT9nRWjd1e3wljx/ut4ftxoFiqSowYRBOFT8mfdCo9EENogohM2BxIEumKDxqyv+Qn3DD0PdqBUOI9KgnC8Lfl/yflKgvCXwHp0D8rLGO/YRV2U1jX2MaCWsbhkZPW7AK0uGMhpasOfyAZEtmlDC4ZQ8OsGrFkwDzkblqNo56+oyM+DJ7UarnvjIxjV6sK2IihdvxIzrx+Kyuzt/DnUr16ve38MfPB5wB/D3QBW3h7MvGkkcsjljSbNcfcA1Y5FUGKBGKfGRVVXOOjRYqVyLCJ3OVowo0V21ZuANhePRJdrboE3mUZL68hd/g0+nTwOOZtWQyeVtaYjpnYWRrz0EmLrNEIkYKNgzTJ8cPetMMvzEFetPjJbtEWj07uj7imnQotPdhdvkWatzM3Bjm8X48dZbyCf0uxmucgM8+nuV7s+Grf3twiCODthHOW+eMpCoBjfz3sXoM4DRUNKejVUq98YyTXr8sAkIgiip5923jwyEE7Egc5DB0vx+avP4OMXnkCkvFjEcNpVs6jvQIpAgS+leh1MfGse9JoNEXHnO/DulYc5uTa+XGYgzw1xS4mUiN29+KfKVZH5ogbTjkDTo5oBMfci2ozJ3Rn0tuJS3D24Pwo2r+LSCpMkPlcioR5kNsrChdfcjLbdewM+L2cFTK7fuzMHiD4JcUAVdiT6sywiMW6w5+dWlGXEt4iyCRTIFeiRAGZOGofF77wM2FQeEOUHEgmmNOiIBz6YD8sby46gh3s5wXJ8Ne1RzHniAZ7UKJwrXYLwp90Kj0QQshDR3RLb/hkEKgw6Eexd+xPuphIDZRAkQTga3/Bj8jMlQTgmb8v//6RIdS4WPmq+dgcj2aIFjIKrv359tLvgYjTq1hdJdRvz9Lto2xWsMAKFhdizZh3yNm6A49XQcfCV7L7nhCL4cQbtyh9glz4ypmEy4k9Er9F3o+3goTyUxgmHsWfJ13j3zpsQLNzNuzqbFvyI8MUnwRnXg3nXS6lg2hnSAklZi2ivtZjgSALJ6q1Pw1m3TUBa1ikk44ZdXITFT0zFyvdfhxWi+noFVHJY9FbD4IeeRjWa8ugxoIaCWDtvHgyficxmzZFQoy4UD43f1UQrphlBuDgXe1Z+jw0LPsWm7xbDLC0UY31Fb6VIzbNV85/d1f3/7+O+yOWWGA7OILhCSfJIFi1xZIusIpy9BTf168HzKKgtUNF9aNahC868ZDiyeveFSWOymUeKGr14kehN2GBX5u7B3CcewndzX+fBTFQ2oM6U/TEQ7aEO0uo2xIOzFyCSlAlHo524IH8qOxtFg6bono/2TIj7ftiw6RoNi5q/MGWiwE8ZEm6GFBkEKgCUlWPcJf2wd9NP0PmZcumLx4/2Z52HfsP/hVqkYfDQOe3f4ifGm4uGD9JpUHKE3iHoIOlemESQR4RII7iaDdG2Se2ORHS1SABvTB6HxW9PryIIfEWqgtpte+Cet+YgxG5irpXyQZcbKsnHtLHXYsOCj0SXAxMECuJut8Wfenz+GEEQ2aADSwyqFcLedatwz2XnwAlVyBLDn8L9xH6zJAgn5P2NTlkQbWy06EQ7kzg4c7+3AiMxCWlNW6Nhlz5oedbZiK1eA7ZHZS8A2yJDF8CKRNgISfHFw6M7cIJBrHxrBr577RmYlSXcOknGSDS7IKZ2Ewx9/GkkNW0t+u0rKrDylafw1fTHYVWWCdEbjW3mnZsgBqI+7IqxXNUdCyR5R+VwG5cnORPdrrkNbQddBtsTx1a/eT9+ibkT7kLx7i1QlURoMQo0nx+1s9qhxYBBaHLWAE7rWpYKOxJhHwi6ZtXjEcOeghGYRfnYufYbrJ3/LnYtX4mKvTmi5MLtgqKOLV6q2953DBCEgzQIIuySIt4jygAkPbA0hHasw+jenaEgKLoUoEBX4xFfqyEG3jgabfqex+ZS5NmvuXMIqrIDRNBMB6HsnXj4+mHI2fQTVJPuMQXVfXXp/QnCw7MXIJyYyToADqp8D7lhsGpQEPtPuP4LTALdiZ7RzICgKCIjIrIKoiVQTF0Uolvx94IgqGUVGDeoL/ZuWsUZKiql0cTINt3PwZDbJyO+bkMWavJ0Sjo2ZzSinyLGVFMmS8wfUKiZESHKouVlo2TvXiTVqoX4mjW5JMF5B+4OoXKI0LNo4SBm3ncXFr01DY4T4J8Li2oN9U/tg3GvvYUQezscniCESwsw4+7R+GneHOF2ycflKUuiO+ZPrU2HJwiKkYAp785HXBORQZAE4U+BetK/WXYxnJCPgNvqxTMI3BAcnX8gBs8JMRsp1BUPtJhYeNLS0LJ3f3S88FLE1G5GMisSg8OIUVh8ZUbC0D0+QRYiQaC8AMGyAuxYtQIlu3Yjd+dO5Py8GfV79EWv6/4FJSYWVkhDxa9L8cn/sfcdcFLV1/fntZmd2Qa7LL13WECKoKIioqKAhWLFii2xJJIYW1CxRI39r0b82YLGAopdY+wKCAqKgqLSey8LW6e89v/c+32zuzTdlbrsncRgljevnPf23fO999xz77sOq2fPhuNQzTkRDNlNKeppdG3wAlddWyq4sHI9BFhRNOzRFyMf/he0zFx4fghe8RZ8+NgdSG5ch0atWiCzXmfU79YF9Zs0BUImEIlCJzc51kZS6pwU+DaxHY6hpWuWYvG0zzHn/dexdfkC2MVFzAtohDCTpxB55CtfHZ5UsS+7FXb1PHIVxuIyyfXPTUJO2/zyQMqiQ8fiATtMwjwNyRVzMfq4wwITIkojq1Dt6RbqtGyFKx4Yh+adD0XcMGFQ5kXJ75VfgOOxMZXuJWGvXYobTz8FycLV3MWgujaC9snyDEJb3DvpYzjZjVhv4HAsp/NQ44q5h54rXUG6nlb/3AlSUdVPXXaq3JT6G2V+pJ4PFTCVzwB3O5TE8PczB2Hzoh+UQZLvILNxK5x7wz/RjfQQIY1nGVDGjMosKmNFXRAOTNeBs6UAv3w3CwvnzMaapYuwYvEvKCnYyIE6klEPZ//tBvQ86VTVmcFDq1QXQ2rao2nH8fI/UgRBDQRT/gQGmhzSH7e9+gaSv0IQtGQZvn7+cbx4723KLpqnjv42QUgRsxRmKaMv9r7YpUjxtwnCrWcPBpJlkkE4KGPC77soySD8PtxqxLe2f5Hw6zV4qasLqFR7NXQYoQiMaF007HwYup50Mhp164CMvGYI1c3hOip1Dejk3U4aNM+Ha9NoYXKnU33XtOJjJz7ynKfVimvBj8VQtHgOVsyZjoL161G6aSOSpVthx6hOTMd31IQ4Wm3yC5am0mUio34OMuvUR27DlqjX/VDUbdWazY5opaXrCQ721K6p4p6pHPAoQ0BKbTI9snQ45NjoUFU8jqIVy1G4aBkWf/Up5k/9L4rWroJGkyGDoJdCQtWQKyYfHjg3Ws1iyGhcyQeBDIlUkkhlEdgnQIdFM4mW/4LRA3srU6dKcy/UbTfQ97QzMOq2B2FH67J6n+9v4BGhdkqtkjqMWBKT//MU3nr8TjilhdwLQkOvVGslbWegTl5TjPnPG8hslc/kgI2FAtdAWm27CCGccLFl+Xws+YVW+xrcQJfC3RWEN2s8ghxBcDNYnUCBMyCQqRZF5bpJMwRK8NrT41C8bg1oLCIJE1v2PR43PPkinHAWZzIMdmtULbbsLqm7iK/bgK/fmIAPXngWxQUb4XlktEQuker5o080pzHOvvku9BoyFD7ZeLN2gS5O2VHTs27aSUy4ZyymvjyOXSbVaSsxZ17nw3HHa+8haUVgaJSbIIKybQbKcGx8/8bLeHbsaHhOnH93uLskcDTYWQaB3UeDRg3VjhwQ6uC7brlLqBq2pWvpePDtDxGlLobtMgisD+HZJgY2/fg1xo4cBNiJYNJ0UvlIyadWIyAEoVbf/oqL5xUY9/iTCCsCLZKNzMb1cNi5l6DzaeexD7xaZcc5sJO5kOeY8KmrgXv0+W3OCnZ+sXOfts+rd9I0kAkSlQvItIZWuKSOZ7EZ+fSzfSyVGqisQS9zn7MX/ALkTDQdL1T+ftVNcl0MbN1o7UvHofcyqeJdNWQmmYghjTo16N2cLMEH/7gTc9+bBCS2wie3Ou6cUEVrCkKVCcKB+UjsaJSkrJaD8ciBZTDbAPs+kst/wTUDD4XvJsovp0JJr8FMy8Z5N92BI0deDJsyNTxhkNb4wVwHIm7kJ+D4KFu2EC/cMwY/ffkJfCeh7l9qgiFMhDPq4owb70Tf08+Hr9No58BkR00cYKJhJm1Mf/V5vHzfbRyE6MOEMCgvKTfDICRWvhmp2hjfqhQbSjEIavNMuUUSOTQx7C83YuClo2HracoNMHBfpLIVnYufKMPHzz6D/40fB7twAzx6NgOdQaoOR2efkdcUZ998L7qfRASBCKhqE1VzCuheuIog/HMsvnxpHNtxB/SG/8ho0h4P/PczuGQcFXgXbP9cUUvw3M8/wL9vGY3k5tVweCiVIhK7KjGw9iJwN1StlykDKDUhlQSU/FPuViBX0l8nCCpp5GPT3K8w9mwiCDS7g0pqqZklB+Zvg5zVvkFACMK+wfmAPwoFb9IyqgyywZ7uejgNfS8fjd4XXQUrmsb2uz++/S4Hk4ZtGyFUJw+5zVshlJaunPvY8Y5Wj1Trp6BPwV/NW3Bs9QLTLSpZsF+rqkEzqSCiEIzkpWCt63BttaI1LQ0utefRi5lWeDROl2u1DuDZvFClNPLGZUtZWLdh2SJsXrkUeloWThp9I/zMKNxYGb5+7CFMe/5Bbn1UpIDYjrImrlEEoVELXDe+8iyGnREED8nl83ZJEFSQsRCq1wQ3/HsC8tp1Y/dAmplApIPCvw6byw5kP20mkvjxi4/w4t03o2jNUsad534GpI5aR4+58Eqc9bdb4elhNR6Z6/2qPED7pS6R7956CxNuvwFO0XqesskkY/sOhkrWz0Eho+InnC2i76ieB+X3oyYOsqtkKB2P/vdT6M06wNfDyrTI17lERHMQOMO1eTPuPO90bF40R1kjswlUQBZVaOXntUGr9hh564NoeeQA5Y1B32dxX2qOyM4IgurIICoSqdccD7z7MfR6TYPyxs5eAS5K163AhNvHYO5nb8OhwVXc1EvI7FyDwJLZQOCpCJUys2ISwskSW9lO016qQBDoO9RWvOHHqbjtjCHQnBg1pAZj1yWFcMC/uPfyCQpB2MsA15jdE0GgFDObp2jsKaBnNUS/0TfhkKFnQrc8FCychTev+QuK162DFdbZcTCcnQMzIwONO3TkUbRpdXP5n+wGLZBWpyGMnFw2rOFVPrewJ6C7MV75kSzMJhU5a+sow0BiSkr1UsdaFJpJc+ppRgJlyuMoWbcShStWoHTTZiS2FGD9koVY/dN3SMRL4cTK4MZK4MRL4NsJRBu1xkVPvoRQi/Z8TaXfTsMTlw2H7nhwuSVNrbRUSKi89jtQ7xjJDGlYUzNcR0ZJ7TqSX5+q73P6m2ytg0FC/s4JQuXrtUjAaaWhywmn44/3PgQvEg04G6XTKYWvhIAcfBwPWrwUL9x5C7757yToiUI4ngOXFfeK0B0xbCQuvONhOGY6vBANZyIbaGUnzJMF4SGxahWeG3Mt5k//mBX7Nq/+g9YDTkEFIsVUbj1YIacIHItMqUbPgZoyHGqdrcSMFoxQFh7/fAa83CZMctWESEVMyRmTPkVLl2DssMHwS9bAoSxJYA2hOm1VFouyU52O6o+Lxj6EjBYduQuEhzWVEwR6np3yDMLUF8fBs+l5UqSTgnUkqz7GvjARdTv0gk2DmrZxRAyeN9/nmRJzPnwXE+6+GVs3rOL7aZhke07XVqG9KC8TsRN0MHLZp7ZgukaS7QbiIhp/zdlAEke68PR0PPTGB0jvsPMSAyFuaB7W/zQDd59/BuySjcGcCpqlEkzZLJ+9UKEEOVB/S+S89iwCQhD2LJ41dm9KwmWxPS4L1TwTGS06YeDN96LV0QPY037TV5/ixasvgl1cqBTz/HIPxF/0PjYs7hLQWckeZVvlUY8+inDzZoAZ4g6B0uXL8PWEF5Dcsh5m2IBhZQUTYKhbIs5GS35GLvJPHYomXXvxvsi8ZcW0Kfhs3AMoWrcIfoxG2VL5gkoFNDiJPkFGIvDVNzNycPRfxqLH6efxZMvE/Dl46vKhsAs2B1MJ1eqocod69VTj+/pWUynHRGbj5myUlLMbBIHOXLW7Gkiv1wIX3XEvOg44Hi4PtKLgp0pNqm0wmPRIwaJgI+645Dys+/lrtr6m0gEbXGk+evQbhAvufAR6/cbQwhoTBPImUC2sygLa9GL48D+P4/0nH0Zs6ybAoQxOiqWlCELFlE1OGFBQpoFEAZEwuI7usHaEDJTInEiRJA16NBdPffUD4hk5gW6BymWq/ZMyGKSZiK1bjTGnnQJ702KeZ8BfDb5PNICCbTgrF0P+cDVOuvBKuJEs1X5IzyUTWPW8VxCEWzH1xSe2JQjk96Eb6DPsTFwy9v8hGUovbzWu/NQQeaJUfhgJjL/9Vsx4+w341DqMRKDvSPVtVgxIImEx6WzoXCLRDPixBDwnyYPKVMVMDe9WgkUXvpGB+1/7AFmde7LVsmr3VG2OasCVEuduXvILHv/r1diwaA6NUuVSIf0uKjvnwHBrXz/ycrz9joAQhP1+Cw6ME+CgQKszbnuwOdFZv/tROO2ux5HZuj2nlVe99xpeueEP8Gm4Ewuk1HCcoHcsGIRESzGlVje1KBoePRCDx4xFVuO2cD0PXtlWzHruOcyc+CwShWt5mBPb8RpKTKdHs3H0H0fj0HMuhR7Khu/HEVs9Hx/fcw8WTfsAvkPZhxBA7nzkraD61lJ+O4HQjoSSUfS85K849qprYZhhJFcvw9MXDUXZ6gXqhcep6XJNWjVbyvbHPavQIKQIApcDdpJBsHwfiZ1oECqfNZE5g9oWDQtdjxmE8265BxnNWqrkNptsKX0DtzWSmRIlzl0HSyZ/iEeuvQJO4Va1og4GAKdlNcI5Nz+AQ4cOg2f60Eigyq2lFKcs6BxkbOh2Ed569D588fJ4OCVFKpGu1IiB2DLIYAXNEqmx4PR/ybGxc4/eKFi7GssW/ASfSkxUIuL7TwQhD+Omfw8nK0fZLVN5gVwk6dy5NGXDj5Xg3zffiu8/eBVesjDwOAiswI0Qe2T0PnEIzrzuFoTqNQWsMDQvyQSHZyoEMx4UQUiwBqGCICj3SArOhu6hRZ/Dcfkd45DdogMcHmBVOTWiGjrVgEUHRlkMb497DN9//hbWL1sENxlTjo7bW1PpJjJzG6F1t67o07cf3vzPiyhYsZR/TypGmVMGQc2P8LV03DL+VTTqcwyfA/uNVCIInuYirJlIlm7BzNdewVtPPoiyTauC0psq35A/isvlj+Cm1IDflv3xG3owHlMIwsF4V3/HNSmhIa3o6AVHKw8dbY49HcPvfgTIyIKWjGHqw7dhxn+eVLXboN0rNStQvTMqdUVwolKHmVEPPc+7DH0u/APMOjkgC+DipcvwxWMPYcHnbwKJRNB36cC3wugy6Cz0/+tNSMtrCt81oJWsxeeP3IpZr78O344FrXHUnkkvV9WOt+18enUOZOfc7exLMPBvY6FFM+Fs2ogXrzgfm36cxuUFHvtbgz7q/tCwJtIgvIrc1p3hkUCUlWoEBpE2VYu3PD/oYthWpLgNQdANdjak75iRDIwYfT2OvuByeGnpwepSrfwZS+5oIM2Hh7CdxLuP3It3n/kXNDepOj6olVFLQ7+zL8fQa2+EVTcbLnU6+GoFCk/pUlR13oURK8LX776Obz74Lxb98D2S5NboJNmCWS3mVaqf/t2KZqFFh85o1qETOvQ5Ap26HYL3nnoMn7zyPDSeh0zmTcqJ0w/Vw1OTv4Jbrz4PWGKxHVsvBy6M5IDo2lgzZw7e+/c4/DTtYzhkLewZ0PQw6rVojT4DB2HAiDMQbdKaPRU0smD2k9A9mk6p5lcokaIDi7sYbsMUKjGQtqV83oeK/Gm5DTH8iutw9JkXImmFYYSpU0dpa9jJkghxMDiJpqyGkjEs+WkWfp45E6vm/4AV839G8datHJwj0XQ0a9UK9Zq3Roc+/dCuezc0qJeDa886kWHPLwAAIABJREFUExvnfcdkWfXmKikn211z9SmEQZePxtDRY5CkFlTN4lZehZ0a8mSSsNhLIrF+Daa9NRHffPRfrFuxHKGQhWZt2+PQw3vjPw/dF+yffgVlRkMNenXs1qkKQdgt+A6eL6tYQC9TJXrzTAPtB1+MoXf8E1o4DBQXYfwfTsem72dwipcNa2jlv6vVhGYyQaCdRRs3x4k3jkXbAYE5j5dE2aJf8OZt12H9j1+zHwOZOeV1Pwyn3fUg0hu3gGGmAfEYZr/8BD574n645avNqhUC6IWff/KZOPmWe+Fl5cApLsSnd92Eue+8xG1t+2wK4x56RLYlCK8gt1U+XEPZF6eyPtzOR10FHhBb8QtGn7BrgsB6BU1lCXTNR52W7XDjvyci2rKjmhDIC3AKsKo8QASEB0ORmdCqxXjqxmuwYMaXLIRjTwLfQBqJHseNR+4hh3Jro0GkhXQCwTly2YLL2j77UsQ2bMDm5Uuxct6P2LyO3DbJx4EyUuTeZKJB40Zo16Uri2FJ62KlZ8Bwknjlrhvx6cRn1chtVu0rkmSEc3D/m+8irU0HgLoYKOFOGLFhk/JJ5LHWTgJlmzdg5YIfsWzBz5xRqt+4GZq174TMJk1hZWSzBwddLrtp8j4CQ6+dEoQnVDo+GOPMvxuk+DWjqN+mEy7/x4Noln8oqM/Bo3kIVMLz6ZwUCVKTNUkaqLB0kkk4sRKUFRbCiatMgmFZCGVmIRTNgEWj0mn3ThnGnDEUG376qvzeKIKgxkKzw6mmo1nX3rjtlXeRAE34jCjiwBMuCQ9qjVWjqEkX5BZvQWzTRi4zUMtkODMTOelRXHRYN5icvSMa5O5PT9E99Bslu6kKAkIQqoJSLdmG06OsgPYAy0DH4VdhyJjbAXIfLCjAs5eeii3z5gZOb/Ri27XWmtsWaWVGLz1LR1brDhh5/1PIaNkD7D7rlqFg7ixMvHYU4hu3IL1lF5x2+32on98DepoBt8TG2q8/wXt3/w0la2i6o11Rr67C/dB0C/mDz8RJY+6Glp3HrXXTH7kT059/DD4NlKphHxaOkgahYQtc99yOBMHXqZef2tNMhH0gvuIXXFMFgqD8LOl+Z2DQpddg2FV/QxllEVjYpxwvOY1PuXDWFCQRchKY+dYkTLjnViSKNwGUmmeXZx91W+fjn6++BzuD5lzQuGHVrMLiVyYIZCRE1smKeGieA/ID4OCqKY9E3bBUCYgnNCpzI/YI0EMIxcow4e7r8dnEZzjbReOced+cq7fQc9g5uPwfD8FDJpe63BDpFWiqKRkQEaMl4aQDsuDQee6BD49LIT4cLnNQm6YKnnRgwwhxaSw1VpvdIdm12a2UQXgCXpCCZytowjRscVuwEYqi98kjcNlNdyOensNTRnWNxJEkNFSOpqrYEEzYJG8OJhgmh2EiTZxloCNqNLiMVvsONENDmpvATcNOxvq50yp1egR6AdJBkHiRrLCbt8Htr7wHM6spz01h/ypqJSZb7mCEN90TzsLQqbguDGYPaix4JF6CC3u2hW7ThE8ifNvm7GrYr5KcbjUQ0LKzs/3CQrrx8qnNCKhXEK+xlAOhaaDTWVdj8A23cV3WXb8az140BEVLFyizGG4h+zWCQO8bGs6kcynAMww07nsChoy5i2vdvmdBs20sn/4GZr31DroOPhdtBwyCnubDT/jY+suP+PDBW7By1hRW0SvxlVr7VNRyd33HKLXa8siTcNLYfyKjaSsgnsDUh8di5kv0Mk/1rNecO/5rBIFdB3SbswFEEEK+j/iK+bjmhF7b+CCkrlbda0qZq3tDo5KpL9VNq4ebHn8WzfseCzeomafGJSuLYao+JAHbgRUrwcv33oxpr7/EZlTBHuGbaTj+rIsw6MrRiOY1p+o6tz1yy2NQw2ZXQxIVsi6BxHWqcVHjVTo9f9QZkTJiCoyreDSDDzMZx6v3jMHnE55lh08qWbHzRlBpadqjL/78wFNIb9wOPnUDUDmMtRoG758zRyz4p+OylI//4UwIGQtRcHcdbFixDLYZRsMmLYIMCJEkIjQU4QnJgCDcfTumvDQuwIB+LwKbaDLsCso/WiSKS268DT1OPgd+WjY00yR9pvodYu2PeqS5uOe6XB5gx4fAAEuJM4LmznKXJCCcjOGWM07DurlflrdqpkZyq9KfKjNEs+vg3JvuQp9TL4AbCvH9UMkgKnGo3yvO8jDzCVpIeSYFZSk8RJ0SXNC9DXS3KMhxVBhK1ZzfIDnT34OAWC3/HtQOwu+UEwReqaoxuD1G/Q3H/+Xv0PQ02KsW4snzTmCvAU6Pcpp05wRB9agHCmnf4s56WqH5kXS0O24Q+l9zPdIbtucg5bulKFqzBhn1mkEPW9BMF7FlyzH5iUcw7+M34MRK+ThuNY1byKq5cc/+GDj2PtRr1wkoTWLKY7dg5otPBC/zmnUTtycIOa068/ArSp+rbkCVaqfBRhZlEJbPxzUDe/4KQaB7qAIat7dScPJDaNixB64b9yyTKpdU+7S65kBlcWKJhI2sP/EdLJ81Gf/392tQtHyJUvqrmaEw06Pod+aFGHT+1Yg0asHzEGjFS6l8TqNzv75aOauZHEF0p7PgWE+eA7SyDzpT2KCICKkLw4nhlXvG4IsJz8OjuR4etXdSBoDIjg8zMxen/vFaDLjwcrhpaUEpiQiCCoC8VueqjDoPymqogY6UwaCR1A5KV6/Gq48/hvxj+qP3CScCWhpoNAlbIXMXA5GloM3x7jsw5aV/wXdUOUUpAFQpRuln2WgAeloGTrn4ahxxypk8HI1W8hSaWWubuv7yf1ep/3LlbTkxDuQ6PGESCNsJjDn9NKz/iQgCBXk1Nr2CSAf/punIP/J4XHT7A8ho3pL1GWrIWpDh40MFBC6YlxFMcYHhuojGSnBRjw6AQ5MeiYTWLP1OzfpNP7DOVkoMB9b92G9no4JMpRe1YaDX5Tfh2KuvB7Qwkst+wv+NPA7Jwi2q9svVaUqC7kQTEIyXprq0T4GBB/eQstuCFongkNPPw2GXXYVovYbwXHLx06GZDreSoXQrJj/xMGa/PgFeSQGnd+llSMOgqvXRdDTq2Q8n3voA8jp2gV8Sx9THbsXMF56okSUGDr2kYG/YAn+jEkPrfJ57QARBxQ8KXkqDwBmEXyEI6lbzujnIBCnlPX2MtHQMGnUlhl51AxJWFDT/mQSKPk2L9HUYTqBRoZW2XYKpE8Zjwv23wbfLgpZXD5rpIRSti3a9+2PkNdehfocOSNJgKAR+ANxfryru205jCFwxWdwS2HfzMps6K2ioFKn9izDhnpsx+bUXqTTPehiup+tEAlTffk7z9rjgptvQ4cjjeGolWSUHBh+BEZgSX6oyh1qdk6DS9BLQtxbi4euvx8LvZuDsG27AkWecA2jpTBBU+6/KvJSLFDmD8LhyZExdTWBUFMgAVfg3Q9DTouhx9LEYdsWfkNeuCxwjolpFVYGFhY2pqZOVzZsq2jAV+aCZDzQ4K+IkcdPwU7BxwddqMBmTt+1/H1XmIZJVDwNGXoAhl10NKzMXSZ26TKjskspOVIxfDxgTJy6IIEQShbioR0fApvHnRLJU1kc+Bz8CWk5Ojl9QUHDwX6lc4W8ioKx4VaCAYeDQK8bg2CuuY3fExJKf8PjIY+EXFwGuGulLK71diRRZKQ0amGRDM8gBkUSLYTY9QlYOjvjTNdzKqIUiyhnOs+GU2Zg78Wl88eSD8ImIaEmWQ1IhW7VZ/fqn8gwFMpNp2us4DLztAeS27QS3OI6pj96CbyiD4Ka8E35rjwfO37PETlddDNePn4B6rfLZs4KCtlqLB/3vlEHwXJStXIhrTurNHv87+yiCkCoV0RZUg1aeBq269MEFYx9E48494Ro2tzly7Z1Xz5SqV1kFCq7heAHGjjodK2eTeJVWpcQ7HBi8StURrpOHoZddiYEjR8EOZcPhwKSW17Q9L1iDxDVn0rlRQA0bI62A5jpMDHQ/iWRxMd4fPx5TX/sPYptWwyYfgcAhkUpKRFhpW5cwyG6Ms/86BkePOAuOEeK6OxMqfta48VG5BbiUCSPLqTIsnj0DT4+5GVuWLeGR4mePGYvjzh+FZJICOX1X+S7w3A+S/Nk2XiKCMOFJ7gIgdb+6H0GmgpkYYJKugRMWDnTDg5GehZPOvwqnXno1DxYjUkfXzF0j5PvB3wummdL+KPATNny/XYSoZdN1sGXlcvzj4nNRvPrHgERvX31LUTDSddDktSgGnHkxRl7/d7hmGndpuIbSg1B5hbsqAu0Ft7gynklE44W44NBO0JJBBoFHcAtBOHDeDnvvTCSDsPewrXF7Js0AtzoaJIIy0XXkNRh47VjoRhje2oV4ZPixcChwU6Dwk/xiVx3yO37YsDcoV/BEPyYeFBxC3KVwxGV/RpdTR8BMiypRl6XDi5dhwfvv44vHHsDWVT8rK2U6H35BqhSoEruxbp7TyqmUbqpDu/xk9DDa9x+ME2/5JyKNm8MtK8WUB+/Aty/TyzxR415wHM40DZG8xjjt4iuR3aAJGxvxSpOW0kGbKonKwp6L2Ma1ePrBf8KlXv9gvVyVB5KEbUY4gqMGDUPXo0iLYHFLHgdx9hYI7nbQ0UpkoWztMrz46H1wHafSxEd1NF7ZGxayG7bEUSedho69D0d2k6ZIy8rmeR56yIARokFKZK/twLNd1hYQwSwt3IpkyRasnvcTZn76MeZ9+xWcGGWw1DTHykFKFUlUyysJZNU0UBNHDhmK7seejObtO8FKz4YWToMRsuA4SXh2EnasBEUrV+CrD97DzM/eR+lmKqF53CZ79JCh6Hr0MXD1NM5+sFCQLl8n/uDDdBP4/M2JmDdjMhAMW1JtmoHYLwA86GRUePD/0MAlC2lZuRgw/Gzk9+mL7KatEM6qA518FwwdZtjiZ9tN0lAyG77tIpmII15chK0rVmP6J+9j7rTPEd+6DpqXUJ0IuwjaqjylyilULqnboi0GjbwI7Q/tg2jdPOiRCMiAilsjPcBO2tD4eCU8Ev2HLz7EK08/Ct2Nq5kdu/idr8rzJdvULASEINSs+7VXz5Zeyvz2I4GYbqLTGZdjyN/vAsw06IWrMO7MgShbuZR77dVqaVciRcqW0iqLUsqkiPbgmzQ8JozMJq1w9GWj0XbAyTAystmBzqAaNU92JEvfBBZ/9D6mjh+HTQu+h6Yl1OqJZjkEWgYeG8zTmoiEBIGI/qgcu7QQOg86A0Nuvw/IyoVTUowp9/8ds159jrMVNW0FRCtf5TlgBfMugkwPtxgGY5S5t56wUXV5IguOm6oXV23FR8cwaRXLrYaUmlc0UBEDpXznEMFp9EAySvoQKgEFAjcS2qU+BpGAwAKaVvl6WgR16tdHkxatYUUzkZaZgbRomFfdyXgcibIY7LIyOIkE1qxaiS0b18GNl0Bz40yGHJfKHTsKVSsTBEWW1D+U8TAiddC0TTvkNmqCSFYdRDKiSCRiiG3dik2r12LN0qV8DNchC27SUtD50+8BkQwK5qoVgzUTtLImAqIGgQM0DIuMlMiRIegI+LVf0nLL5aAMR8cgfUJO4xZo2ro1zEgU4WgYaZE0Jsfx0jLES8lKPM6eCKuWL4ddVMSGYZS1UGSJsi507wN30+1OQGWLyEqdhjfRgS1oVhTp9fLQqGV7ZOTkIT0rilAohGTSRrw0hkRpGUq3bsLKxfOQKC7gEhLfeS5jVegs9uoLSXa+3xEQkeJ+vwUHygkoiRmv2NmBLYSOIy7AyX+/BwhnAIlNmHDZOVg760vlfs/xZle1SJXSpM5uUsjzMKZIOhp174+jzr8SjQ89DHp6OtvY2JvWYcl3P6BJl25Iq9cQWigBvyyBNd98j2nPPoK1cybDdWjFHzAB1TgetMGpUT+qo6LC0JERJaOkEZfgpJv/AS8Ugbu5EK/+7VysmjFZTX2sYZ3cHAB1lXpX4JNnQBC0VU5aBTWNZxZyWYBU/yp+VI0cqIhvwqCaffn9pWdBtSHyOOhUcE6JDFPmWMHt4aeifE6wmgnA557aH90rgyke4NKzpiaBqtvKqSGVFeF7nFL6qXkL/JWgJLH9FaXyB+oalHESTyelQM5tecG00KBtk0kAHSPYH1OOQCTICSueMxHkJIg0UC2EzCFS3IQ7LijjlhpwRrqA39bJKNKiBo+lJqgS+SAvECYf3GGgJIJE2Hm1nhIF0kTKwP5ataByxzH8VPcHE5sdBYRKX0Jtjy6XSThTwB0v9I8qBQV3QD1HwQAndr6k3zAa7c5jrOl3OiCMNez350B5y9a085AMQk27Y3vpfFNdDOpFS+p1DW1OHIphtz0EPzMPhleKWeMfx6eP3gODhi15FpLcQqZe1ZXXdPRiNkie7VLwNuGHs9DllHNw5CVXItqgOY9gpheuW7QRH917DxZPn4KOA/qj78V/RrRRI+jhdPhxG86Gdfjo0Xsx739vAF4xp6+5/s0vc/WS86lNKyAHdFzWwJOxTHo2+lx+I4665CpeCSaWLcXTVwxDYtUSJgg1rpObAx7183O1JegX8OBxO2BAAniCYnBHOMFA47WDEclVJAkcqiq13vHgYapPB8JBlabeNjyrleWOJITDM/fuU2peJaZTPE9lI8rjUfkzxKcZEB+qg7O3A7dxKodPdT1VJzwUZLm85fM4sODcA8U+ezsECfNglyyoZZdQnQdNEbRsC8S7UOdM4lseRc46gRSxILKx8xX8rn5lmZJrJK5URJczaIQ1j5amjyI3qrFAnSCV7cjzgc+Fmw+Cvw9mQO4KGc4ilLNohasiKhVnp7pKUj9IOavS/69UWmJtgnQx7KXX8AG3WyEIB9wt2T8nlCIIaklEQQKo07kHBo99APU6HQpL97H668l47YY/wtmyBpqrw9FTL+yAIqRax6AhrBlImmFkt+iC7sMvQI9hI2DWrcMBXXPiiK9ehC/G3Y+fPvwf2y3rkRC6n3IOel94JTJatYUeMmHHfVhFxfh20guYOWkCYutXwnMLOYXOr0d+yakXWHmwoUBq6Mhq2RGnP/Qsslt35yzGlu+mYPyfzoVXshVeDSQIgTGeGmxF184lFhWkgsK2Wjxyy6L6cCaomi1pajZSauUcOBcEA7BI3KciOfcFVoosdJyd2++W9/kHHCZlWKBW9BUEoWJvKkiqtrvUhdDqOshsBXbCVf4tofZHju7BSGe+tMDimH9Oq2ISXW57/qqLIDUXImXVrFoJFcIBUeEppcrzoCJzUsWzC0gfB/nySE2dHCoLwm2LlT5sBuVRRkY99iqYU/BWAfvXtAGqPMWFhuAZCX53AtOjSndTZXP4FILsC/3OpjwZGMaqE7QqIiGbHaAICEE4QG/M/jitVN2WXt6czK6bg2OvvR3dh53HKuvi5cvw4Z1/xYqZn7JoileWQY2bX5pBapdqzVmN26FZ737oPvwMNOp2CLSQCcdxWPy05tvpmPHCE1g+6wv4sTh8GoJDpjdpaWjcvS+OvvRPaNbnCB4nTfun8c3rZs/G95MmYvk3n6B061r4fpJ1CWpRpF5Y/AKk+QQhE51POQMDr78PeiQPKCvGl+Pu5GPCoRp2zcsgcJALZiOolWvgR7Bd9ka12lVkEnZphb2LB4wDBaecUxGdRw8FRGPngYHPZ6dBQ3UNlDv0cdCtWKFSGNpRTRDwHQp3ZLCkIiF3HqgVb/XmADAWAeEpTzxwhiR1ZNpn5ZVz6vh0/YoYqOmWKhgrWlBBytSCW2UiFNZVD54qyZOyj0rdkFRXSpAxIDJTnvlQx0k5K6pSX9DhULkUsZN7m9IhVJSIUnc4yACmyjmclVNJHDbgYmIQmEsRORKCsD9ezfvtmEIQ9hv0B9aBldKZXgDqpUgaAt8Koeuwc9B/9N8Rzs6DXZbEsk/ewBfj7kXhiuWqBkopX1rNUio5LR0ZjZqjzeF90eqoE9Cy55EwsurA123AjcEvK8Pst97A3DdewfqFP0Dzk/CIYHBNVK3WKBjVbd8Vvc6+AJ1OHIJQ3Ubq7z0bJetWY/0P32LBFx9i8VeTkSjcCI9V3sGq0/Chh9JRp2NXDL3lNuR2PBxAGP6GdXjqwhEoWTGXTV6oVFHTNAiqqKDU6EokmBpXrdZ+/H5PpVFSP6mYFlzlh03tLZUpUKtFfjY4jgTDlKocBlUgLl+JcrFg2/1sf2JqemOK7QUBt/z4QUCs8tWoDSvlVMp9F8pJA2NZscPUtsFIEoVFkHVIbaiwDjI5gXAvUFVUGZlKKAcnmVrDK6wrTimVsUidIwskUimEAM3Ud3ed+q/AILWf7bITlTAt/5vytEKlu1Z1/lPNuySbH4gIiEjxQLwr++GcKlqh6OBmMIdWR3rT5hh+14Oon384fCsbXslmLPn8bUx54QmUbNzAqVVqiWzUoSNa9z0GbY84DuHcRojm5sLzQ3AcahCzsXne95j67yew6rvJiG1aH6w4K608uc3fAhxFNtJyGqPd8YPR/w9XIZTXRCnHSc/g+khs3oji5UuwZPonWPzNl9iwcAV8Lcntay169UXfC65EXv4h0CM6YJdixrPP4MvH7oPmFnMNV6ns5U23Hx4zOaQgIAjUIAQkg1CDbtbePFVFEKiWSmtVUjYHkxpDGejQ/2QMuuVuWDmNoBkuDFLHlyRQVrKRhWPhaBY0KwzXpJ538qpXPdXcNrZlI3763zv49tWXUbj0R8CxQWZ87C3P/eJBipMXZFQfDRZIVNc1MxFp2hKD/3Q9mhzRH0Y4nQ2c9JDFpQcv7gJOKZBwUbSlAJH0NITrZMC1wtA9cgG0UbroO7z+99FMUFj5TWI1ynhIHXVvPk6yb0FAEDgIEJAMwkFwE/fEJXAKknVLQSubpsGgfngSUKXn4JhL/4zOw85CJK+RMjxKibRowI1BYiZqhXdAc+2pLbFw1QqULF2IOW9PwKJvJsOLl0KjUkBg0KzU45U+PDhIh06ueUFfN7VJ0vZGVg46DDgJnU84FfU79UBaTkP2TVAaRSovUAnCDNrjXPbop778ovk/Y8qTD2PhlHd5JgE78armTBFa7YmHRvYhCAgCBzUCQhAO6ttbvYtTddVKNdtAzky96uE6DdBx4BloP2AIGnfuACszyit5bo8mGYKbRGzLRmxeshDr5s7G0m+/xNo5c+GUkvOiHZABGh9LAXrHFH8g3FbtZSSUou1ojkNwDmYohPTcxmh26FFo1LUPmnQ5BHWbN4WZnqksh7kFkDIQHmKbN2LdnFn47vUXsXrml/CTRXB4WA/914VXTaFb9VCUrQUBQUAQODgQEIJwcNzHPXIVKYJQ0V+m7FnZWIXKD6FsZDVsirrtWqJRp3yYZqbqMvAdbF6zAsVrVqJk9SqUbloHJ1GkhIDchaVGO/H+6d930arG5ICyBixcd5WKnQY5kXELC+RMOKYJKzMD2Y0aIaNhC9Rv0wmR7DqoWycPsTIPJVs3YfXcmShYMg+xTavgJckdjzINag/c0iYEYY88L7ITQUAQOLgREA3CwX1/q3V1amJgpa8ouTZMslYml7iwD8Oj+j/pDWgwT0IN6AkU7iAbXI9S/mT3G4z/5T5zykq4oH9j05ud2hQFLoFkEqOTIZIGk6bWMc3QlTMjT4Uk9zqDh+mwkp/KIDo5vpH7XxiwqUuhmCbscquWS5MAqReeiAbvz9uhv7xaIMnGgoAgIAjUEgSEINSSG13dy6wsINz+u6ptjX66Jx3VUm1jyoK2soiwvHN+uyE43PMflEXobOicKr5aoXD4tWupLi6yvSAgCAgCtQUBIQi15U7LdQoCgoAgIAgIAtVAQAhCNcCSTQUBQUAQEAQEgdqCgBCE2nKn5ToFAUFAEBAEBIFqICAEoRpgyaaCgCAgCAgCgkBtQUAIQm2503KdgoAgIAgIAoJANRDQ6tbN9bdu2brTxrNq7Ec2FQQEAUFAEBAEBIGDCAGtQ4fOvm6E1FhV+QgCgoAgIAgIAoJArURgexagde7S0zdDkQAMGi1aMeeuYmL6jj+rjJ58J5gIG4BSk3Bjc+WUeUDKU6DcUKBi8m+FyUDli0xNVqpsQiDfUbOXU79SKXOGAxy38tG+tfK9KBe9HQLl7/TUs5x6J9B2O/3Zbz3nwe/ENvupCd+pnQvn1C3WOnfp7euhiCIG8pKQF4UgIAgIAoKAICAI0MRdyiDo4YxKeQPBRRAQBAQBQUAQEARqOwJa5/yevhlOr+04yPULAoKAICAICAKCQCUEtPz8HoogVK6bCkSCgCAgCAgCgoAgUKsR0PLze/pGOL3yhN9aDYhcvCAgCAgCgoAgIAhAaRDMkJQY5GEQBAQBQUAQEAQEgQoEtM5devlmKCqYCAKCgCAgCAgCgoAgUI6AEAR5GAQBQUAQEAQEAUFgBwS0zl17+aYlGQR5NgQBQUAQEAQEAUFgmxKDaBDkgRAEBAFBQBAQBASBbRHQOnXp6VsiUpTnQhAQBAQBQUAQEAQqIaDld+3lG1JikIdCEBAEBAFBQBAQBCoTBNIgWKEoz+KRjyAgCAgCgoAgIAgIAoSA+CDIcyAICAKCgCAgCAgCOyAgBEEeCkFAEBAEBAFBQBDYCUGQNkd5LAQBQUAQEAQEAUFgOwQkgyCPhCAgCAgCgoAgIAhIBkGeAUFAEBAEBAFBQBD4bQTESfG3MZItBAFBQBAQBASBWoeAEIRad8vlggUBQUAQEAQEgd9GQAjCb2MkWwgCgoAgIAgIArUOAZnmWOtuuVywICAICAKCgCDw2wgIQfhtjGQLQUAQEAQEAUGg1iEgBKHW3XK5YEFAEBAEBAFB4LcREILw2xjJFoKAICAICAKCQK1DQESKte6WywULAoKAICAICAK/jYDWKb+Hb4UzfntL2UIQEAQEAUFAEBAEag0CYrVca261XKggIAgIAoKAIFB1BIQgVB0r2VIQEAQEAUFAEKg1CIgGodbcarlQQUAQEAQEAUGg6ghIF0PVsZItBQFBQBBtfskkAAAgAElEQVQQBASBWoOAZBBqza2WCxUEBAFBQBAQBKqOgGgQqo6VbCkICAKCgCAgCNQaBLTOXXv6ppVeay5YLlQQqOkIeBqg+9W9Cg1AVb5E29GnKttW9xx2tT0dK3XcPbVP2Y8gIAjsLgKiQdhdBOX7goAgIAgIAoLAQYiAaBAOwpsqlyQI/H4EUpmDbVf0+yavsPNj//5rkW8KAoLA7iAgBGF30JPvCgJ7EAGf0vq6D4PipGdsk+TX4MLXfE7E+5oOj4+rQ+d/8eHvNEOvqX3w93xovvqT/6NpvA9tu9S+pnnQfPo72qEOnf70aDs+O/4e4AKaOgPa1ofO56QF8V0VDPin8Onvd3JutK3G+1LnQ4fx4fE18n7pP54e7ImOq4BOHWMPwi67EgQEgV0gICJFeTQEgQMGARUoKZDrMOBqPihG6j4FbR+6Z3CApJ+5OkVMDxoJEnbx8VLBlngHNOhEEDigA/Q1FXS3/b7hqwDNBEHjEM9BnAkCkQLN5Z/RfjSfSIEiMkQcSBdB+/R0Dbrn8XnTlezsFNWh1d/TvuiLTGLK6YEH3yfiQbTBAzMhPuHUPwfMTZMTEQQOWgSEIBy0t1YurMYh4AMGBVvdp3wB/0mLbI7ZHgVki4Oox6t3CtZEHCjA0kp7x49OAZjIBQdVIwiwFdtXUIOK1D4HZI0oAB0jRQqCVT4dxtegu3SWRB7UCl/zXZhwmCgQcXENIgg+DFcdYWcEQadj+JQV0eDpZnB9lBEhKqPIj8/pEcpWEPNQ+Q6VmxBBY417tuWEayQCMqypRt42OemDEoFgpe/SUlx3oLk+DE+DrxvwiDIEMZ7iJi+oocFjBsEJ+R0gobU9BW/mF3pQXNB0yu1z6l+jAB9kDDjbz8HXDfIHqiSh0v8Gr+Y5D+FR2YE2pTIEBXF1DNPjo8DR1bE032SCoMoZO94tgzMQGhzdgW8Q2QkyCW5QoGBy5IF2S/zA8E1urPiVhMlB+UjIRQkC+xMBrVN+T98KS5vj/rwJcmxBgBHgCgOtwGnV78JyiAiYsA2LV9MeEtAMA4brw7QpEOtwiDTsojbPa3EO8kQkKCPBeQf4ug5PJ/qgV2Qo+ASoPpBEyHWhw+XvcoQ2Q3ApoGs+XNofBXODSIYDgzIHHmUUTJiuC893AFODRwSBSYUqUuzw8XX195oD0D6oomGYcIkgEJnxHWieo4iPZsLTLaU/YEKzL1sw5dkUBGovAlJiqL33Xq78QENASRDgmhScAdM24OoWjNx6MDIyOTYauo9EQQG0wmLoWhKOQWUEtRrf/kNrfErhu4aFpGYhnFUHOQ0bo2Gz5sitnwcrlAYzpFbmtp1EWVkc8eISrF+5AptWLUOiaDPMZILivSoBeA5cy0SoXgP4VoQzC7rnctAuK9kKr6gIYTisU3BgqozDLoI5kRaWQTK70eCYIUTzGsIPpcEnvYWTAEoKES8sAOVPiAzRtRAGIlQ80B5cOZ+DFQHxQThY76xcV41DIBX4iCDopC3wDCSsEI4962wcduIp8IwIDC+JKW+9ielvvo6wWwxXd3hbeGbQCUApfyU3oGqCaxnIaNQc+Uf0Q8eehyG7cTPOCKhASxsGq3HKCgRrc811UFawDj9M/RQz3n8bfmkRLBcwjRDiZghHn34WjjjpFDhmVGkR4oWY9s4kTH//XUQpsHsuXCpLcN2CdBLB+QR+SCkZJCcefAO2mYZex52Ak86+AAkrDZrnIZyMYdK4f2HxrBkIeQl4msvX4/GXRINQ4x5uOeEaiYAQhBp52+SkD0YEVOufC5c6F1yT/7RDFo45+yL0GnwaZxNMx8WU117F929OhOaXceZA11yYjgWP2h8NG5qfhK2HEc5tgPy+/dCt/4nIatAE4FU44GikI6ACA2kQgiIArc41VUZgbaAHlKxegGfHjIZpl8L3IirYuzbS23TA4MuuRl7rfC4t+JqDgkXz8OH4x1CwfD6dNHTPAvQkNDhcxkgJESg7wE0LOokh6XpDyG7dBuf+7UaYWQ1ZU+HbCfw8+SN8+p+nYCYceNzTQaUIG/CtXbR0HoxPhFyTILB/ERCCsH/xl6MLAuUI7EAQDB+2FcIxZ49CryGnwdUsGK6LqZOIIEwoJwiUxjd5ZU26BA+2oSFUvwmOGnY6OvY+AmakDgde9lJwbTgJG8myUsRjMV6N64aJUDiEtGgEeigE3YjA83UUr1mMZ275M0LJrdBci/sryYHBs9LR/tgT0e/Mc5GWWQ8etU8mSzDrwzcw88034JXRfn3VnsmtkSpnQKUQ/pN1ECoRYGXlYsD5l6B9337wNItbMdcs+AVv/N/D8DaugGbT1mHofhKa5sD3iZDIQyMICAL7AgEhCPsCZTmGIFAFBHYkCIBtBRmEIUPh6iYMx8PUSa/g+7cmQvNKAd/kar7h0zrbYTEf6jTAMSPPQ/vDj4IRjrLQUPcSKFi3CgtmfYe1i5eidMsm2HaCBYy6ocEMh5GdUwd1GjZE266HoUGTFigtWIenxl4HK7kFOncbWtA1B66rwchpguNGXYI2vY+EBwu67iK+YS3efvwxbJz/I3QkQJ0KxANSfgxeZdMkEkpqJroecyz6njMKZlZ9aL4DZ2sB3n/+WSyZNQVhpxQ+SRz0EAyXro+EmioLIh9BQBDY+wiIk+Lex1iOIAhUCYFdEwTKIJwaZBB8TJk0kUsMul/GBIHFgojD8F3YRia6Dx6GI4afBWTV4c4CPVGMH76ejC9efwP2pgKYdgxGyvSIzIh06nIgOYAGzzCgRzLQ6ZDD0b1rPiY89ThMt4y6LjmrwEwBDlwtjLzOPXDaVX9FOKcet2KSTmHpzOmY+PgDSHcKYbDhYjBZik2P2N0ALlwYVhoyGjbDwAsvQYOuvWBoEXjJGH787H1Mm/QivOICaEgGXgtBB4N0L1TpOZKNBIE9hYB0MewpJGU/gsBuIlB9glDKq3oq8mtQ2YC0Bi0x+LI/oWHXHtzKaCRKMX/6Z/h0wovwt2xhEsFB3gMMj5QI9AkIAq/MybzIg6NZiGZmI15SBJ1IhmbC9T141IKpkTCSyh8Z6DviPPQ+ZRg8g8SFBhAvxjtP/wvLvp0KI5GA5ZPlkgstZQ9NsgfyUAin49CTh+Pwk0+FnpYFMlAoWLmEdQyb5v0Ak6mE8mmobAstHQy7+ZDJ1wWBaiAgJYZqgCWbCgJ7E4HfJAiwYHgeplCJgTMIQYmBZy0k4OohNDnkCAwcdQXSGzThwBrbuBYfPvcEVn8zEyHHhadTwFXCQXZgLLcUqJy61+CS+ZGhwaHSBa/+A08F/qILw7fhaib83CYYceVf0KjjIdxOafgOilYswCuPPIyyNcsRdsnLgMoMJIL0KfcA3bSQ06ojTrn6L8hs3AjwLGhlCUye9AJ++PQdJjU+iR99pXkgNkOCTY3cID3xUdybz6DsWxCojICW37WXb1jUriQfQUAQ2J8IKCNhCuIUg00W8iVJg3DOKPQcMgxkaGy6DqZMehnfv00ixTjghYIBTzG4egRt+w/BCedeAo0Eh5qPdQt+wQfPPIbYimXQHINNkkDZBnIp5JkJ5c2NwaWnZh345FfE63j+LxMKlW2gf9HZoZH8C9LQoFN3DLvqWhg5ddn5QLPjmPm/9zD9zRdglJUgjDA8x4dt2vAMH3okFydfciVaH3EEXCPEGYoV33+D9598Au7WTYCf5KyIEhukBlQpwyfJIOzPJ1SOXdsQECfF2nbH5XoPWATURAWXRX2aR+6JRBCoi+FC9BwyglfsppvElFcVQSAhoO+FOWAbiMPT0tBx4DAcf97F8MIWGxutnf8T/vfk/0Ny9XLWDdBK3qQAzHF/99V+OmUGonXRa/hZ6D1kCDQtDaZuYMvqRfjg+cex7qc5MJMGdF9DwkzCNU0ccvQQnHDBxXDD6cwB7K0b8O87b4O9crkqgfCsCXFLPGAfVDmxWoOAaBBqza2WCz3QEahMEHTXoonPTBD6nUM+CMPLCcLUV1/Gd+9MgO4TQQipkUl6HK6fhrb9TsTxF10KPSsbnuehdPUKfPbMOKydO4tFiDQ/yfQ85bm8JwhCkEXIbN0OJ108Cg1bdYNn065L8POXn2DyhJfgFm1lPwQa4pTZrDXO+tONSG/QEr5mwXeKMfW1iZj93tuIuHQNVAIRcnCgP6tyfrUDAdEg1I77LFdZAxD43QSBgqpBWYEQ6uf3wvGXXobspq3h+Qa0eAm+eetVfP/BO3DKiqEGOHHhYI8QBJJHsg1yKIwuAwbiiOHnI5yRA9eIw9myCR+Nfw7LZk2H5pQBGVk4asS56HbCEEBL57kPy2bPwMfPPw1n0yrOHlAuJKhqlN+xwICxBtxBOUVB4OBCQDIIB9f9lKupwQhsW2IgDYKGZCiEfmddhF5Ddp5BgBuC4ftwDRp4pMOq0xAnXnwZWvQ6EjDTAN9G6ZrlmPrm65j39dewkmXQXRuaniIJuw+YcmDUYGXXx3GjLkebw44CTaSkoVIr58zB6/96EIhtRYtefXD8yEu4vZG6E4o2rMYnLz6LNbNnAE6Mr9d0lPZAvA52/77IHgSB3UVACMLuIijfFwT2EAK70iD0I6vlXyEIpk9dgi4804Omp6HjkcdhAAkVM7PZftnwXMQ3b8CsyZ/g+88/glOwCSGalOg7gc/A7l0AtTySD4ILA1nt2uHCm26Gn57HvglaPI6PXngGi3/8DiedewFaH9oPlCSAW4rvPvwAX056CXrZFmiawW2Z5NtAFQYeYy0fQUAQ2K8ICEHYr/DLwQWBCgRUSKQJjF4lkaKFfmeNQq+Td51BIILgGkQQXGiuDjecg2NGXohDjj0OCKWz+yCZGxl+GVb/+B2mvfseNiz4BX4iBm27tkGq/3O7ZTBlcRfDmre5bXzevgabqgMhC10HnowBZ10KjwYv0QSFzSvw4ZuvY/C5F0MLZXP3RdH6xZhw//1w1q2ERQZPZLRkk42yzRqEPSGglGdLEBAEdg8BIQi7h598WxDYYwhwYKZGR8Pl9kMXOmwzjGPOOh+9TqUuBvJBSHAXw+y3J7J9MnsIEKHgPkSP7YttQ4eRkY7jh49EuyOOg5mZAdfQ4ZO3gesiUbgFi2Z/j3nfzsSmJQthF23msgP5DmgGjXX21MAmkMmRz+2QigQoWeP2EkKlHdDgGGoeBKK5OO3qv6Jx9+7wdZqvYKOkoAAZ9RqqAdCFG/H+809i8cxpMG0Hvu3CoJ7KYKaTSBT32CMlOxIEdgsBESnuFnzyZUFgzyGQIgiOTqt9nQlC0gih/9kXoteplEHYCUFgJ0UV0JVvAaXqNdg6EMrMRrdj+qHLUccis2krGHqE5jEqHwPbRdnWAiyfNxuLv5uOVT/NgVu8hWcekH0zDX2iyYvUnkjaBipVkG5A30n0VmZGPlz2VdBha2E0O/RwDBx1KdLrN+EBUdSySa6PWjKBHz//Lz57+TkYyRh0nhPhs+0Bk5Fyv4U9h6vsSRAQBH4fAkIQfh9u8i1BYI8jsGuCcMGuMwg8/pjcDqm078P3KJhr8A0a3WTDjFio16YTuh11Ijr27KN0CYbOpQXqGPBtG7Etm7By7izM+ex/2LR4EXSPzJpIC+BwwKc9M0HgDogdL1ujaY6asmjWvBATGz0nD31HXohu/Qey+6FDXg2aieJ1a/Dag3ehaOU8mFCuzzRuio2byJuBWA7tT9IIe/z5kh0KAtVFQAhCdRGT7QWBvYTA9gSBZhEkQ2k4avi56D3s9PIMwpevkA/CRDZKoi4GWnvTVIWgEKBEfqQDpKy9QcOgaQhTBA3bdcJRQ4eicadO0MMROJ4BjaZBUunAS8IrLcGUd1/H3C8+hFtaSP6H8D2b5j1C85l+KMvj7YI3lTc01g6QqaOFmO8i2qgFThj1BzTr3geGpjFBoLHSKCnGpPvvwtr5s2F6DgzKfKTKGaQ9CCydxSdpLz1ksltBoBoIyDTHaoAlmwoCexOBqhIEMkr6njQIfgKaSyUGWnEHzgaV1P80PIm1AZbN8xN834KZXR+te/RC1yOOQF6rtjAyctiwiLiErtnwYiVYMGMavnz7HZStXc7OjVTsIBJAhIWdmbf7MAWhQU5UitBNxMNhHD54GI469Qz4kXQeQ+34DjQzjVsfC5fNxwsP3YPk5nUwPR8mmSdqVNII2hsle7A3HzPZtyBQZQREpFhlqGRDQWDvIlAuUtRdVfsPMghHDj8XfSplENhq+Z2JLFgkgqCy8tT9kDo/FWFTQ5ZI9EgWzrz8N0JwjBCiOTlo16MX2vY6DA3bdoARiUAzTC49OIkyLJ45A9PffBVlq1dA9+M8H4KEBDzgabuPrtF0SBJBhpAMaWiY3w1DLr8a6fWaQfNdFG1ai80b16NV567wtRAMN4E5H76LL157DkgkYThMPcrVj5xQkI8gIAjsdwS0Tl16+lYofb+fiJyAIFDbEaAsAIVflwYqsbcAkDDTcOTw83D40BFwdYu7EGjq4az3JiJkk0ZA9RWkVvaKGlQ0CVLKnmv69FMqJehKUuhSKl83kNW4Mdr07I1u/QagTuPWcHWThQFaaRnmfzUdH45/EqFYMVwzzgGcSggkWuR+Bm6F9HiCIzQLLsIw8/Iw4pprUK9NF3iGBT0Rx6eT/oPCjRtxysVXwcjM5UFPya1r8fF/nsSSGV/BdFODmJSWgq5F7JZr+2+DXP+BgIBMczwQ7oKcgyDAIZe6BKitkEYde/ANH0kzgqNOvxB9Th4KzwzBsB18+sp4zP7gdYSTDqfsKXOws9T/rkDlcgKNcLYAm8hFKB0N2nbFieddhDotW7LAkZIOWkkJ3n36USyb8RXPVtDgwfNYWsi+B5ywoNHPms/CRC+Ugf5nXYBDBg1hvQRlNlb/8gMmPXIvLMNDvxEXo0u/E7mVkiY2rvrxW3wy/hmUrV3FyQ36mI6axSBVBvmVEAT2PwKsQbBCUV5dyEcQEAT2JwIBQdDIT0C5FSWtdBw78mL0OGkIHMOC6Tj46IUn8eOn78Ii/wDuMFQk4dc+FeOaeTo0txY6FpERH75jwTOzkN2mDc7601VIa9CER0uHPBcFi2Zj/D/uhJkoYktn+MrroGIoNE2f1OBZYbTs2QcnXXAVzLwG8Lw4nMKteO+pcVj1w7fQUIpGHXpg0IV/RlbTZnAtDW5JMWa+/Tq+++8b8Jw4ly9MjzwVUkfYn/dCji0ICAKiQZBnQBA4UBAgpT+J/diLmPIJPmwrAydecgXyjz0eDlkR2zbefeZRLPzyA5gOpeRVOSIVUqvM87njgLQOPhyPnBjDcEIR5PcfgBNH/ZENmogQaMVr8fxdd6J4+ZLAI0GdGZcsaKWvUwujhfQmrXDCueej2SGHw9FD0O1izP3sY3z92itIFm2GpcdghzNw2Cnno/eQ0+BFI9A8DUWrluCDZx7Fhl9+gklZDRpFTaJLbtqUjyAgCOxPBIQg7E/05diCQGUEyEeArIw8U80i0IBkKBNn/G0MmnbrwdoEI5bApMfuwZrvp0J3PWgatSnSyr7qUNKmlAggMqKR+pDKGgbYHyHSpDUuGHMXzOw8khdAswvx/v/9PyydPg2GrwyZUlbInkbfM+BHM9F7yHD0HjQEWiQLmquhYMUSfPjcv1Aw7xf+joEkkpaO9MbtcNoV1yC3ZTt4pgnNTWD5t9Pw9qOPIJRMwvUT0JXPc9UvSLYUBASBvYKAtDnuFVhlp4JA1RDYxrqYDY/INtmEwyJCDW56XVx42z+Q2awNdzX4hUWY8ODtKFwwO1AdkpdB9QiCyjbQmGYlZ1ROhj7PctDrNcLpf70Vuc06kN0RPLsUn73wOOZ98gkLJHkwU2C/TBmNpGGhWcduGHblnxCu1wCupkOPJTH5lZfw/cevwUzGYXArJlkxO0hqGlof1h8j/jgabiTCpMdMxDD55Rcw639vI+Q6TJKqxXiqBrVsJQgIAtVEQDII1QRMNhcE9iQCKdMh1hBw2t/nVb1jUADXkdGkJUbeNBZGvUYwfCC2di1eefhOxJb/wjGU3BBTC262KWZTI/qzom2Qzpe7GYIPtVByaYG0A5SVCAiCbbnQc/Nw0a33I5rbBBr5GiRieP+Zh7D8qy9hJB3oPAFSdVrYeghW3Xo4f/T1yGrTnjMQ0HSs/flHvHbfPdDjm3n7kE1GSWF4ug1Pj8MO1cHJl1yD9v2OgW2EWWHpbVmNiffdiaKlK7grwvdtJYaUjyAgCOw3BCSDsN+glwPXVgR8jVbiajYBB2/fhm/Smt6A7urwdTJJ9uGG6uCQAYPQ/+xz4KdnQrMdLPr6M3z+/DNIlGyG5ZBBEdXtdbjkNuQBaXXy4Njgvw8ZHjyyU+RMQaBT8HQYrFh04Rg+HF2D5dKAJh3xsI4m3XrijGv+Di+SxiUGs3ALnr77dsRXLYWeJD8FyjlQoPfhR3Nw5Ijz0GPwEEAPw/UdJLeux2uP3o/CeT8DrtqerlU5JFLNgjQPPnJa5+PUq0YjvWVTODBZcLl4xpf45MXn4BVtBJCA67owvRBAJRfyZKZ/PBr3JB9BQBDYFwgIQdgXKMsxBIFKCLAzIafRDR6eRC1+tKJX5kg098CBo5nIbNoWgy66DI3zu8LRLWglRZg84TnM/fR/0PykciBUzZEcPB3dRIe+x6BB89aYM+NrFKxZDiRiygkRdoXbIp8LZQ+INujQXBOukYa0xg0x5NxRaNntMNhEWDwbBQsX4Pl7/oFQ2VY1v0FzWJhI1s1tDu+HEy64GFZmLmshPLsEX7/9Oma++QqidoKHN9HAp1S5IDURkn7mpmWh++BT0Xf4aUA0h02YnIJ1mPb6RMz98hNoyWIYVNLwLFA/JhGE1ChqeZgEAUFg3yAgBGHf4CxHEQTKEVDDjShVb7KZkB0OwbQBP06ZhBBc3YNVty4OP3koeh5zAvRIFnw42DDvR3z8zDMoWrmQMwBqsqISCpJ3kYMQeg46Df1OHYGNmzdi1dKFmP/NDKxZugROSRHPPqDOBdUSacEjd0XyUNDT0KBNBxw9YgSad+4G34zw/lFShPeefhbLp0+FhmK2W9Z0F7ZhoU6TDjjuokvQqGsXaJ7FTojL5s7C5888hbLVi1nQyH4OvN5X3ohEZojO0FAm1zQRadgCg0ddjIbd+8BFCIYTx5ZFP+Gdf/8fSlcvgWEnYLhEMki0WdkpUh4mQUAQ2BcICEHYFyjLMQSBSgjwXAOu/2vQsnMw8pq/4Jvp36Jg/Xo4jo/chg3Qs/9RqN+mIzQjjTUFTmwLvnxtAn54/38Iu3G4PNhIaQ183YCuu3C1KLoNHoZ+I0bCD4UB3QbKkijduBEr5y/A0oXzUbx1M2JlMd5nNDMddZs0QJv8TmjWPh9mRi6TDVezYblJzHj7v/hq4qsIuaUA4vBJq2AaQHpd9DnlDPQadAr8aBSe78Ap2oJPX3gei6d8CMOPc8mCCNAuxYaazq2VHQ7vh36jLkYopwFgu7DcUnz7wX/x0cQXkOXEoCcpY6FmSvA8CdElyO+SILDPEJBpjvsMajmQIKAQoMmI1EFAAkE/txH+8sgj7B3g2mRnrMPULcA02b6YZygkSjBn8seY/MpEmEWFMOEq50IuTVD5gMSBNlw9gq6DhrOboWdZ8A0TVPYnPwPdszmQe64Lz1NdAtQlYaaFecgSj37m+r4NJ1aA+dO/wrTX34C9dRPIb9FwPeiahbhmoVmPw3DKpZcjlFsPHukfnBgWfDUZn78wHijcAJjkl2wGUxp3ThG4XAATfjQbAy+7BO37HgNPCykfiKJCvPzow9j882yEnDhRoCADQX/SucpHEBAE9gUCQhD2BcpyDEGgMgKUPeCUuQGvblNc+9gTcMwIXJImagZrC6j1kCyTyrasw/yvPse0997hFkfDT7DI0PcN2Ca49ZBKFr7pwvMpeB+Nw4eMQF6r5kA0wiSBPz4JBpVAkVL85GFAcxl4pc8zIFwgGcfGlUvxy/QvMe/r6UgUrIOuO5w5YGtlIwKrTmOMuPoa1O/QngWOpJsoWbcW7z79L2z6ZTZCNDaauh98gzsYOMdRqYMiBQMPp6ZSg26gTrt2OPvaa2FlN2BSpNPEx8Xz8eoj9yO2aTXPg+Zx1jykQf9N10h52AQBQWDPICAEYc/gKHsRBKqMgEapclLz6yF4mfVx9di7kJbXEA6l70FdBT5KNm/AioXzMO/br7Bm7nfwiosDS2VXBUomGYFtMhkd8TwGDUjLRGbDxshr1hh5LVujQcv2yMnLQzQ7G4YVZmEkT4FieSSQKC1FccFGrFu+GKsXzsPG5UuxeflyaJTN8Gz2R1CFDGWn3PWwo9G579Fww2HWL9AkxgXfzsSczz+AkYyxxoAieGXtQeUWyxRIVGahoO9oOpxwGrocfTQ6H96XdQvUXmnGyjB36mT89O0M6E6SNQ1s6MSDouQjCAgC+wIBIQj7AmU5hiBQCQEOnxzsLDhGGOn1GiBarz4iWZnwPBdlRVsRK9yC2NbNQKIMYZpPwFmDHWcuUPymVXywuOaOCN8gMSGVCyxY4SyY0QgQTkNWnRxE0rPguR7ceCliZcWIxUtgx0rhlBZDSySge16lzoNK3gncjunBCKfBCafD04loQM1OiJfBtxM7mB9uYwK1/RNAGRS2ZQy0ClYYeiQKGCY86nxwHJhOEolYKQwSTGqUKQnGTf/W4Al52gQBQWCPICAEYY/AKDsRBKqOgBIXUordZ30ADzviEcxqUJGmaTBIn+CpNDz9Q+SAJzfv5DCqPZIX7kwO2DaZ9u0leSojGRiRIJJIhqYZXGYw2YjIh02lB43IhM5yB0Mz4O50chvVJZK8uoce4omPrGXwHZj0VdIvVCNwU7sktWHw4ChXg2GEkHRc6NSREXRnuI4N06Q2UFdNeySC4NHfixNC1Z822VIQ+P0IaJ3ye/hWOOP370G+KQgIAtVCgMcwBR0IbK1MyXbNgxvoEiiQ0waGZnJandFnaEcAAAU1SURBVM2QWKq3M3rATgZBGYDYBHVH0D5VxkHzSNBA31dJf1q0KwdGOgGlPyDiwYGar0IDKQe2dyPiI2uKZJCjI59XsEOP9Q2B1qGKSLCmgPYRbE+Ehs2U6CToOK4HoxIjShEgUiPIRxAQBPYNAmK1vG9wlqMIAuUIaEQEQHMXOMIGaQEV5Ln9MaXaJytDrv4H4T0Ytbw9lCrIKq2AchoIFACccVB/q7wXVFAmSuEhxPV8ogPkyUBEhY/l09+lhjlXHElxFvVzw+WeBz4iiR1pcyY11fioM1UpEdJjpOhPuZ6Rsh183upPvkJq7ZQehmqgLJsKAruHgBCE3cNPvi0IVBsBXo3zQjiYWhi4KAb1BfY4YHMhXk2r0KnzZKVU+r3yIVXg5xHJFEwD40JFEypmMKi0vBIzqmjLO+fMhapjKNMk6o7gjoXtAj4FZ0U3FMngjL/qLQjoSfUIAnVxUCkllargTgpOgCjSQA7RfLyAMXCZhY9dveNU++bIFwQBQaAcATFKkodBENjHCKjMQWpV7EHTSRiohiup0EvpeqUroA+v6mnSY+BIuP3pUvDWKeDyMp+CqAq77F/IZQSVmeAgH8RkKj0YVBrw1bHoS9SaqEofikikBkmljsechiN1QAp2SiKqBiadrw83mNuosgQ61RcCPQVnUfia1CkTeeAujYDYVO0ospUgIAjsDgIiUtwd9OS7gsDvQCA1fVGtkQMSEPxwW31g5dVy1eyBKgf1X19sB6LHVNahnLDs+oJ2tXav2pntQGs4O0DXq5IEqbkN2263rYXCzrf5HbdAviIICAJVQEAyCFUASTYRBAQBQUAQEARqGwKiQahtd1yuVxAQBAQBQUAQqAICkkGoAkiyiSAgCAgCgoAgUNsQEA1Cbbvjcr2CgCAgCAgCgkAVEJAMQhVAkk0EAUFAEBAEBIHahoAQhNp2x+V6BQFBQBAQBASBKiAgIsUqgCSbCAKCgCAgCAgCtQ0BIQi17Y7L9QoCgoAgIAgIAlVAQIY1VQEk2UQQEAQEAUFAEKhtCAhBqG13XK5XEBAEBAFBQBCoAgJSYqgCSLKJICAICAKCgCBQ2xAQH4TadsflegUBQUAQEAQEgSogIAShCiDJJoKAICAICAKCQG1DQAhCbbvjcr2CgCAgCAgCgkAVEBCjpCqAJJsIAoKAICAICAK1DQEhCLXtjsv1CgKCgCAgCAgCVUBAuhiqAJJsIggIAoKAICAI1DYERINQ2+64XK8gIAgIAoKAIFAFBLT8rr18w4pWYVPZRBAQBAQBQUAQEARqCwJap/yevhVOry3XK9cpCAgCgoAgIAgIAlVAQDQIVQBJNhEEBAFBQBAQBGobAqJBqG13XK5XEBAEBAFBQBCoAgKSQagCSLKJICAICAKCgCBQ2xAQglDb7rhcryAgCAgCgoAgUAUEhCBUASTZRBAQBAQBQUAQqG0ICEGobXdcrlcQEAQEAUFAEKgCAiJSrAJIsokgIAgIAoKAIFDbEBCCUNvuuFyvICAICAKCgCBQBQSEIFQBJNlEEBAEBAFBQBCobQgIQahtd1yuVxAQBAQBQUAQqAICIlKsAkiyiSAgCAgCgoAgUNsQkFkMte2Oy/UKAoKAICAICAJVQECmOVYBJNlEEBAEBAFBQBCobQhonbv28q1QFL5f2y5drlcQEAQEAUFAEBAEdoWAaBDk2RAEBAFB4P+3W4dGAMAgAMRMUZ2lpvvvBg4DI2SF3IsnQIDAEDAIoiBAgAABAgSWQXg/T1w0BAgQIECAAIEWKHzcJXvJGQ1CAAAAAElFTkSuQmCC;clipPath=inset(2.11% 16% 5.63% 17.67%);" parent="1" vertex="1">
                    <mxGeometry x="381.04" y="1010" width="329.93" height="217.19" as="geometry"/>
                </mxCell>
                <mxCell id="116" value="Client Components" style="text;html=1;strokeColor=none;fillColor=none;align=center;verticalAlign=middle;whiteSpace=wrap;rounded=0;fontColor=#333333;fontFamily=Comic Sans MS;fontStyle=1;fontSize=17;" parent="1" vertex="1">
                    <mxGeometry x="447" y="980" width="180" height="30" as="geometry"/>
                </mxCell>
                <mxCell id="117" value="" style="endArrow=classic;html=1;strokeWidth=5;strokeColor=#696969;startArrow=classic;exitX=0;exitY=0.5;exitDx=0;exitDy=0;entryX=1;entryY=0.25;entryDx=0;entryDy=0;startFill=1;" parent="1" source="99" target="115" edge="1">
                    <mxGeometry width="50" height="50" relative="1" as="geometry">
                        <mxPoint x="1264.5" y="916.7675032594525" as="sourcePoint"/>
                        <mxPoint x="1162.6" y="917" as="targetPoint"/>
                    </mxGeometry>
                </mxCell>
                <mxCell id="118" value="" style="endArrow=classic;html=1;strokeWidth=5;strokeColor=#696969;startArrow=classic;exitX=0;exitY=0.5;exitDx=0;exitDy=0;startFill=1;" parent="1" source="114" target="115" edge="1">
                    <mxGeometry width="50" height="50" relative="1" as="geometry">
                        <mxPoint x="962.5999999999999" y="909" as="sourcePoint"/>
                        <mxPoint x="720.9699999999998" y="1074.2975000000001" as="targetPoint"/>
                    </mxGeometry>
                </mxCell>
                <mxCell id="122" value="DB関連" style="text;html=1;strokeColor=none;fillColor=none;align=center;verticalAlign=middle;whiteSpace=wrap;rounded=0;fontColor=#FF8000;fontFamily=Comic Sans MS;fontStyle=1;fontSize=17;" parent="1" vertex="1">
                    <mxGeometry x="796.01" y="969" width="180" height="30" as="geometry"/>
                </mxCell>
                <mxCell id="123" value="DB非関連" style="text;html=1;strokeColor=none;fillColor=none;align=center;verticalAlign=middle;whiteSpace=wrap;rounded=0;fontColor=#FF8000;fontFamily=Comic Sans MS;fontStyle=1;fontSize=17;" parent="1" vertex="1">
                    <mxGeometry x="772.5" y="1183" width="180" height="30" as="geometry"/>
                </mxCell>
                <mxCell id="124" value="" style="endArrow=classic;html=1;strokeWidth=5;strokeColor=#696969;startArrow=classic;exitX=1;exitY=0.5;exitDx=0;exitDy=0;startFill=1;entryX=0;entryY=0.5;entryDx=0;entryDy=0;" parent="1" source="81" target="115" edge="1">
                    <mxGeometry width="50" height="50" relative="1" as="geometry">
                        <mxPoint x="939.5700000000002" y="1252.995" as="sourcePoint"/>
                        <mxPoint x="720.9699999999998" y="1182.0973946397612" as="targetPoint"/>
                    </mxGeometry>
                </mxCell>
                <mxCell id="125" value="" style="endArrow=none;dashed=1;html=1;fontSize=17;fontColor=#FF8000;strokeWidth=7;strokeColor=#000000;" parent="1" edge="1">
                    <mxGeometry width="50" height="50" relative="1" as="geometry">
                        <mxPoint x="800" y="1430" as="sourcePoint"/>
                        <mxPoint x="800" y="360" as="targetPoint"/>
                    </mxGeometry>
                </mxCell>
                <mxCell id="126" value="Front Side" style="text;html=1;align=center;verticalAlign=middle;whiteSpace=wrap;rounded=0;fontFamily=Comic Sans MS;fontStyle=1;fontSize=31;fillColor=default;" parent="1" vertex="1">
                    <mxGeometry x="11" y="389" width="750" height="40" as="geometry"/>
                </mxCell>
                <mxCell id="127" value="Back Side" style="text;html=1;align=center;verticalAlign=middle;whiteSpace=wrap;rounded=0;fontFamily=Comic Sans MS;fontStyle=1;fontSize=31;fillColor=default;" parent="1" vertex="1">
                    <mxGeometry x="840" y="389" width="750" height="40" as="geometry"/>
                </mxCell>
            </root>
        </mxGraphModel>
    </diagram>
</mxfile>